ISO-10303-21;
HEADER;
/* Generated by software containing ST-Developer
 * from STEP Tools, Inc. (www.steptools.com) 
 */

FILE_DESCRIPTION(
/* description */ (''),
/* implementation_level */ '2;1');

FILE_NAME(
/* name */ '',
/* time_stamp */ '2026-04-16T01:42:32+02:00',
/* author */ (''),
/* organization */ (''),
/* preprocessor_version */ 'ST-DEVELOPER v20.1',
/* originating_system */ 'Autodesk Translation Framework v15.8.0.0',
/* authorisation */ '');

FILE_SCHEMA (('AUTOMOTIVE_DESIGN { 1 0 10303 214 3 1 1 }'));
ENDSEC;

DATA;
#10=MECHANICAL_DESIGN_GEOMETRIC_PRESENTATION_REPRESENTATION('',(#13),#269);
#11=SHAPE_REPRESENTATION_RELATIONSHIP('SRR','None',#276,#12);
#12=ADVANCED_BREP_SHAPE_REPRESENTATION('',(#14),#268);
#13=STYLED_ITEM('',(#285),#14);
#14=MANIFOLD_SOLID_BREP('T\X2\011B\X0\leso1',#137);
#15=LINE('',#241,#17);
#16=LINE('',#253,#18);
#17=VECTOR('',#193,10.);
#18=VECTOR('',#208,8.25);
#19=CYLINDRICAL_SURFACE('',#158,10.);
#20=CYLINDRICAL_SURFACE('',#165,8.25);
#21=FACE_BOUND('',#35,.T.);
#22=FACE_BOUND('',#41,.T.);
#23=PLANE('',#156);
#24=PLANE('',#171);
#25=FACE_OUTER_BOUND('',#33,.T.);
#26=FACE_OUTER_BOUND('',#34,.T.);
#27=FACE_OUTER_BOUND('',#36,.T.);
#28=FACE_OUTER_BOUND('',#37,.T.);
#29=FACE_OUTER_BOUND('',#38,.T.);
#30=FACE_OUTER_BOUND('',#39,.T.);
#31=FACE_OUTER_BOUND('',#40,.T.);
#32=FACE_OUTER_BOUND('',#42,.T.);
#33=EDGE_LOOP('',(#89,#90,#91,#92,#93));
#34=EDGE_LOOP('',(#94));
#35=EDGE_LOOP('',(#95));
#36=EDGE_LOOP('',(#96,#97,#98,#99,#100,#101));
#37=EDGE_LOOP('',(#102,#103,#104,#105,#106));
#38=EDGE_LOOP('',(#107,#108,#109,#110,#111,#112));
#39=EDGE_LOOP('',(#113,#114,#115,#116,#117));
#40=EDGE_LOOP('',(#118));
#41=EDGE_LOOP('',(#119));
#42=EDGE_LOOP('',(#120,#121,#122,#123,#124));
#43=CIRCLE('',#152,9.5);
#44=CIRCLE('',#153,0.5);
#45=CIRCLE('',#154,10.);
#46=CIRCLE('',#155,10.);
#47=CIRCLE('',#157,8.75);
#48=CIRCLE('',#159,10.);
#49=CIRCLE('',#160,10.);
#50=CIRCLE('',#162,0.5);
#51=CIRCLE('',#163,8.25);
#52=CIRCLE('',#164,8.25);
#53=CIRCLE('',#166,8.25);
#54=CIRCLE('',#167,8.25);
#55=CIRCLE('',#169,9.5);
#56=CIRCLE('',#170,0.5);
#57=CIRCLE('',#172,8.75);
#58=CIRCLE('',#174,0.5);
#59=VERTEX_POINT('',#229);
#60=VERTEX_POINT('',#231);
#61=VERTEX_POINT('',#233);
#62=VERTEX_POINT('',#237);
#63=VERTEX_POINT('',#240);
#64=VERTEX_POINT('',#242);
#65=VERTEX_POINT('',#246);
#66=VERTEX_POINT('',#248);
#67=VERTEX_POINT('',#252);
#68=VERTEX_POINT('',#254);
#69=VERTEX_POINT('',#258);
#70=VERTEX_POINT('',#262);
#71=EDGE_CURVE('',#59,#59,#43,.T.);
#72=EDGE_CURVE('',#59,#60,#44,.T.);
#73=EDGE_CURVE('',#60,#61,#45,.T.);
#74=EDGE_CURVE('',#61,#60,#46,.T.);
#75=EDGE_CURVE('',#62,#62,#47,.T.);
#76=EDGE_CURVE('',#61,#63,#15,.T.);
#77=EDGE_CURVE('',#64,#63,#48,.T.);
#78=EDGE_CURVE('',#63,#64,#49,.T.);
#79=EDGE_CURVE('',#62,#65,#50,.T.);
#80=EDGE_CURVE('',#65,#66,#51,.T.);
#81=EDGE_CURVE('',#66,#65,#52,.T.);
#82=EDGE_CURVE('',#66,#67,#16,.T.);
#83=EDGE_CURVE('',#68,#67,#53,.T.);
#84=EDGE_CURVE('',#67,#68,#54,.T.);
#85=EDGE_CURVE('',#69,#69,#55,.T.);
#86=EDGE_CURVE('',#69,#64,#56,.T.);
#87=EDGE_CURVE('',#70,#70,#57,.T.);
#88=EDGE_CURVE('',#70,#68,#58,.T.);
#89=ORIENTED_EDGE('',*,*,#71,.T.);
#90=ORIENTED_EDGE('',*,*,#72,.T.);
#91=ORIENTED_EDGE('',*,*,#73,.T.);
#92=ORIENTED_EDGE('',*,*,#74,.T.);
#93=ORIENTED_EDGE('',*,*,#72,.F.);
#94=ORIENTED_EDGE('',*,*,#71,.F.);
#95=ORIENTED_EDGE('',*,*,#75,.F.);
#96=ORIENTED_EDGE('',*,*,#74,.F.);
#97=ORIENTED_EDGE('',*,*,#76,.T.);
#98=ORIENTED_EDGE('',*,*,#77,.F.);
#99=ORIENTED_EDGE('',*,*,#78,.F.);
#100=ORIENTED_EDGE('',*,*,#76,.F.);
#101=ORIENTED_EDGE('',*,*,#73,.F.);
#102=ORIENTED_EDGE('',*,*,#75,.T.);
#103=ORIENTED_EDGE('',*,*,#79,.T.);
#104=ORIENTED_EDGE('',*,*,#80,.T.);
#105=ORIENTED_EDGE('',*,*,#81,.T.);
#106=ORIENTED_EDGE('',*,*,#79,.F.);
#107=ORIENTED_EDGE('',*,*,#81,.F.);
#108=ORIENTED_EDGE('',*,*,#82,.T.);
#109=ORIENTED_EDGE('',*,*,#83,.F.);
#110=ORIENTED_EDGE('',*,*,#84,.F.);
#111=ORIENTED_EDGE('',*,*,#82,.F.);
#112=ORIENTED_EDGE('',*,*,#80,.F.);
#113=ORIENTED_EDGE('',*,*,#85,.T.);
#114=ORIENTED_EDGE('',*,*,#86,.T.);
#115=ORIENTED_EDGE('',*,*,#77,.T.);
#116=ORIENTED_EDGE('',*,*,#78,.T.);
#117=ORIENTED_EDGE('',*,*,#86,.F.);
#118=ORIENTED_EDGE('',*,*,#85,.F.);
#119=ORIENTED_EDGE('',*,*,#87,.F.);
#120=ORIENTED_EDGE('',*,*,#87,.T.);
#121=ORIENTED_EDGE('',*,*,#88,.T.);
#122=ORIENTED_EDGE('',*,*,#83,.T.);
#123=ORIENTED_EDGE('',*,*,#84,.T.);
#124=ORIENTED_EDGE('',*,*,#88,.F.);
#125=TOROIDAL_SURFACE('',#151,9.5,0.5);
#126=TOROIDAL_SURFACE('',#161,8.75,0.5);
#127=TOROIDAL_SURFACE('',#168,9.5,0.5);
#128=TOROIDAL_SURFACE('',#173,8.75,0.5);
#129=ADVANCED_FACE('',(#25),#125,.T.);
#130=ADVANCED_FACE('',(#26,#21),#23,.T.);
#131=ADVANCED_FACE('',(#27),#19,.T.);
#132=ADVANCED_FACE('',(#28),#126,.T.);
#133=ADVANCED_FACE('',(#29),#20,.F.);
#134=ADVANCED_FACE('',(#30),#127,.T.);
#135=ADVANCED_FACE('',(#31,#22),#24,.F.);
#136=ADVANCED_FACE('',(#32),#128,.T.);
#137=CLOSED_SHELL('',(#129,#130,#131,#132,#133,#134,#135,#136));
#138=DERIVED_UNIT_ELEMENT(#140,1.);
#139=DERIVED_UNIT_ELEMENT(#271,-3.);
#140=(
MASS_UNIT()
NAMED_UNIT(*)
SI_UNIT(.KILO.,.GRAM.)
);
#141=DERIVED_UNIT((#138,#139));
#142=MEASURE_REPRESENTATION_ITEM('density measure',
POSITIVE_RATIO_MEASURE(7850.),#141);
#143=PROPERTY_DEFINITION_REPRESENTATION(#148,#145);
#144=PROPERTY_DEFINITION_REPRESENTATION(#149,#146);
#145=REPRESENTATION('material name',(#147),#268);
#146=REPRESENTATION('density',(#142),#268);
#147=DESCRIPTIVE_REPRESENTATION_ITEM('Ocel','Ocel');
#148=PROPERTY_DEFINITION('material property','material name',#278);
#149=PROPERTY_DEFINITION('material property','density of part',#278);
#150=AXIS2_PLACEMENT_3D('',#227,#175,#176);
#151=AXIS2_PLACEMENT_3D('',#228,#177,#178);
#152=AXIS2_PLACEMENT_3D('',#230,#179,#180);
#153=AXIS2_PLACEMENT_3D('',#232,#181,#182);
#154=AXIS2_PLACEMENT_3D('',#234,#183,#184);
#155=AXIS2_PLACEMENT_3D('',#235,#185,#186);
#156=AXIS2_PLACEMENT_3D('',#236,#187,#188);
#157=AXIS2_PLACEMENT_3D('',#238,#189,#190);
#158=AXIS2_PLACEMENT_3D('',#239,#191,#192);
#159=AXIS2_PLACEMENT_3D('',#243,#194,#195);
#160=AXIS2_PLACEMENT_3D('',#244,#196,#197);
#161=AXIS2_PLACEMENT_3D('',#245,#198,#199);
#162=AXIS2_PLACEMENT_3D('',#247,#200,#201);
#163=AXIS2_PLACEMENT_3D('',#249,#202,#203);
#164=AXIS2_PLACEMENT_3D('',#250,#204,#205);
#165=AXIS2_PLACEMENT_3D('',#251,#206,#207);
#166=AXIS2_PLACEMENT_3D('',#255,#209,#210);
#167=AXIS2_PLACEMENT_3D('',#256,#211,#212);
#168=AXIS2_PLACEMENT_3D('',#257,#213,#214);
#169=AXIS2_PLACEMENT_3D('',#259,#215,#216);
#170=AXIS2_PLACEMENT_3D('',#260,#217,#218);
#171=AXIS2_PLACEMENT_3D('',#261,#219,#220);
#172=AXIS2_PLACEMENT_3D('',#263,#221,#222);
#173=AXIS2_PLACEMENT_3D('',#264,#223,#224);
#174=AXIS2_PLACEMENT_3D('',#265,#225,#226);
#175=DIRECTION('axis',(0.,0.,1.));
#176=DIRECTION('refdir',(1.,0.,0.));
#177=DIRECTION('center_axis',(1.,0.,0.));
#178=DIRECTION('ref_axis',(0.,0.,-1.));
#179=DIRECTION('center_axis',(-1.,0.,0.));
#180=DIRECTION('ref_axis',(0.,1.,0.));
#181=DIRECTION('center_axis',(0.,-1.,-1.22464679914735E-16));
#182=DIRECTION('ref_axis',(0.,-1.22464679914735E-16,1.));
#183=DIRECTION('center_axis',(1.,0.,0.));
#184=DIRECTION('ref_axis',(0.,1.,0.));
#185=DIRECTION('center_axis',(1.,0.,0.));
#186=DIRECTION('ref_axis',(0.,1.,0.));
#187=DIRECTION('center_axis',(1.,0.,0.));
#188=DIRECTION('ref_axis',(0.,1.,0.));
#189=DIRECTION('center_axis',(1.,0.,0.));
#190=DIRECTION('ref_axis',(0.,1.,0.));
#191=DIRECTION('center_axis',(1.,0.,0.));
#192=DIRECTION('ref_axis',(0.,1.,0.));
#193=DIRECTION('',(-1.,0.,0.));
#194=DIRECTION('center_axis',(-1.,0.,0.));
#195=DIRECTION('ref_axis',(0.,1.,0.));
#196=DIRECTION('center_axis',(-1.,0.,0.));
#197=DIRECTION('ref_axis',(0.,1.,0.));
#198=DIRECTION('center_axis',(-1.,0.,0.));
#199=DIRECTION('ref_axis',(0.,0.,1.));
#200=DIRECTION('center_axis',(0.,-1.,1.22464679914735E-16));
#201=DIRECTION('ref_axis',(0.,-1.22464679914735E-16,-1.));
#202=DIRECTION('center_axis',(-1.,0.,0.));
#203=DIRECTION('ref_axis',(0.,1.,0.));
#204=DIRECTION('center_axis',(-1.,0.,0.));
#205=DIRECTION('ref_axis',(0.,1.,0.));
#206=DIRECTION('center_axis',(1.,0.,0.));
#207=DIRECTION('ref_axis',(0.,1.,0.));
#208=DIRECTION('',(-1.,0.,0.));
#209=DIRECTION('center_axis',(1.,0.,0.));
#210=DIRECTION('ref_axis',(0.,1.,0.));
#211=DIRECTION('center_axis',(1.,0.,0.));
#212=DIRECTION('ref_axis',(0.,1.,0.));
#213=DIRECTION('center_axis',(-1.,0.,0.));
#214=DIRECTION('ref_axis',(0.,0.,1.));
#215=DIRECTION('center_axis',(1.,0.,0.));
#216=DIRECTION('ref_axis',(0.,1.,0.));
#217=DIRECTION('center_axis',(0.,-1.,1.22464679914735E-16));
#218=DIRECTION('ref_axis',(0.,-1.22464679914735E-16,-1.));
#219=DIRECTION('center_axis',(1.,0.,0.));
#220=DIRECTION('ref_axis',(0.,1.,0.));
#221=DIRECTION('center_axis',(-1.,0.,0.));
#222=DIRECTION('ref_axis',(0.,1.,0.));
#223=DIRECTION('center_axis',(1.,0.,0.));
#224=DIRECTION('ref_axis',(0.,0.,-1.));
#225=DIRECTION('center_axis',(0.,-1.,-1.22464679914735E-16));
#226=DIRECTION('ref_axis',(0.,-1.22464679914735E-16,1.));
#227=CARTESIAN_POINT('',(0.,0.,0.));
#228=CARTESIAN_POINT('Origin',(4.5,0.,0.));
#229=CARTESIAN_POINT('',(5.,-1.16341445918999E-15,9.5));
#230=CARTESIAN_POINT('Origin',(5.,0.,0.));
#231=CARTESIAN_POINT('',(4.5,-1.22464679914735E-15,10.));
#232=CARTESIAN_POINT('Origin',(4.5,-1.16341445918999E-15,9.5));
#233=CARTESIAN_POINT('',(4.5,-10.,-1.22464679914735E-15));
#234=CARTESIAN_POINT('Origin',(4.5,0.,0.));
#235=CARTESIAN_POINT('Origin',(4.5,0.,0.));
#236=CARTESIAN_POINT('Origin',(5.,0.,0.));
#237=CARTESIAN_POINT('',(5.,-1.07156594925393E-15,-8.75));
#238=CARTESIAN_POINT('Origin',(5.,0.,0.));
#239=CARTESIAN_POINT('Origin',(0.,0.,0.));
#240=CARTESIAN_POINT('',(-4.5,-10.,1.22464679914735E-15));
#241=CARTESIAN_POINT('',(0.,-10.,-1.22464679914735E-15));
#242=CARTESIAN_POINT('',(-4.5,-1.22464679914735E-15,-10.));
#243=CARTESIAN_POINT('Origin',(-4.5,0.,0.));
#244=CARTESIAN_POINT('Origin',(-4.5,0.,0.));
#245=CARTESIAN_POINT('Origin',(4.5,0.,0.));
#246=CARTESIAN_POINT('',(4.5,-1.01033360929657E-15,-8.25));
#247=CARTESIAN_POINT('Origin',(4.5,-1.07156594925393E-15,-8.75));
#248=CARTESIAN_POINT('',(4.5,-8.25,1.01033360929657E-15));
#249=CARTESIAN_POINT('Origin',(4.5,0.,0.));
#250=CARTESIAN_POINT('Origin',(4.5,0.,0.));
#251=CARTESIAN_POINT('Origin',(0.,0.,0.));
#252=CARTESIAN_POINT('',(-4.5,-8.25,-1.01033360929657E-15));
#253=CARTESIAN_POINT('',(0.,-8.25,-1.01033360929657E-15));
#254=CARTESIAN_POINT('',(-4.5,-1.01033360929657E-15,8.25));
#255=CARTESIAN_POINT('Origin',(-4.5,0.,0.));
#256=CARTESIAN_POINT('Origin',(-4.5,0.,0.));
#257=CARTESIAN_POINT('Origin',(-4.5,0.,0.));
#258=CARTESIAN_POINT('',(-5.,-1.16341445918999E-15,-9.5));
#259=CARTESIAN_POINT('Origin',(-5.,0.,0.));
#260=CARTESIAN_POINT('Origin',(-4.5,-1.16341445918999E-15,-9.5));
#261=CARTESIAN_POINT('Origin',(-5.,0.,0.));
#262=CARTESIAN_POINT('',(-5.,-1.07156594925393E-15,8.75));
#263=CARTESIAN_POINT('Origin',(-5.,0.,0.));
#264=CARTESIAN_POINT('Origin',(-4.5,0.,0.));
#265=CARTESIAN_POINT('Origin',(-4.5,-1.07156594925393E-15,8.75));
#266=UNCERTAINTY_MEASURE_WITH_UNIT(LENGTH_MEASURE(0.01),#270,
'DISTANCE_ACCURACY_VALUE',
'Maximum model space distance between geometric entities at asserted c
onnectivities');
#267=UNCERTAINTY_MEASURE_WITH_UNIT(LENGTH_MEASURE(0.01),#270,
'DISTANCE_ACCURACY_VALUE',
'Maximum model space distance between geometric entities at asserted c
onnectivities');
#268=(
GEOMETRIC_REPRESENTATION_CONTEXT(3)
GLOBAL_UNCERTAINTY_ASSIGNED_CONTEXT((#266))
GLOBAL_UNIT_ASSIGNED_CONTEXT((#270,#272,#273))
REPRESENTATION_CONTEXT('','3D')
);
#269=(
GEOMETRIC_REPRESENTATION_CONTEXT(3)
GLOBAL_UNCERTAINTY_ASSIGNED_CONTEXT((#267))
GLOBAL_UNIT_ASSIGNED_CONTEXT((#270,#272,#273))
REPRESENTATION_CONTEXT('','3D')
);
#270=(
LENGTH_UNIT()
NAMED_UNIT(*)
SI_UNIT(.MILLI.,.METRE.)
);
#271=(
LENGTH_UNIT()
NAMED_UNIT(*)
SI_UNIT($,.METRE.)
);
#272=(
NAMED_UNIT(*)
PLANE_ANGLE_UNIT()
SI_UNIT($,.RADIAN.)
);
#273=(
NAMED_UNIT(*)
SI_UNIT($,.STERADIAN.)
SOLID_ANGLE_UNIT()
);
#274=SHAPE_DEFINITION_REPRESENTATION(#275,#276);
#275=PRODUCT_DEFINITION_SHAPE('',$,#278);
#276=SHAPE_REPRESENTATION('',(#150),#268);
#277=PRODUCT_DEFINITION_CONTEXT('part definition',#282,'design');
#278=PRODUCT_DEFINITION('2026-04-16-01-37-48-333',
'Distan\X2\010D\X0\n\X\ED v\X\E1le\X2\010D\X0\ek 10',#279,#277);
#279=PRODUCT_DEFINITION_FORMATION('',$,#284);
#280=PRODUCT_RELATED_PRODUCT_CATEGORY('Distan\X2\010D\X0\n\X\ED v\X\E1
le\X2\010D\X0\ek 10','Distan\X2\010D\X0\n\X\ED v\X\E1le\X2\010D\X0\ek 
10',(#284));
#281=APPLICATION_PROTOCOL_DEFINITION('international standard',
'automotive_design',2009,#282);
#282=APPLICATION_CONTEXT(
'Core Data for Automotive Mechanical Design Process');
#283=PRODUCT_CONTEXT('part definition',#282,'mechanical');
#284=PRODUCT('2026-04-16-01-37-48-333','Distan\X2\010D\X0\n\X\ED v\X\E1
le\X2\010D\X0\ek 10',$,(#283));
#285=PRESENTATION_STYLE_ASSIGNMENT((#286));
#286=SURFACE_STYLE_USAGE(.BOTH.,#287);
#287=SURFACE_SIDE_STYLE('',(#288));
#288=SURFACE_STYLE_FILL_AREA(#289);
#289=FILL_AREA_STYLE('Ocel \X2\2013\X0\ sat\X\E9n',(#290));
#290=FILL_AREA_STYLE_COLOUR('Ocel \X2\2013\X0\ sat\X\E9n',#291);
#291=COLOUR_RGB('Ocel \X2\2013\X0\ sat\X\E9n',0.627450980392157,0.627450980392157,
0.627450980392157);
ENDSEC;
END-ISO-10303-21;
