ISO-10303-21;
HEADER;
/* Generated by software containing ST-Developer
 * from STEP Tools, Inc. (www.steptools.com) 
 */

FILE_DESCRIPTION(
/* description */ (''),
/* implementation_level */ '2;1');

FILE_NAME(
/* name */ '',
/* time_stamp */ '2026-04-07T02:06:46+02:00',
/* author */ (''),
/* organization */ (''),
/* preprocessor_version */ 'ST-DEVELOPER v20.1',
/* originating_system */ 'Autodesk Translation Framework v14.24.0.0',
/* authorisation */ '');

FILE_SCHEMA (('AUTOMOTIVE_DESIGN { 1 0 10303 214 3 1 1 }'));
ENDSEC;

DATA;
#10=MECHANICAL_DESIGN_GEOMETRIC_PRESENTATION_REPRESENTATION('',(#13),#604);
#11=SHAPE_REPRESENTATION_RELATIONSHIP('SRR','None',#611,#12);
#12=ADVANCED_BREP_SHAPE_REPRESENTATION('',(#14),#603);
#13=STYLED_ITEM('',(#620),#14);
#14=MANIFOLD_SOLID_BREP('T\X2\011B\X0\leso1',#347);
#15=ELLIPSE('',#376,1.15470053837925,1.);
#16=ELLIPSE('',#377,1.15470053837925,1.);
#17=ELLIPSE('',#379,1.15470053837925,1.);
#18=ELLIPSE('',#381,1.15470053837925,1.);
#19=ELLIPSE('',#383,1.15470053837925,1.);
#20=ELLIPSE('',#385,1.15470053837925,1.);
#21=FACE_BOUND('',#75,.T.);
#22=FACE_BOUND('',#77,.T.);
#23=FACE_BOUND('',#90,.T.);
#24=FACE_BOUND('',#95,.T.);
#25=PLANE('',#366);
#26=PLANE('',#370);
#27=PLANE('',#371);
#28=PLANE('',#387);
#29=PLANE('',#388);
#30=PLANE('',#389);
#31=PLANE('',#390);
#32=PLANE('',#391);
#33=PLANE('',#393);
#34=PLANE('',#394);
#35=PLANE('',#395);
#36=PLANE('',#396);
#37=CYLINDRICAL_SURFACE('',#364,3.);
#38=CYLINDRICAL_SURFACE('',#367,2.5);
#39=CYLINDRICAL_SURFACE('',#373,3.);
#40=CYLINDRICAL_SURFACE('',#375,1.);
#41=CYLINDRICAL_SURFACE('',#378,1.);
#42=CYLINDRICAL_SURFACE('',#380,1.);
#43=CYLINDRICAL_SURFACE('',#382,1.);
#44=CYLINDRICAL_SURFACE('',#384,1.);
#45=CYLINDRICAL_SURFACE('',#386,1.);
#46=CYLINDRICAL_SURFACE('',#398,3.933);
#47=FACE_OUTER_BOUND('',#70,.T.);
#48=FACE_OUTER_BOUND('',#71,.T.);
#49=FACE_OUTER_BOUND('',#72,.T.);
#50=FACE_OUTER_BOUND('',#73,.T.);
#51=FACE_OUTER_BOUND('',#74,.T.);
#52=FACE_OUTER_BOUND('',#76,.T.);
#53=FACE_OUTER_BOUND('',#78,.T.);
#54=FACE_OUTER_BOUND('',#79,.T.);
#55=FACE_OUTER_BOUND('',#80,.T.);
#56=FACE_OUTER_BOUND('',#81,.T.);
#57=FACE_OUTER_BOUND('',#82,.T.);
#58=FACE_OUTER_BOUND('',#83,.T.);
#59=FACE_OUTER_BOUND('',#84,.T.);
#60=FACE_OUTER_BOUND('',#85,.T.);
#61=FACE_OUTER_BOUND('',#86,.T.);
#62=FACE_OUTER_BOUND('',#87,.T.);
#63=FACE_OUTER_BOUND('',#88,.T.);
#64=FACE_OUTER_BOUND('',#89,.T.);
#65=FACE_OUTER_BOUND('',#91,.T.);
#66=FACE_OUTER_BOUND('',#92,.T.);
#67=FACE_OUTER_BOUND('',#93,.T.);
#68=FACE_OUTER_BOUND('',#94,.T.);
#69=FACE_OUTER_BOUND('',#96,.T.);
#70=EDGE_LOOP('',(#235,#236,#237,#238));
#71=EDGE_LOOP('',(#239,#240,#241,#242));
#72=EDGE_LOOP('',(#243));
#73=EDGE_LOOP('',(#244,#245,#246,#247));
#74=EDGE_LOOP('',(#248));
#75=EDGE_LOOP('',(#249));
#76=EDGE_LOOP('',(#250));
#77=EDGE_LOOP('',(#251));
#78=EDGE_LOOP('',(#252,#253,#254,#255));
#79=EDGE_LOOP('',(#256,#257,#258,#259));
#80=EDGE_LOOP('',(#260,#261,#262,#263));
#81=EDGE_LOOP('',(#264,#265,#266,#267));
#82=EDGE_LOOP('',(#268,#269,#270,#271));
#83=EDGE_LOOP('',(#272,#273,#274,#275));
#84=EDGE_LOOP('',(#276,#277,#278,#279));
#85=EDGE_LOOP('',(#280,#281,#282,#283));
#86=EDGE_LOOP('',(#284,#285,#286,#287));
#87=EDGE_LOOP('',(#288,#289,#290,#291));
#88=EDGE_LOOP('',(#292,#293,#294,#295,#296,#297));
#89=EDGE_LOOP('',(#298,#299,#300,#301,#302,#303));
#90=EDGE_LOOP('',(#304));
#91=EDGE_LOOP('',(#305,#306,#307,#308));
#92=EDGE_LOOP('',(#309,#310,#311,#312));
#93=EDGE_LOOP('',(#313,#314,#315,#316));
#94=EDGE_LOOP('',(#317));
#95=EDGE_LOOP('',(#318));
#96=EDGE_LOOP('',(#319,#320,#321,#322));
#97=LINE('',#511,#126);
#98=LINE('',#515,#127);
#99=LINE('',#522,#128);
#100=LINE('',#530,#129);
#101=LINE('',#535,#130);
#102=LINE('',#539,#131);
#103=LINE('',#543,#132);
#104=LINE('',#546,#133);
#105=LINE('',#549,#134);
#106=LINE('',#552,#135);
#107=LINE('',#555,#136);
#108=LINE('',#558,#137);
#109=LINE('',#561,#138);
#110=LINE('',#563,#139);
#111=LINE('',#566,#140);
#112=LINE('',#567,#141);
#113=LINE('',#570,#142);
#114=LINE('',#572,#143);
#115=LINE('',#573,#144);
#116=LINE('',#576,#145);
#117=LINE('',#577,#146);
#118=LINE('',#580,#147);
#119=LINE('',#581,#148);
#120=LINE('',#585,#149);
#121=LINE('',#587,#150);
#122=LINE('',#588,#151);
#123=LINE('',#592,#152);
#124=LINE('',#594,#153);
#125=LINE('',#600,#154);
#126=VECTOR('',#405,2.5);
#127=VECTOR('',#410,3.);
#128=VECTOR('',#419,2.5);
#129=VECTOR('',#430,3.);
#130=VECTOR('',#435,10.);
#131=VECTOR('',#438,10.);
#132=VECTOR('',#443,10.);
#133=VECTOR('',#446,10.);
#134=VECTOR('',#449,10.);
#135=VECTOR('',#452,10.);
#136=VECTOR('',#455,10.);
#137=VECTOR('',#458,10.);
#138=VECTOR('',#461,10.);
#139=VECTOR('',#462,10.);
#140=VECTOR('',#467,10.);
#141=VECTOR('',#468,10.);
#142=VECTOR('',#471,10.);
#143=VECTOR('',#472,10.);
#144=VECTOR('',#473,10.);
#145=VECTOR('',#476,10.);
#146=VECTOR('',#477,10.);
#147=VECTOR('',#480,10.);
#148=VECTOR('',#481,10.);
#149=VECTOR('',#486,10.);
#150=VECTOR('',#487,10.);
#151=VECTOR('',#488,10.);
#152=VECTOR('',#493,10.);
#153=VECTOR('',#496,10.);
#154=VECTOR('',#505,4.);
#155=CIRCLE('',#362,2.);
#156=CIRCLE('',#363,3.);
#157=CIRCLE('',#365,3.);
#158=CIRCLE('',#368,2.5);
#159=CIRCLE('',#369,2.5);
#160=CIRCLE('',#372,3.);
#161=CIRCLE('',#374,3.);
#162=CIRCLE('',#392,3.933);
#163=CIRCLE('',#397,3.933);
#164=VERTEX_POINT('',#508);
#165=VERTEX_POINT('',#510);
#166=VERTEX_POINT('',#514);
#167=VERTEX_POINT('',#519);
#168=VERTEX_POINT('',#521);
#169=VERTEX_POINT('',#526);
#170=VERTEX_POINT('',#529);
#171=VERTEX_POINT('',#533);
#172=VERTEX_POINT('',#534);
#173=VERTEX_POINT('',#536);
#174=VERTEX_POINT('',#538);
#175=VERTEX_POINT('',#542);
#176=VERTEX_POINT('',#544);
#177=VERTEX_POINT('',#548);
#178=VERTEX_POINT('',#550);
#179=VERTEX_POINT('',#554);
#180=VERTEX_POINT('',#556);
#181=VERTEX_POINT('',#560);
#182=VERTEX_POINT('',#562);
#183=VERTEX_POINT('',#569);
#184=VERTEX_POINT('',#571);
#185=VERTEX_POINT('',#575);
#186=VERTEX_POINT('',#579);
#187=VERTEX_POINT('',#584);
#188=VERTEX_POINT('',#586);
#189=VERTEX_POINT('',#589);
#190=VERTEX_POINT('',#597);
#191=EDGE_CURVE('',#164,#164,#155,.T.);
#192=EDGE_CURVE('',#164,#165,#97,.T.);
#193=EDGE_CURVE('',#165,#165,#156,.T.);
#194=EDGE_CURVE('',#165,#166,#98,.T.);
#195=EDGE_CURVE('',#166,#166,#157,.T.);
#196=EDGE_CURVE('',#167,#167,#158,.T.);
#197=EDGE_CURVE('',#167,#168,#99,.T.);
#198=EDGE_CURVE('',#168,#168,#159,.T.);
#199=EDGE_CURVE('',#169,#169,#160,.T.);
#200=EDGE_CURVE('',#169,#170,#100,.T.);
#201=EDGE_CURVE('',#170,#170,#161,.T.);
#202=EDGE_CURVE('',#171,#172,#101,.T.);
#203=EDGE_CURVE('',#172,#173,#15,.T.);
#204=EDGE_CURVE('',#173,#174,#102,.T.);
#205=EDGE_CURVE('',#171,#174,#16,.T.);
#206=EDGE_CURVE('',#172,#175,#103,.T.);
#207=EDGE_CURVE('',#175,#176,#17,.T.);
#208=EDGE_CURVE('',#176,#173,#104,.T.);
#209=EDGE_CURVE('',#175,#177,#105,.T.);
#210=EDGE_CURVE('',#177,#178,#18,.T.);
#211=EDGE_CURVE('',#178,#176,#106,.T.);
#212=EDGE_CURVE('',#177,#179,#107,.T.);
#213=EDGE_CURVE('',#179,#180,#19,.T.);
#214=EDGE_CURVE('',#180,#178,#108,.T.);
#215=EDGE_CURVE('',#181,#180,#109,.T.);
#216=EDGE_CURVE('',#179,#182,#110,.T.);
#217=EDGE_CURVE('',#182,#181,#20,.T.);
#218=EDGE_CURVE('',#174,#181,#111,.T.);
#219=EDGE_CURVE('',#182,#171,#112,.T.);
#220=EDGE_CURVE('',#183,#181,#113,.T.);
#221=EDGE_CURVE('',#183,#184,#114,.T.);
#222=EDGE_CURVE('',#184,#180,#115,.T.);
#223=EDGE_CURVE('',#185,#174,#116,.T.);
#224=EDGE_CURVE('',#185,#183,#117,.T.);
#225=EDGE_CURVE('',#186,#173,#118,.T.);
#226=EDGE_CURVE('',#186,#185,#119,.T.);
#227=EDGE_CURVE('',#184,#187,#120,.T.);
#228=EDGE_CURVE('',#188,#186,#121,.T.);
#229=EDGE_CURVE('',#187,#188,#122,.T.);
#230=EDGE_CURVE('',#189,#189,#162,.F.);
#231=EDGE_CURVE('',#188,#176,#123,.T.);
#232=EDGE_CURVE('',#187,#178,#124,.T.);
#233=EDGE_CURVE('',#190,#190,#163,.T.);
#234=EDGE_CURVE('',#190,#189,#125,.T.);
#235=ORIENTED_EDGE('',*,*,#191,.T.);
#236=ORIENTED_EDGE('',*,*,#192,.T.);
#237=ORIENTED_EDGE('',*,*,#193,.T.);
#238=ORIENTED_EDGE('',*,*,#192,.F.);
#239=ORIENTED_EDGE('',*,*,#193,.F.);
#240=ORIENTED_EDGE('',*,*,#194,.T.);
#241=ORIENTED_EDGE('',*,*,#195,.T.);
#242=ORIENTED_EDGE('',*,*,#194,.F.);
#243=ORIENTED_EDGE('',*,*,#191,.F.);
#244=ORIENTED_EDGE('',*,*,#196,.F.);
#245=ORIENTED_EDGE('',*,*,#197,.T.);
#246=ORIENTED_EDGE('',*,*,#198,.T.);
#247=ORIENTED_EDGE('',*,*,#197,.F.);
#248=ORIENTED_EDGE('',*,*,#195,.F.);
#249=ORIENTED_EDGE('',*,*,#198,.F.);
#250=ORIENTED_EDGE('',*,*,#199,.F.);
#251=ORIENTED_EDGE('',*,*,#196,.T.);
#252=ORIENTED_EDGE('',*,*,#199,.T.);
#253=ORIENTED_EDGE('',*,*,#200,.T.);
#254=ORIENTED_EDGE('',*,*,#201,.T.);
#255=ORIENTED_EDGE('',*,*,#200,.F.);
#256=ORIENTED_EDGE('',*,*,#202,.T.);
#257=ORIENTED_EDGE('',*,*,#203,.T.);
#258=ORIENTED_EDGE('',*,*,#204,.T.);
#259=ORIENTED_EDGE('',*,*,#205,.F.);
#260=ORIENTED_EDGE('',*,*,#206,.T.);
#261=ORIENTED_EDGE('',*,*,#207,.T.);
#262=ORIENTED_EDGE('',*,*,#208,.T.);
#263=ORIENTED_EDGE('',*,*,#203,.F.);
#264=ORIENTED_EDGE('',*,*,#209,.T.);
#265=ORIENTED_EDGE('',*,*,#210,.T.);
#266=ORIENTED_EDGE('',*,*,#211,.T.);
#267=ORIENTED_EDGE('',*,*,#207,.F.);
#268=ORIENTED_EDGE('',*,*,#212,.T.);
#269=ORIENTED_EDGE('',*,*,#213,.T.);
#270=ORIENTED_EDGE('',*,*,#214,.T.);
#271=ORIENTED_EDGE('',*,*,#210,.F.);
#272=ORIENTED_EDGE('',*,*,#215,.T.);
#273=ORIENTED_EDGE('',*,*,#213,.F.);
#274=ORIENTED_EDGE('',*,*,#216,.T.);
#275=ORIENTED_EDGE('',*,*,#217,.T.);
#276=ORIENTED_EDGE('',*,*,#218,.T.);
#277=ORIENTED_EDGE('',*,*,#217,.F.);
#278=ORIENTED_EDGE('',*,*,#219,.T.);
#279=ORIENTED_EDGE('',*,*,#205,.T.);
#280=ORIENTED_EDGE('',*,*,#215,.F.);
#281=ORIENTED_EDGE('',*,*,#220,.F.);
#282=ORIENTED_EDGE('',*,*,#221,.T.);
#283=ORIENTED_EDGE('',*,*,#222,.T.);
#284=ORIENTED_EDGE('',*,*,#218,.F.);
#285=ORIENTED_EDGE('',*,*,#223,.F.);
#286=ORIENTED_EDGE('',*,*,#224,.T.);
#287=ORIENTED_EDGE('',*,*,#220,.T.);
#288=ORIENTED_EDGE('',*,*,#204,.F.);
#289=ORIENTED_EDGE('',*,*,#225,.F.);
#290=ORIENTED_EDGE('',*,*,#226,.T.);
#291=ORIENTED_EDGE('',*,*,#223,.T.);
#292=ORIENTED_EDGE('',*,*,#202,.F.);
#293=ORIENTED_EDGE('',*,*,#219,.F.);
#294=ORIENTED_EDGE('',*,*,#216,.F.);
#295=ORIENTED_EDGE('',*,*,#212,.F.);
#296=ORIENTED_EDGE('',*,*,#209,.F.);
#297=ORIENTED_EDGE('',*,*,#206,.F.);
#298=ORIENTED_EDGE('',*,*,#227,.F.);
#299=ORIENTED_EDGE('',*,*,#221,.F.);
#300=ORIENTED_EDGE('',*,*,#224,.F.);
#301=ORIENTED_EDGE('',*,*,#226,.F.);
#302=ORIENTED_EDGE('',*,*,#228,.F.);
#303=ORIENTED_EDGE('',*,*,#229,.F.);
#304=ORIENTED_EDGE('',*,*,#230,.F.);
#305=ORIENTED_EDGE('',*,*,#208,.F.);
#306=ORIENTED_EDGE('',*,*,#231,.F.);
#307=ORIENTED_EDGE('',*,*,#228,.T.);
#308=ORIENTED_EDGE('',*,*,#225,.T.);
#309=ORIENTED_EDGE('',*,*,#211,.F.);
#310=ORIENTED_EDGE('',*,*,#232,.F.);
#311=ORIENTED_EDGE('',*,*,#229,.T.);
#312=ORIENTED_EDGE('',*,*,#231,.T.);
#313=ORIENTED_EDGE('',*,*,#214,.F.);
#314=ORIENTED_EDGE('',*,*,#222,.F.);
#315=ORIENTED_EDGE('',*,*,#227,.T.);
#316=ORIENTED_EDGE('',*,*,#232,.T.);
#317=ORIENTED_EDGE('',*,*,#233,.F.);
#318=ORIENTED_EDGE('',*,*,#201,.F.);
#319=ORIENTED_EDGE('',*,*,#233,.T.);
#320=ORIENTED_EDGE('',*,*,#234,.T.);
#321=ORIENTED_EDGE('',*,*,#230,.T.);
#322=ORIENTED_EDGE('',*,*,#234,.F.);
#323=CONICAL_SURFACE('',#361,2.5,0.78539816339745);
#324=ADVANCED_FACE('',(#47),#323,.T.);
#325=ADVANCED_FACE('',(#48),#37,.T.);
#326=ADVANCED_FACE('',(#49),#25,.T.);
#327=ADVANCED_FACE('',(#50),#38,.T.);
#328=ADVANCED_FACE('',(#51,#21),#26,.F.);
#329=ADVANCED_FACE('',(#52,#22),#27,.T.);
#330=ADVANCED_FACE('',(#53),#39,.T.);
#331=ADVANCED_FACE('',(#54),#40,.T.);
#332=ADVANCED_FACE('',(#55),#41,.T.);
#333=ADVANCED_FACE('',(#56),#42,.T.);
#334=ADVANCED_FACE('',(#57),#43,.T.);
#335=ADVANCED_FACE('',(#58),#44,.T.);
#336=ADVANCED_FACE('',(#59),#45,.T.);
#337=ADVANCED_FACE('',(#60),#28,.T.);
#338=ADVANCED_FACE('',(#61),#29,.T.);
#339=ADVANCED_FACE('',(#62),#30,.T.);
#340=ADVANCED_FACE('',(#63),#31,.T.);
#341=ADVANCED_FACE('',(#64,#23),#32,.F.);
#342=ADVANCED_FACE('',(#65),#33,.T.);
#343=ADVANCED_FACE('',(#66),#34,.T.);
#344=ADVANCED_FACE('',(#67),#35,.T.);
#345=ADVANCED_FACE('',(#68,#24),#36,.T.);
#346=ADVANCED_FACE('',(#69),#46,.T.);
#347=CLOSED_SHELL('',(#324,#325,#326,#327,#328,#329,#330,#331,#332,#333,
#334,#335,#336,#337,#338,#339,#340,#341,#342,#343,#344,#345,#346));
#348=DERIVED_UNIT_ELEMENT(#350,1.);
#349=DERIVED_UNIT_ELEMENT(#606,-3.);
#350=(
MASS_UNIT()
NAMED_UNIT(*)
SI_UNIT(.KILO.,.GRAM.)
);
#351=DERIVED_UNIT((#348,#349));
#352=MEASURE_REPRESENTATION_ITEM('density measure',
POSITIVE_RATIO_MEASURE(7850.),#351);
#353=PROPERTY_DEFINITION_REPRESENTATION(#358,#355);
#354=PROPERTY_DEFINITION_REPRESENTATION(#359,#356);
#355=REPRESENTATION('material name',(#357),#603);
#356=REPRESENTATION('density',(#352),#603);
#357=DESCRIPTIVE_REPRESENTATION_ITEM('Ocel','Ocel');
#358=PROPERTY_DEFINITION('material property','material name',#613);
#359=PROPERTY_DEFINITION('material property','density of part',#613);
#360=AXIS2_PLACEMENT_3D('',#506,#399,#400);
#361=AXIS2_PLACEMENT_3D('',#507,#401,#402);
#362=AXIS2_PLACEMENT_3D('',#509,#403,#404);
#363=AXIS2_PLACEMENT_3D('',#512,#406,#407);
#364=AXIS2_PLACEMENT_3D('',#513,#408,#409);
#365=AXIS2_PLACEMENT_3D('',#516,#411,#412);
#366=AXIS2_PLACEMENT_3D('',#517,#413,#414);
#367=AXIS2_PLACEMENT_3D('',#518,#415,#416);
#368=AXIS2_PLACEMENT_3D('',#520,#417,#418);
#369=AXIS2_PLACEMENT_3D('',#523,#420,#421);
#370=AXIS2_PLACEMENT_3D('',#524,#422,#423);
#371=AXIS2_PLACEMENT_3D('',#525,#424,#425);
#372=AXIS2_PLACEMENT_3D('',#527,#426,#427);
#373=AXIS2_PLACEMENT_3D('',#528,#428,#429);
#374=AXIS2_PLACEMENT_3D('',#531,#431,#432);
#375=AXIS2_PLACEMENT_3D('',#532,#433,#434);
#376=AXIS2_PLACEMENT_3D('',#537,#436,#437);
#377=AXIS2_PLACEMENT_3D('',#540,#439,#440);
#378=AXIS2_PLACEMENT_3D('',#541,#441,#442);
#379=AXIS2_PLACEMENT_3D('',#545,#444,#445);
#380=AXIS2_PLACEMENT_3D('',#547,#447,#448);
#381=AXIS2_PLACEMENT_3D('',#551,#450,#451);
#382=AXIS2_PLACEMENT_3D('',#553,#453,#454);
#383=AXIS2_PLACEMENT_3D('',#557,#456,#457);
#384=AXIS2_PLACEMENT_3D('',#559,#459,#460);
#385=AXIS2_PLACEMENT_3D('',#564,#463,#464);
#386=AXIS2_PLACEMENT_3D('',#565,#465,#466);
#387=AXIS2_PLACEMENT_3D('',#568,#469,#470);
#388=AXIS2_PLACEMENT_3D('',#574,#474,#475);
#389=AXIS2_PLACEMENT_3D('',#578,#478,#479);
#390=AXIS2_PLACEMENT_3D('',#582,#482,#483);
#391=AXIS2_PLACEMENT_3D('',#583,#484,#485);
#392=AXIS2_PLACEMENT_3D('',#590,#489,#490);
#393=AXIS2_PLACEMENT_3D('',#591,#491,#492);
#394=AXIS2_PLACEMENT_3D('',#593,#494,#495);
#395=AXIS2_PLACEMENT_3D('',#595,#497,#498);
#396=AXIS2_PLACEMENT_3D('',#596,#499,#500);
#397=AXIS2_PLACEMENT_3D('',#598,#501,#502);
#398=AXIS2_PLACEMENT_3D('',#599,#503,#504);
#399=DIRECTION('axis',(0.,0.,1.));
#400=DIRECTION('refdir',(1.,0.,0.));
#401=DIRECTION('center_axis',(0.,0.,-1.));
#402=DIRECTION('ref_axis',(-1.,0.,0.));
#403=DIRECTION('center_axis',(0.,0.,-1.));
#404=DIRECTION('ref_axis',(-1.,0.,0.));
#405=DIRECTION('',(0.707106781186549,8.65956056235495E-17,-0.707106781186546));
#406=DIRECTION('center_axis',(0.,0.,1.));
#407=DIRECTION('ref_axis',(-1.,0.,0.));
#408=DIRECTION('center_axis',(0.,0.,-1.));
#409=DIRECTION('ref_axis',(-1.,0.,0.));
#410=DIRECTION('',(0.,0.,-1.));
#411=DIRECTION('center_axis',(0.,0.,1.));
#412=DIRECTION('ref_axis',(-1.,0.,0.));
#413=DIRECTION('center_axis',(0.,0.,1.));
#414=DIRECTION('ref_axis',(1.,0.,0.));
#415=DIRECTION('center_axis',(0.,0.,1.));
#416=DIRECTION('ref_axis',(1.,0.,0.));
#417=DIRECTION('center_axis',(0.,0.,-1.));
#418=DIRECTION('ref_axis',(1.,0.,0.));
#419=DIRECTION('',(0.,0.,1.));
#420=DIRECTION('center_axis',(0.,0.,-1.));
#421=DIRECTION('ref_axis',(1.,0.,0.));
#422=DIRECTION('center_axis',(0.,0.,1.));
#423=DIRECTION('ref_axis',(1.,0.,0.));
#424=DIRECTION('center_axis',(0.,0.,1.));
#425=DIRECTION('ref_axis',(1.,0.,0.));
#426=DIRECTION('center_axis',(0.,0.,-1.));
#427=DIRECTION('ref_axis',(-1.,0.,0.));
#428=DIRECTION('center_axis',(0.,0.,-1.));
#429=DIRECTION('ref_axis',(-1.,0.,0.));
#430=DIRECTION('',(0.,0.,-1.));
#431=DIRECTION('center_axis',(0.,0.,1.));
#432=DIRECTION('ref_axis',(-1.,0.,0.));
#433=DIRECTION('center_axis',(1.,-1.4792020664489E-16,0.));
#434=DIRECTION('ref_axis',(3.92523114670944E-16,0.707106781186548,-0.707106781186547));
#435=DIRECTION('',(-1.,1.4792020664489E-16,0.));
#436=DIRECTION('center_axis',(0.866025403784439,0.5,0.));
#437=DIRECTION('ref_axis',(-0.5,0.866025403784439,0.));
#438=DIRECTION('',(1.,-1.4792020664489E-16,0.));
#439=DIRECTION('center_axis',(0.866025403784439,-0.499999999999999,0.));
#440=DIRECTION('ref_axis',(0.499999999999999,0.866025403784439,0.));
#441=DIRECTION('center_axis',(0.5,0.866025403784439,0.));
#442=DIRECTION('ref_axis',(-0.612372435695795,0.353553390593274,-0.707106781186547));
#443=DIRECTION('',(-0.5,-0.866025403784439,0.));
#444=DIRECTION('center_axis',(-8.32556590967802E-16,1.,-4.16333634234435E-16));
#445=DIRECTION('ref_axis',(-1.,-8.32556590967802E-16,-7.21111007393837E-16));
#446=DIRECTION('',(0.5,0.866025403784439,0.));
#447=DIRECTION('center_axis',(-0.5,0.866025403784439,0.));
#448=DIRECTION('ref_axis',(-0.612372435695795,-0.353553390593274,-0.707106781186547));
#449=DIRECTION('',(0.5,-0.866025403784439,0.));
#450=DIRECTION('center_axis',(-0.866025403784438,0.500000000000001,4.80740671595891E-16));
#451=DIRECTION('ref_axis',(-0.500000000000001,-0.866025403784438,8.32667268468869E-16));
#452=DIRECTION('',(-0.5,0.866025403784439,0.));
#453=DIRECTION('center_axis',(-1.,0.,0.));
#454=DIRECTION('ref_axis',(0.,-0.707106781186548,-0.707106781186548));
#455=DIRECTION('',(1.,0.,0.));
#456=DIRECTION('center_axis',(-0.866025403784439,-0.5,0.));
#457=DIRECTION('ref_axis',(0.5,-0.866025403784439,0.));
#458=DIRECTION('',(-1.,0.,0.));
#459=DIRECTION('center_axis',(-0.5,-0.866025403784439,0.));
#460=DIRECTION('ref_axis',(0.612372435695795,-0.353553390593274,-0.707106781186547));
#461=DIRECTION('',(-0.5,-0.866025403784439,0.));
#462=DIRECTION('',(0.5,0.866025403784439,0.));
#463=DIRECTION('center_axis',(-5.49632088882432E-16,-1.,4.16333634234434E-16));
#464=DIRECTION('ref_axis',(1.,-5.49632088882431E-16,7.21111007393838E-16));
#465=DIRECTION('center_axis',(0.5,-0.866025403784439,0.));
#466=DIRECTION('ref_axis',(0.612372435695795,0.353553390593274,-0.707106781186547));
#467=DIRECTION('',(0.5,-0.866025403784439,0.));
#468=DIRECTION('',(-0.5,0.866025403784439,0.));
#469=DIRECTION('center_axis',(0.866025403784439,-0.5,0.));
#470=DIRECTION('ref_axis',(-0.5,-0.866025403784439,0.));
#471=DIRECTION('',(0.,0.,-1.));
#472=DIRECTION('',(-0.5,-0.866025403784439,0.));
#473=DIRECTION('',(0.,0.,-1.));
#474=DIRECTION('center_axis',(0.866025403784439,0.5,0.));
#475=DIRECTION('ref_axis',(0.5,-0.866025403784439,0.));
#476=DIRECTION('',(0.,0.,-1.));
#477=DIRECTION('',(0.5,-0.866025403784439,0.));
#478=DIRECTION('center_axis',(1.4792020664489E-16,1.,0.));
#479=DIRECTION('ref_axis',(1.,-1.4792020664489E-16,0.));
#480=DIRECTION('',(0.,0.,-1.));
#481=DIRECTION('',(1.,-1.4792020664489E-16,0.));
#482=DIRECTION('center_axis',(0.,0.,-1.));
#483=DIRECTION('ref_axis',(-1.,0.,0.));
#484=DIRECTION('center_axis',(0.,0.,-1.));
#485=DIRECTION('ref_axis',(1.,0.,0.));
#486=DIRECTION('',(-1.,0.,0.));
#487=DIRECTION('',(0.5,0.866025403784439,0.));
#488=DIRECTION('',(-0.5,0.866025403784439,0.));
#489=DIRECTION('center_axis',(0.,0.,-1.));
#490=DIRECTION('ref_axis',(1.,0.,0.));
#491=DIRECTION('center_axis',(-0.866025403784439,0.5,0.));
#492=DIRECTION('ref_axis',(0.5,0.866025403784439,0.));
#493=DIRECTION('',(0.,0.,-1.));
#494=DIRECTION('center_axis',(-0.866025403784439,-0.5,0.));
#495=DIRECTION('ref_axis',(-0.5,0.866025403784439,0.));
#496=DIRECTION('',(0.,0.,-1.));
#497=DIRECTION('center_axis',(0.,-1.,0.));
#498=DIRECTION('ref_axis',(-1.,0.,0.));
#499=DIRECTION('center_axis',(0.,0.,1.));
#500=DIRECTION('ref_axis',(-1.,0.,0.));
#501=DIRECTION('center_axis',(0.,0.,-1.));
#502=DIRECTION('ref_axis',(1.,0.,0.));
#503=DIRECTION('center_axis',(0.,0.,1.));
#504=DIRECTION('ref_axis',(1.,0.,0.));
#505=DIRECTION('',(0.,0.,-1.));
#506=CARTESIAN_POINT('',(0.,0.,0.));
#507=CARTESIAN_POINT('Origin',(0.,0.,115.5));
#508=CARTESIAN_POINT('',(2.,-2.44929359829471E-16,116.));
#509=CARTESIAN_POINT('Origin',(0.,0.,116.));
#510=CARTESIAN_POINT('',(3.,3.67394039744206E-16,115.));
#511=CARTESIAN_POINT('',(2.5,3.06161699786838E-16,115.5));
#512=CARTESIAN_POINT('Origin',(0.,0.,115.));
#513=CARTESIAN_POINT('Origin',(0.,0.,116.));
#514=CARTESIAN_POINT('',(3.,-3.67394039744206E-16,112.9));
#515=CARTESIAN_POINT('',(3.,-3.67394039744206E-16,116.));
#516=CARTESIAN_POINT('Origin',(0.,0.,112.9));
#517=CARTESIAN_POINT('Origin',(0.,0.,116.));
#518=CARTESIAN_POINT('Origin',(0.,0.,112.1));
#519=CARTESIAN_POINT('',(-2.5,-3.06161699786838E-16,112.1));
#520=CARTESIAN_POINT('Origin',(0.,0.,112.1));
#521=CARTESIAN_POINT('',(-2.5,-3.06161699786838E-16,112.9));
#522=CARTESIAN_POINT('',(-2.5,-3.06161699786838E-16,112.1));
#523=CARTESIAN_POINT('Origin',(0.,0.,112.9));
#524=CARTESIAN_POINT('Origin',(0.,0.,112.9));
#525=CARTESIAN_POINT('Origin',(0.,0.,112.1));
#526=CARTESIAN_POINT('',(3.,-3.67394039744206E-16,112.1));
#527=CARTESIAN_POINT('Origin',(0.,0.,112.1));
#528=CARTESIAN_POINT('Origin',(0.,0.,116.));
#529=CARTESIAN_POINT('',(3.,3.67394039744206E-16,100.));
#530=CARTESIAN_POINT('',(3.,-3.67394039744206E-16,116.));
#531=CARTESIAN_POINT('Origin',(0.,0.,100.));
#532=CARTESIAN_POINT('Origin',(-1.87638837486628,5.5,-4.5));
#533=CARTESIAN_POINT('',(3.17542648054294,5.5,-5.5));
#534=CARTESIAN_POINT('',(-3.17542648054294,5.5,-5.5));
#535=CARTESIAN_POINT('',(-1.87638837486628,5.5,-5.5));
#536=CARTESIAN_POINT('',(-3.75277674973257,6.5,-4.5));
#537=CARTESIAN_POINT('Origin',(-3.17542648054294,5.5,-4.5));
#538=CARTESIAN_POINT('',(3.75277674973257,6.5,-4.5));
#539=CARTESIAN_POINT('',(-1.87638837486628,6.5,-4.5));
#540=CARTESIAN_POINT('Origin',(3.17542648054294,5.5,-4.5));
#541=CARTESIAN_POINT('Origin',(-5.70133390824755,1.125,-4.5));
#542=CARTESIAN_POINT('',(-6.35085296108588,1.66533453693773E-15,-5.5));
#543=CARTESIAN_POINT('',(-5.70133390824755,1.125,-5.5));
#544=CARTESIAN_POINT('',(-7.50555349946513,1.12031462735045E-15,-4.5));
#545=CARTESIAN_POINT('Origin',(-6.35085296108588,2.08166817117217E-15,-4.5));
#546=CARTESIAN_POINT('',(-6.56735931203199,1.625,-4.5));
#547=CARTESIAN_POINT('Origin',(-3.82494553338127,-4.375,-4.5));
#548=CARTESIAN_POINT('',(-3.17542648054294,-5.5,-5.5));
#549=CARTESIAN_POINT('',(-3.82494553338127,-4.375,-5.5));
#550=CARTESIAN_POINT('',(-3.75277674973257,-6.5,-4.5));
#551=CARTESIAN_POINT('Origin',(-3.17542648054294,-5.5,-4.5));
#552=CARTESIAN_POINT('',(-4.69097093716571,-4.875,-4.5));
#553=CARTESIAN_POINT('Origin',(1.87638837486629,-5.5,-4.5));
#554=CARTESIAN_POINT('',(3.17542648054294,-5.5,-5.5));
#555=CARTESIAN_POINT('',(1.87638837486629,-5.5,-5.5));
#556=CARTESIAN_POINT('',(3.75277674973257,-6.5,-4.5));
#557=CARTESIAN_POINT('Origin',(3.17542648054295,-5.5,-4.5));
#558=CARTESIAN_POINT('',(1.87638837486629,-6.5,-4.5));
#559=CARTESIAN_POINT('Origin',(5.70133390824756,-1.125,-4.5));
#560=CARTESIAN_POINT('',(7.50555349946514,2.00211921454169E-15,-4.5));
#561=CARTESIAN_POINT('',(6.56735931203199,-1.625,-4.5));
#562=CARTESIAN_POINT('',(6.35085296108589,2.22044604925031E-15,-5.5));
#563=CARTESIAN_POINT('',(5.70133390824756,-1.125,-5.5));
#564=CARTESIAN_POINT('Origin',(6.35085296108589,2.63677968348475E-15,-4.5));
#565=CARTESIAN_POINT('Origin',(3.82494553338127,4.375,-4.5));
#566=CARTESIAN_POINT('',(4.69097093716571,4.875,-4.5));
#567=CARTESIAN_POINT('',(3.82494553338127,4.375,-5.5));
#568=CARTESIAN_POINT('Origin',(7.50555349946514,2.00211921454169E-15,0.));
#569=CARTESIAN_POINT('',(7.50555349946514,2.00211921454169E-15,0.));
#570=CARTESIAN_POINT('',(7.50555349946514,2.00211921454169E-15,0.));
#571=CARTESIAN_POINT('',(3.75277674973257,-6.5,0.));
#572=CARTESIAN_POINT('',(7.50555349946514,2.00211921454169E-15,0.));
#573=CARTESIAN_POINT('',(3.75277674973257,-6.5,0.));
#574=CARTESIAN_POINT('Origin',(3.75277674973257,6.5,0.));
#575=CARTESIAN_POINT('',(3.75277674973257,6.5,0.));
#576=CARTESIAN_POINT('',(3.75277674973257,6.5,0.));
#577=CARTESIAN_POINT('',(3.75277674973257,6.5,0.));
#578=CARTESIAN_POINT('Origin',(-3.75277674973257,6.5,0.));
#579=CARTESIAN_POINT('',(-3.75277674973257,6.5,0.));
#580=CARTESIAN_POINT('',(-3.75277674973257,6.5,0.));
#581=CARTESIAN_POINT('',(-3.75277674973257,6.5,0.));
#582=CARTESIAN_POINT('Origin',(1.11022302462516E-15,1.11022302462516E-15,
-5.5));
#583=CARTESIAN_POINT('Origin',(1.11022302462516E-15,1.11022302462516E-15,
0.));
#584=CARTESIAN_POINT('',(-3.75277674973257,-6.5,0.));
#585=CARTESIAN_POINT('',(3.75277674973257,-6.5,0.));
#586=CARTESIAN_POINT('',(-7.50555349946513,1.12031462735045E-15,0.));
#587=CARTESIAN_POINT('',(-7.50555349946513,1.12031462735045E-15,0.));
#588=CARTESIAN_POINT('',(-3.75277674973257,-6.5,0.));
#589=CARTESIAN_POINT('',(-3.933,4.81653586104654E-16,0.));
#590=CARTESIAN_POINT('Origin',(0.,0.,0.));
#591=CARTESIAN_POINT('Origin',(-7.50555349946513,1.12031462735045E-15,0.));
#592=CARTESIAN_POINT('',(-7.50555349946513,1.12031462735045E-15,0.));
#593=CARTESIAN_POINT('Origin',(-3.75277674973257,-6.5,0.));
#594=CARTESIAN_POINT('',(-3.75277674973257,-6.5,0.));
#595=CARTESIAN_POINT('Origin',(3.75277674973257,-6.5,0.));
#596=CARTESIAN_POINT('Origin',(0.,0.,100.));
#597=CARTESIAN_POINT('',(-3.933,4.81653586104654E-16,100.));
#598=CARTESIAN_POINT('Origin',(0.,0.,100.));
#599=CARTESIAN_POINT('Origin',(0.,0.,0.));
#600=CARTESIAN_POINT('',(-3.933,-4.81653586104654E-16,0.));
#601=UNCERTAINTY_MEASURE_WITH_UNIT(LENGTH_MEASURE(0.01),#605,
'DISTANCE_ACCURACY_VALUE',
'Maximum model space distance between geometric entities at asserted c
onnectivities');
#602=UNCERTAINTY_MEASURE_WITH_UNIT(LENGTH_MEASURE(0.01),#605,
'DISTANCE_ACCURACY_VALUE',
'Maximum model space distance between geometric entities at asserted c
onnectivities');
#603=(
GEOMETRIC_REPRESENTATION_CONTEXT(3)
GLOBAL_UNCERTAINTY_ASSIGNED_CONTEXT((#601))
GLOBAL_UNIT_ASSIGNED_CONTEXT((#605,#607,#608))
REPRESENTATION_CONTEXT('','3D')
);
#604=(
GEOMETRIC_REPRESENTATION_CONTEXT(3)
GLOBAL_UNCERTAINTY_ASSIGNED_CONTEXT((#602))
GLOBAL_UNIT_ASSIGNED_CONTEXT((#605,#607,#608))
REPRESENTATION_CONTEXT('','3D')
);
#605=(
LENGTH_UNIT()
NAMED_UNIT(*)
SI_UNIT(.MILLI.,.METRE.)
);
#606=(
LENGTH_UNIT()
NAMED_UNIT(*)
SI_UNIT($,.METRE.)
);
#607=(
NAMED_UNIT(*)
PLANE_ANGLE_UNIT()
SI_UNIT($,.RADIAN.)
);
#608=(
NAMED_UNIT(*)
SI_UNIT($,.STERADIAN.)
SOLID_ANGLE_UNIT()
);
#609=SHAPE_DEFINITION_REPRESENTATION(#610,#611);
#610=PRODUCT_DEFINITION_SHAPE('',$,#613);
#611=SHAPE_REPRESENTATION('',(#360),#603);
#612=PRODUCT_DEFINITION_CONTEXT('part definition',#617,'design');
#613=PRODUCT_DEFINITION('2026-02-12-01-54-09-169','nap\X\EDnac\X\ED \X2\0161\X0\r
oub',#614,#612);
#614=PRODUCT_DEFINITION_FORMATION('',$,#619);
#615=PRODUCT_RELATED_PRODUCT_CATEGORY('nap\X\EDnac\X\ED \X2\0161\X0\ro
ub','nap\X\EDnac\X\ED \X2\0161\X0\roub',(#619));
#616=APPLICATION_PROTOCOL_DEFINITION('international standard',
'automotive_design',2009,#617);
#617=APPLICATION_CONTEXT(
'Core Data for Automotive Mechanical Design Process');
#618=PRODUCT_CONTEXT('part definition',#617,'mechanical');
#619=PRODUCT('2026-02-12-01-54-09-169','nap\X\EDnac\X\ED \X2\0161\X0\r
oub',$,(#618));
#620=PRESENTATION_STYLE_ASSIGNMENT((#621));
#621=SURFACE_STYLE_USAGE(.BOTH.,#622);
#622=SURFACE_SIDE_STYLE('',(#623));
#623=SURFACE_STYLE_FILL_AREA(#624);
#624=FILL_AREA_STYLE('Ocel \X2\2013\X0\ sat\X\E9n',(#625));
#625=FILL_AREA_STYLE_COLOUR('Ocel \X2\2013\X0\ sat\X\E9n',#626);
#626=COLOUR_RGB('Ocel \X2\2013\X0\ sat\X\E9n',0.627450980392157,0.627450980392157,
0.627450980392157);
ENDSEC;
END-ISO-10303-21;
