ISO-10303-21;
HEADER;
/* Generated by software containing ST-Developer
 * from STEP Tools, Inc. (www.steptools.com) 
 */

FILE_DESCRIPTION(
/* description */ (''),
/* implementation_level */ '2;1');

FILE_NAME(
/* name */ '',
/* time_stamp */ '2026-04-07T02:00:45+02:00',
/* author */ (''),
/* organization */ (''),
/* preprocessor_version */ 'ST-DEVELOPER v20.1',
/* originating_system */ 'Autodesk Translation Framework v14.24.0.0',
/* authorisation */ '');

FILE_SCHEMA (('AUTOMOTIVE_DESIGN { 1 0 10303 214 3 1 1 }'));
ENDSEC;

DATA;
#10=MECHANICAL_DESIGN_GEOMETRIC_PRESENTATION_REPRESENTATION('',(#13),#878);
#11=SHAPE_REPRESENTATION_RELATIONSHIP('SRR','None',#885,#12);
#12=ADVANCED_BREP_SHAPE_REPRESENTATION('',(#14),#877);
#13=STYLED_ITEM('',(#894),#14);
#14=MANIFOLD_SOLID_BREP('T\X2\011B\X0\leso1',#526);
#15=FACE_BOUND('',#99,.T.);
#16=FACE_BOUND('',#100,.T.);
#17=FACE_BOUND('',#101,.T.);
#18=FACE_BOUND('',#102,.T.);
#19=FACE_BOUND('',#103,.T.);
#20=FACE_BOUND('',#104,.T.);
#21=FACE_BOUND('',#105,.T.);
#22=FACE_BOUND('',#106,.T.);
#23=FACE_BOUND('',#107,.T.);
#24=FACE_BOUND('',#108,.T.);
#25=FACE_BOUND('',#109,.T.);
#26=FACE_BOUND('',#111,.T.);
#27=FACE_BOUND('',#112,.T.);
#28=FACE_BOUND('',#113,.T.);
#29=FACE_BOUND('',#114,.T.);
#30=FACE_BOUND('',#115,.T.);
#31=FACE_BOUND('',#116,.T.);
#32=FACE_BOUND('',#117,.T.);
#33=FACE_BOUND('',#118,.T.);
#34=FACE_BOUND('',#119,.T.);
#35=FACE_BOUND('',#120,.T.);
#36=FACE_BOUND('',#121,.T.);
#37=PLANE('',#552);
#38=PLANE('',#553);
#39=PLANE('',#554);
#40=PLANE('',#555);
#41=PLANE('',#556);
#42=PLANE('',#557);
#43=PLANE('',#558);
#44=PLANE('',#559);
#45=PLANE('',#575);
#46=PLANE('',#579);
#47=PLANE('',#583);
#48=PLANE('',#587);
#49=PLANE('',#588);
#50=FACE_OUTER_BOUND('',#75,.T.);
#51=FACE_OUTER_BOUND('',#76,.T.);
#52=FACE_OUTER_BOUND('',#77,.T.);
#53=FACE_OUTER_BOUND('',#78,.T.);
#54=FACE_OUTER_BOUND('',#79,.T.);
#55=FACE_OUTER_BOUND('',#80,.T.);
#56=FACE_OUTER_BOUND('',#81,.T.);
#57=FACE_OUTER_BOUND('',#82,.T.);
#58=FACE_OUTER_BOUND('',#83,.T.);
#59=FACE_OUTER_BOUND('',#84,.T.);
#60=FACE_OUTER_BOUND('',#85,.T.);
#61=FACE_OUTER_BOUND('',#86,.T.);
#62=FACE_OUTER_BOUND('',#87,.T.);
#63=FACE_OUTER_BOUND('',#88,.T.);
#64=FACE_OUTER_BOUND('',#89,.T.);
#65=FACE_OUTER_BOUND('',#90,.T.);
#66=FACE_OUTER_BOUND('',#91,.T.);
#67=FACE_OUTER_BOUND('',#92,.T.);
#68=FACE_OUTER_BOUND('',#93,.T.);
#69=FACE_OUTER_BOUND('',#94,.T.);
#70=FACE_OUTER_BOUND('',#95,.T.);
#71=FACE_OUTER_BOUND('',#96,.T.);
#72=FACE_OUTER_BOUND('',#97,.T.);
#73=FACE_OUTER_BOUND('',#98,.T.);
#74=FACE_OUTER_BOUND('',#110,.T.);
#75=EDGE_LOOP('',(#351,#352,#353,#354));
#76=EDGE_LOOP('',(#355,#356,#357,#358));
#77=EDGE_LOOP('',(#359,#360,#361,#362));
#78=EDGE_LOOP('',(#363,#364,#365,#366));
#79=EDGE_LOOP('',(#367,#368,#369,#370));
#80=EDGE_LOOP('',(#371,#372,#373,#374));
#81=EDGE_LOOP('',(#375,#376,#377,#378));
#82=EDGE_LOOP('',(#379,#380,#381,#382));
#83=EDGE_LOOP('',(#383,#384,#385,#386));
#84=EDGE_LOOP('',(#387,#388,#389,#390));
#85=EDGE_LOOP('',(#391,#392,#393,#394));
#86=EDGE_LOOP('',(#395,#396,#397,#398));
#87=EDGE_LOOP('',(#399,#400,#401,#402));
#88=EDGE_LOOP('',(#403,#404,#405,#406));
#89=EDGE_LOOP('',(#407,#408,#409,#410));
#90=EDGE_LOOP('',(#411,#412,#413,#414));
#91=EDGE_LOOP('',(#415,#416,#417,#418));
#92=EDGE_LOOP('',(#419,#420,#421,#422));
#93=EDGE_LOOP('',(#423,#424,#425,#426));
#94=EDGE_LOOP('',(#427,#428,#429,#430));
#95=EDGE_LOOP('',(#431,#432,#433,#434));
#96=EDGE_LOOP('',(#435,#436,#437,#438));
#97=EDGE_LOOP('',(#439,#440,#441,#442));
#98=EDGE_LOOP('',(#443,#444,#445,#446,#447,#448));
#99=EDGE_LOOP('',(#449));
#100=EDGE_LOOP('',(#450));
#101=EDGE_LOOP('',(#451));
#102=EDGE_LOOP('',(#452));
#103=EDGE_LOOP('',(#453,#454,#455,#456));
#104=EDGE_LOOP('',(#457,#458,#459,#460));
#105=EDGE_LOOP('',(#461));
#106=EDGE_LOOP('',(#462));
#107=EDGE_LOOP('',(#463));
#108=EDGE_LOOP('',(#464));
#109=EDGE_LOOP('',(#465));
#110=EDGE_LOOP('',(#466,#467,#468,#469,#470,#471));
#111=EDGE_LOOP('',(#472));
#112=EDGE_LOOP('',(#473));
#113=EDGE_LOOP('',(#474));
#114=EDGE_LOOP('',(#475));
#115=EDGE_LOOP('',(#476,#477,#478,#479));
#116=EDGE_LOOP('',(#480,#481,#482,#483));
#117=EDGE_LOOP('',(#484));
#118=EDGE_LOOP('',(#485));
#119=EDGE_LOOP('',(#486));
#120=EDGE_LOOP('',(#487));
#121=EDGE_LOOP('',(#488));
#122=LINE('',#739,#167);
#123=LINE('',#745,#168);
#124=LINE('',#751,#169);
#125=LINE('',#757,#170);
#126=LINE('',#762,#171);
#127=LINE('',#764,#172);
#128=LINE('',#766,#173);
#129=LINE('',#767,#174);
#130=LINE('',#770,#175);
#131=LINE('',#772,#176);
#132=LINE('',#773,#177);
#133=LINE('',#776,#178);
#134=LINE('',#778,#179);
#135=LINE('',#779,#180);
#136=LINE('',#781,#181);
#137=LINE('',#782,#182);
#138=LINE('',#786,#183);
#139=LINE('',#788,#184);
#140=LINE('',#790,#185);
#141=LINE('',#791,#186);
#142=LINE('',#794,#187);
#143=LINE('',#796,#188);
#144=LINE('',#797,#189);
#145=LINE('',#800,#190);
#146=LINE('',#802,#191);
#147=LINE('',#803,#192);
#148=LINE('',#805,#193);
#149=LINE('',#806,#194);
#150=LINE('',#811,#195);
#151=LINE('',#817,#196);
#152=LINE('',#823,#197);
#153=LINE('',#829,#198);
#154=LINE('',#835,#199);
#155=LINE('',#840,#200);
#156=LINE('',#842,#201);
#157=LINE('',#844,#202);
#158=LINE('',#845,#203);
#159=LINE('',#851,#204);
#160=LINE('',#854,#205);
#161=LINE('',#856,#206);
#162=LINE('',#857,#207);
#163=LINE('',#863,#208);
#164=LINE('',#866,#209);
#165=LINE('',#868,#210);
#166=LINE('',#869,#211);
#167=VECTOR('',#595,2.25);
#168=VECTOR('',#602,2.25);
#169=VECTOR('',#609,18.5);
#170=VECTOR('',#616,10.);
#171=VECTOR('',#621,10.);
#172=VECTOR('',#622,10.);
#173=VECTOR('',#623,10.);
#174=VECTOR('',#624,10.);
#175=VECTOR('',#627,10.);
#176=VECTOR('',#628,10.);
#177=VECTOR('',#629,10.);
#178=VECTOR('',#632,10.);
#179=VECTOR('',#633,10.);
#180=VECTOR('',#634,10.);
#181=VECTOR('',#637,10.);
#182=VECTOR('',#638,10.);
#183=VECTOR('',#641,10.);
#184=VECTOR('',#642,10.);
#185=VECTOR('',#643,10.);
#186=VECTOR('',#644,10.);
#187=VECTOR('',#647,10.);
#188=VECTOR('',#648,10.);
#189=VECTOR('',#649,10.);
#190=VECTOR('',#652,10.);
#191=VECTOR('',#653,10.);
#192=VECTOR('',#654,10.);
#193=VECTOR('',#657,10.);
#194=VECTOR('',#658,10.);
#195=VECTOR('',#663,4.5);
#196=VECTOR('',#670,4.5);
#197=VECTOR('',#677,4.5);
#198=VECTOR('',#684,4.5);
#199=VECTOR('',#691,4.5);
#200=VECTOR('',#696,10.);
#201=VECTOR('',#697,10.);
#202=VECTOR('',#698,10.);
#203=VECTOR('',#699,10.);
#204=VECTOR('',#706,10.);
#205=VECTOR('',#709,10.);
#206=VECTOR('',#710,10.);
#207=VECTOR('',#711,10.);
#208=VECTOR('',#718,10.);
#209=VECTOR('',#721,10.);
#210=VECTOR('',#722,10.);
#211=VECTOR('',#723,10.);
#212=CIRCLE('',#541,2.25);
#213=CIRCLE('',#542,2.25);
#214=CIRCLE('',#544,2.25);
#215=CIRCLE('',#545,2.25);
#216=CIRCLE('',#547,18.5);
#217=CIRCLE('',#548,18.5);
#218=CIRCLE('',#550,10.);
#219=CIRCLE('',#551,10.);
#220=CIRCLE('',#561,4.5);
#221=CIRCLE('',#562,4.5);
#222=CIRCLE('',#564,4.5);
#223=CIRCLE('',#565,4.5);
#224=CIRCLE('',#567,4.5);
#225=CIRCLE('',#568,4.5);
#226=CIRCLE('',#570,4.5);
#227=CIRCLE('',#571,4.5);
#228=CIRCLE('',#573,4.5);
#229=CIRCLE('',#574,4.5);
#230=CIRCLE('',#577,25.0000000000001);
#231=CIRCLE('',#578,25.0000000000001);
#232=CIRCLE('',#581,25.);
#233=CIRCLE('',#582,25.);
#234=CIRCLE('',#585,25.);
#235=CIRCLE('',#586,25.);
#236=VERTEX_POINT('',#736);
#237=VERTEX_POINT('',#738);
#238=VERTEX_POINT('',#742);
#239=VERTEX_POINT('',#744);
#240=VERTEX_POINT('',#748);
#241=VERTEX_POINT('',#750);
#242=VERTEX_POINT('',#754);
#243=VERTEX_POINT('',#756);
#244=VERTEX_POINT('',#760);
#245=VERTEX_POINT('',#761);
#246=VERTEX_POINT('',#763);
#247=VERTEX_POINT('',#765);
#248=VERTEX_POINT('',#769);
#249=VERTEX_POINT('',#771);
#250=VERTEX_POINT('',#775);
#251=VERTEX_POINT('',#777);
#252=VERTEX_POINT('',#784);
#253=VERTEX_POINT('',#785);
#254=VERTEX_POINT('',#787);
#255=VERTEX_POINT('',#789);
#256=VERTEX_POINT('',#793);
#257=VERTEX_POINT('',#795);
#258=VERTEX_POINT('',#799);
#259=VERTEX_POINT('',#801);
#260=VERTEX_POINT('',#808);
#261=VERTEX_POINT('',#810);
#262=VERTEX_POINT('',#814);
#263=VERTEX_POINT('',#816);
#264=VERTEX_POINT('',#820);
#265=VERTEX_POINT('',#822);
#266=VERTEX_POINT('',#826);
#267=VERTEX_POINT('',#828);
#268=VERTEX_POINT('',#832);
#269=VERTEX_POINT('',#834);
#270=VERTEX_POINT('',#838);
#271=VERTEX_POINT('',#839);
#272=VERTEX_POINT('',#841);
#273=VERTEX_POINT('',#843);
#274=VERTEX_POINT('',#847);
#275=VERTEX_POINT('',#849);
#276=VERTEX_POINT('',#853);
#277=VERTEX_POINT('',#855);
#278=VERTEX_POINT('',#859);
#279=VERTEX_POINT('',#861);
#280=VERTEX_POINT('',#865);
#281=VERTEX_POINT('',#867);
#282=EDGE_CURVE('',#236,#236,#212,.T.);
#283=EDGE_CURVE('',#236,#237,#122,.T.);
#284=EDGE_CURVE('',#237,#237,#213,.T.);
#285=EDGE_CURVE('',#238,#238,#214,.T.);
#286=EDGE_CURVE('',#238,#239,#123,.T.);
#287=EDGE_CURVE('',#239,#239,#215,.T.);
#288=EDGE_CURVE('',#240,#240,#216,.T.);
#289=EDGE_CURVE('',#240,#241,#124,.T.);
#290=EDGE_CURVE('',#241,#241,#217,.T.);
#291=EDGE_CURVE('',#242,#242,#218,.T.);
#292=EDGE_CURVE('',#242,#243,#125,.T.);
#293=EDGE_CURVE('',#243,#243,#219,.T.);
#294=EDGE_CURVE('',#244,#245,#126,.T.);
#295=EDGE_CURVE('',#246,#244,#127,.T.);
#296=EDGE_CURVE('',#247,#246,#128,.T.);
#297=EDGE_CURVE('',#247,#245,#129,.T.);
#298=EDGE_CURVE('',#245,#248,#130,.T.);
#299=EDGE_CURVE('',#249,#247,#131,.T.);
#300=EDGE_CURVE('',#249,#248,#132,.T.);
#301=EDGE_CURVE('',#248,#250,#133,.T.);
#302=EDGE_CURVE('',#251,#249,#134,.T.);
#303=EDGE_CURVE('',#251,#250,#135,.T.);
#304=EDGE_CURVE('',#250,#244,#136,.T.);
#305=EDGE_CURVE('',#246,#251,#137,.T.);
#306=EDGE_CURVE('',#252,#253,#138,.T.);
#307=EDGE_CURVE('',#254,#252,#139,.T.);
#308=EDGE_CURVE('',#255,#254,#140,.T.);
#309=EDGE_CURVE('',#255,#253,#141,.T.);
#310=EDGE_CURVE('',#253,#256,#142,.T.);
#311=EDGE_CURVE('',#257,#255,#143,.T.);
#312=EDGE_CURVE('',#257,#256,#144,.T.);
#313=EDGE_CURVE('',#256,#258,#145,.T.);
#314=EDGE_CURVE('',#259,#257,#146,.T.);
#315=EDGE_CURVE('',#259,#258,#147,.T.);
#316=EDGE_CURVE('',#258,#252,#148,.T.);
#317=EDGE_CURVE('',#254,#259,#149,.T.);
#318=EDGE_CURVE('',#260,#260,#220,.T.);
#319=EDGE_CURVE('',#260,#261,#150,.T.);
#320=EDGE_CURVE('',#261,#261,#221,.T.);
#321=EDGE_CURVE('',#262,#262,#222,.T.);
#322=EDGE_CURVE('',#262,#263,#151,.T.);
#323=EDGE_CURVE('',#263,#263,#223,.T.);
#324=EDGE_CURVE('',#264,#264,#224,.T.);
#325=EDGE_CURVE('',#264,#265,#152,.T.);
#326=EDGE_CURVE('',#265,#265,#225,.T.);
#327=EDGE_CURVE('',#266,#266,#226,.T.);
#328=EDGE_CURVE('',#266,#267,#153,.T.);
#329=EDGE_CURVE('',#267,#267,#227,.T.);
#330=EDGE_CURVE('',#268,#268,#228,.T.);
#331=EDGE_CURVE('',#268,#269,#154,.T.);
#332=EDGE_CURVE('',#269,#269,#229,.T.);
#333=EDGE_CURVE('',#270,#271,#155,.T.);
#334=EDGE_CURVE('',#270,#272,#156,.T.);
#335=EDGE_CURVE('',#273,#272,#157,.T.);
#336=EDGE_CURVE('',#271,#273,#158,.T.);
#337=EDGE_CURVE('',#274,#271,#230,.T.);
#338=EDGE_CURVE('',#275,#273,#231,.T.);
#339=EDGE_CURVE('',#274,#275,#159,.T.);
#340=EDGE_CURVE('',#274,#276,#160,.T.);
#341=EDGE_CURVE('',#277,#275,#161,.T.);
#342=EDGE_CURVE('',#276,#277,#162,.T.);
#343=EDGE_CURVE('',#278,#276,#232,.T.);
#344=EDGE_CURVE('',#279,#277,#233,.T.);
#345=EDGE_CURVE('',#278,#279,#163,.T.);
#346=EDGE_CURVE('',#278,#280,#164,.T.);
#347=EDGE_CURVE('',#281,#279,#165,.T.);
#348=EDGE_CURVE('',#280,#281,#166,.T.);
#349=EDGE_CURVE('',#270,#280,#234,.T.);
#350=EDGE_CURVE('',#272,#281,#235,.T.);
#351=ORIENTED_EDGE('',*,*,#282,.F.);
#352=ORIENTED_EDGE('',*,*,#283,.T.);
#353=ORIENTED_EDGE('',*,*,#284,.F.);
#354=ORIENTED_EDGE('',*,*,#283,.F.);
#355=ORIENTED_EDGE('',*,*,#285,.F.);
#356=ORIENTED_EDGE('',*,*,#286,.T.);
#357=ORIENTED_EDGE('',*,*,#287,.F.);
#358=ORIENTED_EDGE('',*,*,#286,.F.);
#359=ORIENTED_EDGE('',*,*,#288,.F.);
#360=ORIENTED_EDGE('',*,*,#289,.T.);
#361=ORIENTED_EDGE('',*,*,#290,.F.);
#362=ORIENTED_EDGE('',*,*,#289,.F.);
#363=ORIENTED_EDGE('',*,*,#291,.F.);
#364=ORIENTED_EDGE('',*,*,#292,.T.);
#365=ORIENTED_EDGE('',*,*,#293,.F.);
#366=ORIENTED_EDGE('',*,*,#292,.F.);
#367=ORIENTED_EDGE('',*,*,#294,.F.);
#368=ORIENTED_EDGE('',*,*,#295,.F.);
#369=ORIENTED_EDGE('',*,*,#296,.F.);
#370=ORIENTED_EDGE('',*,*,#297,.T.);
#371=ORIENTED_EDGE('',*,*,#298,.F.);
#372=ORIENTED_EDGE('',*,*,#297,.F.);
#373=ORIENTED_EDGE('',*,*,#299,.F.);
#374=ORIENTED_EDGE('',*,*,#300,.T.);
#375=ORIENTED_EDGE('',*,*,#301,.F.);
#376=ORIENTED_EDGE('',*,*,#300,.F.);
#377=ORIENTED_EDGE('',*,*,#302,.F.);
#378=ORIENTED_EDGE('',*,*,#303,.T.);
#379=ORIENTED_EDGE('',*,*,#304,.F.);
#380=ORIENTED_EDGE('',*,*,#303,.F.);
#381=ORIENTED_EDGE('',*,*,#305,.F.);
#382=ORIENTED_EDGE('',*,*,#295,.T.);
#383=ORIENTED_EDGE('',*,*,#306,.F.);
#384=ORIENTED_EDGE('',*,*,#307,.F.);
#385=ORIENTED_EDGE('',*,*,#308,.F.);
#386=ORIENTED_EDGE('',*,*,#309,.T.);
#387=ORIENTED_EDGE('',*,*,#310,.F.);
#388=ORIENTED_EDGE('',*,*,#309,.F.);
#389=ORIENTED_EDGE('',*,*,#311,.F.);
#390=ORIENTED_EDGE('',*,*,#312,.T.);
#391=ORIENTED_EDGE('',*,*,#313,.F.);
#392=ORIENTED_EDGE('',*,*,#312,.F.);
#393=ORIENTED_EDGE('',*,*,#314,.F.);
#394=ORIENTED_EDGE('',*,*,#315,.T.);
#395=ORIENTED_EDGE('',*,*,#316,.F.);
#396=ORIENTED_EDGE('',*,*,#315,.F.);
#397=ORIENTED_EDGE('',*,*,#317,.F.);
#398=ORIENTED_EDGE('',*,*,#307,.T.);
#399=ORIENTED_EDGE('',*,*,#318,.F.);
#400=ORIENTED_EDGE('',*,*,#319,.T.);
#401=ORIENTED_EDGE('',*,*,#320,.F.);
#402=ORIENTED_EDGE('',*,*,#319,.F.);
#403=ORIENTED_EDGE('',*,*,#321,.F.);
#404=ORIENTED_EDGE('',*,*,#322,.T.);
#405=ORIENTED_EDGE('',*,*,#323,.F.);
#406=ORIENTED_EDGE('',*,*,#322,.F.);
#407=ORIENTED_EDGE('',*,*,#324,.F.);
#408=ORIENTED_EDGE('',*,*,#325,.T.);
#409=ORIENTED_EDGE('',*,*,#326,.F.);
#410=ORIENTED_EDGE('',*,*,#325,.F.);
#411=ORIENTED_EDGE('',*,*,#327,.F.);
#412=ORIENTED_EDGE('',*,*,#328,.T.);
#413=ORIENTED_EDGE('',*,*,#329,.F.);
#414=ORIENTED_EDGE('',*,*,#328,.F.);
#415=ORIENTED_EDGE('',*,*,#330,.F.);
#416=ORIENTED_EDGE('',*,*,#331,.T.);
#417=ORIENTED_EDGE('',*,*,#332,.F.);
#418=ORIENTED_EDGE('',*,*,#331,.F.);
#419=ORIENTED_EDGE('',*,*,#333,.F.);
#420=ORIENTED_EDGE('',*,*,#334,.T.);
#421=ORIENTED_EDGE('',*,*,#335,.F.);
#422=ORIENTED_EDGE('',*,*,#336,.F.);
#423=ORIENTED_EDGE('',*,*,#337,.T.);
#424=ORIENTED_EDGE('',*,*,#336,.T.);
#425=ORIENTED_EDGE('',*,*,#338,.F.);
#426=ORIENTED_EDGE('',*,*,#339,.F.);
#427=ORIENTED_EDGE('',*,*,#340,.F.);
#428=ORIENTED_EDGE('',*,*,#339,.T.);
#429=ORIENTED_EDGE('',*,*,#341,.F.);
#430=ORIENTED_EDGE('',*,*,#342,.F.);
#431=ORIENTED_EDGE('',*,*,#343,.T.);
#432=ORIENTED_EDGE('',*,*,#342,.T.);
#433=ORIENTED_EDGE('',*,*,#344,.F.);
#434=ORIENTED_EDGE('',*,*,#345,.F.);
#435=ORIENTED_EDGE('',*,*,#346,.F.);
#436=ORIENTED_EDGE('',*,*,#345,.T.);
#437=ORIENTED_EDGE('',*,*,#347,.F.);
#438=ORIENTED_EDGE('',*,*,#348,.F.);
#439=ORIENTED_EDGE('',*,*,#349,.T.);
#440=ORIENTED_EDGE('',*,*,#348,.T.);
#441=ORIENTED_EDGE('',*,*,#350,.F.);
#442=ORIENTED_EDGE('',*,*,#334,.F.);
#443=ORIENTED_EDGE('',*,*,#350,.T.);
#444=ORIENTED_EDGE('',*,*,#347,.T.);
#445=ORIENTED_EDGE('',*,*,#344,.T.);
#446=ORIENTED_EDGE('',*,*,#341,.T.);
#447=ORIENTED_EDGE('',*,*,#338,.T.);
#448=ORIENTED_EDGE('',*,*,#335,.T.);
#449=ORIENTED_EDGE('',*,*,#284,.T.);
#450=ORIENTED_EDGE('',*,*,#287,.T.);
#451=ORIENTED_EDGE('',*,*,#290,.T.);
#452=ORIENTED_EDGE('',*,*,#293,.T.);
#453=ORIENTED_EDGE('',*,*,#294,.T.);
#454=ORIENTED_EDGE('',*,*,#298,.T.);
#455=ORIENTED_EDGE('',*,*,#301,.T.);
#456=ORIENTED_EDGE('',*,*,#304,.T.);
#457=ORIENTED_EDGE('',*,*,#306,.T.);
#458=ORIENTED_EDGE('',*,*,#310,.T.);
#459=ORIENTED_EDGE('',*,*,#313,.T.);
#460=ORIENTED_EDGE('',*,*,#316,.T.);
#461=ORIENTED_EDGE('',*,*,#320,.T.);
#462=ORIENTED_EDGE('',*,*,#323,.T.);
#463=ORIENTED_EDGE('',*,*,#326,.T.);
#464=ORIENTED_EDGE('',*,*,#329,.T.);
#465=ORIENTED_EDGE('',*,*,#332,.T.);
#466=ORIENTED_EDGE('',*,*,#349,.F.);
#467=ORIENTED_EDGE('',*,*,#333,.T.);
#468=ORIENTED_EDGE('',*,*,#337,.F.);
#469=ORIENTED_EDGE('',*,*,#340,.T.);
#470=ORIENTED_EDGE('',*,*,#343,.F.);
#471=ORIENTED_EDGE('',*,*,#346,.T.);
#472=ORIENTED_EDGE('',*,*,#282,.T.);
#473=ORIENTED_EDGE('',*,*,#285,.T.);
#474=ORIENTED_EDGE('',*,*,#288,.T.);
#475=ORIENTED_EDGE('',*,*,#291,.T.);
#476=ORIENTED_EDGE('',*,*,#296,.T.);
#477=ORIENTED_EDGE('',*,*,#305,.T.);
#478=ORIENTED_EDGE('',*,*,#302,.T.);
#479=ORIENTED_EDGE('',*,*,#299,.T.);
#480=ORIENTED_EDGE('',*,*,#308,.T.);
#481=ORIENTED_EDGE('',*,*,#317,.T.);
#482=ORIENTED_EDGE('',*,*,#314,.T.);
#483=ORIENTED_EDGE('',*,*,#311,.T.);
#484=ORIENTED_EDGE('',*,*,#318,.T.);
#485=ORIENTED_EDGE('',*,*,#321,.T.);
#486=ORIENTED_EDGE('',*,*,#324,.T.);
#487=ORIENTED_EDGE('',*,*,#327,.T.);
#488=ORIENTED_EDGE('',*,*,#330,.T.);
#489=CYLINDRICAL_SURFACE('',#540,2.25);
#490=CYLINDRICAL_SURFACE('',#543,2.25);
#491=CYLINDRICAL_SURFACE('',#546,18.5);
#492=CYLINDRICAL_SURFACE('',#549,10.);
#493=CYLINDRICAL_SURFACE('',#560,4.5);
#494=CYLINDRICAL_SURFACE('',#563,4.5);
#495=CYLINDRICAL_SURFACE('',#566,4.5);
#496=CYLINDRICAL_SURFACE('',#569,4.5);
#497=CYLINDRICAL_SURFACE('',#572,4.5);
#498=CYLINDRICAL_SURFACE('',#576,25.0000000000001);
#499=CYLINDRICAL_SURFACE('',#580,25.);
#500=CYLINDRICAL_SURFACE('',#584,25.);
#501=ADVANCED_FACE('',(#50),#489,.F.);
#502=ADVANCED_FACE('',(#51),#490,.F.);
#503=ADVANCED_FACE('',(#52),#491,.F.);
#504=ADVANCED_FACE('',(#53),#492,.F.);
#505=ADVANCED_FACE('',(#54),#37,.F.);
#506=ADVANCED_FACE('',(#55),#38,.F.);
#507=ADVANCED_FACE('',(#56),#39,.F.);
#508=ADVANCED_FACE('',(#57),#40,.F.);
#509=ADVANCED_FACE('',(#58),#41,.F.);
#510=ADVANCED_FACE('',(#59),#42,.F.);
#511=ADVANCED_FACE('',(#60),#43,.F.);
#512=ADVANCED_FACE('',(#61),#44,.F.);
#513=ADVANCED_FACE('',(#62),#493,.F.);
#514=ADVANCED_FACE('',(#63),#494,.F.);
#515=ADVANCED_FACE('',(#64),#495,.F.);
#516=ADVANCED_FACE('',(#65),#496,.F.);
#517=ADVANCED_FACE('',(#66),#497,.F.);
#518=ADVANCED_FACE('',(#67),#45,.T.);
#519=ADVANCED_FACE('',(#68),#498,.T.);
#520=ADVANCED_FACE('',(#69),#46,.T.);
#521=ADVANCED_FACE('',(#70),#499,.T.);
#522=ADVANCED_FACE('',(#71),#47,.T.);
#523=ADVANCED_FACE('',(#72),#500,.T.);
#524=ADVANCED_FACE('',(#73,#15,#16,#17,#18,#19,#20,#21,#22,#23,#24,#25),
#48,.T.);
#525=ADVANCED_FACE('',(#74,#26,#27,#28,#29,#30,#31,#32,#33,#34,#35,#36),
#49,.F.);
#526=CLOSED_SHELL('',(#501,#502,#503,#504,#505,#506,#507,#508,#509,#510,
#511,#512,#513,#514,#515,#516,#517,#518,#519,#520,#521,#522,#523,#524,#525));
#527=DERIVED_UNIT_ELEMENT(#529,1.);
#528=DERIVED_UNIT_ELEMENT(#880,-3.);
#529=(
MASS_UNIT()
NAMED_UNIT(*)
SI_UNIT(.KILO.,.GRAM.)
);
#530=DERIVED_UNIT((#527,#528));
#531=MEASURE_REPRESENTATION_ITEM('density measure',
POSITIVE_RATIO_MEASURE(7850.),#530);
#532=PROPERTY_DEFINITION_REPRESENTATION(#537,#534);
#533=PROPERTY_DEFINITION_REPRESENTATION(#538,#535);
#534=REPRESENTATION('material name',(#536),#877);
#535=REPRESENTATION('density',(#531),#877);
#536=DESCRIPTIVE_REPRESENTATION_ITEM('Ocel','Ocel');
#537=PROPERTY_DEFINITION('material property','material name',#887);
#538=PROPERTY_DEFINITION('material property','density of part',#887);
#539=AXIS2_PLACEMENT_3D('',#734,#589,#590);
#540=AXIS2_PLACEMENT_3D('',#735,#591,#592);
#541=AXIS2_PLACEMENT_3D('',#737,#593,#594);
#542=AXIS2_PLACEMENT_3D('',#740,#596,#597);
#543=AXIS2_PLACEMENT_3D('',#741,#598,#599);
#544=AXIS2_PLACEMENT_3D('',#743,#600,#601);
#545=AXIS2_PLACEMENT_3D('',#746,#603,#604);
#546=AXIS2_PLACEMENT_3D('',#747,#605,#606);
#547=AXIS2_PLACEMENT_3D('',#749,#607,#608);
#548=AXIS2_PLACEMENT_3D('',#752,#610,#611);
#549=AXIS2_PLACEMENT_3D('',#753,#612,#613);
#550=AXIS2_PLACEMENT_3D('',#755,#614,#615);
#551=AXIS2_PLACEMENT_3D('',#758,#617,#618);
#552=AXIS2_PLACEMENT_3D('',#759,#619,#620);
#553=AXIS2_PLACEMENT_3D('',#768,#625,#626);
#554=AXIS2_PLACEMENT_3D('',#774,#630,#631);
#555=AXIS2_PLACEMENT_3D('',#780,#635,#636);
#556=AXIS2_PLACEMENT_3D('',#783,#639,#640);
#557=AXIS2_PLACEMENT_3D('',#792,#645,#646);
#558=AXIS2_PLACEMENT_3D('',#798,#650,#651);
#559=AXIS2_PLACEMENT_3D('',#804,#655,#656);
#560=AXIS2_PLACEMENT_3D('',#807,#659,#660);
#561=AXIS2_PLACEMENT_3D('',#809,#661,#662);
#562=AXIS2_PLACEMENT_3D('',#812,#664,#665);
#563=AXIS2_PLACEMENT_3D('',#813,#666,#667);
#564=AXIS2_PLACEMENT_3D('',#815,#668,#669);
#565=AXIS2_PLACEMENT_3D('',#818,#671,#672);
#566=AXIS2_PLACEMENT_3D('',#819,#673,#674);
#567=AXIS2_PLACEMENT_3D('',#821,#675,#676);
#568=AXIS2_PLACEMENT_3D('',#824,#678,#679);
#569=AXIS2_PLACEMENT_3D('',#825,#680,#681);
#570=AXIS2_PLACEMENT_3D('',#827,#682,#683);
#571=AXIS2_PLACEMENT_3D('',#830,#685,#686);
#572=AXIS2_PLACEMENT_3D('',#831,#687,#688);
#573=AXIS2_PLACEMENT_3D('',#833,#689,#690);
#574=AXIS2_PLACEMENT_3D('',#836,#692,#693);
#575=AXIS2_PLACEMENT_3D('',#837,#694,#695);
#576=AXIS2_PLACEMENT_3D('',#846,#700,#701);
#577=AXIS2_PLACEMENT_3D('',#848,#702,#703);
#578=AXIS2_PLACEMENT_3D('',#850,#704,#705);
#579=AXIS2_PLACEMENT_3D('',#852,#707,#708);
#580=AXIS2_PLACEMENT_3D('',#858,#712,#713);
#581=AXIS2_PLACEMENT_3D('',#860,#714,#715);
#582=AXIS2_PLACEMENT_3D('',#862,#716,#717);
#583=AXIS2_PLACEMENT_3D('',#864,#719,#720);
#584=AXIS2_PLACEMENT_3D('',#870,#724,#725);
#585=AXIS2_PLACEMENT_3D('',#871,#726,#727);
#586=AXIS2_PLACEMENT_3D('',#872,#728,#729);
#587=AXIS2_PLACEMENT_3D('',#873,#730,#731);
#588=AXIS2_PLACEMENT_3D('',#874,#732,#733);
#589=DIRECTION('axis',(0.,0.,1.));
#590=DIRECTION('refdir',(1.,0.,0.));
#591=DIRECTION('center_axis',(0.,1.,0.));
#592=DIRECTION('ref_axis',(0.,0.,-1.));
#593=DIRECTION('center_axis',(0.,1.,0.));
#594=DIRECTION('ref_axis',(0.,0.,-1.));
#595=DIRECTION('',(0.,1.,0.));
#596=DIRECTION('center_axis',(0.,-1.,0.));
#597=DIRECTION('ref_axis',(0.,0.,-1.));
#598=DIRECTION('center_axis',(0.,1.,0.));
#599=DIRECTION('ref_axis',(0.,0.,-1.));
#600=DIRECTION('center_axis',(0.,1.,0.));
#601=DIRECTION('ref_axis',(0.,0.,-1.));
#602=DIRECTION('',(0.,1.,0.));
#603=DIRECTION('center_axis',(0.,-1.,0.));
#604=DIRECTION('ref_axis',(0.,0.,-1.));
#605=DIRECTION('center_axis',(0.,1.,0.));
#606=DIRECTION('ref_axis',(0.,0.,-1.));
#607=DIRECTION('center_axis',(0.,1.,0.));
#608=DIRECTION('ref_axis',(0.,0.,-1.));
#609=DIRECTION('',(0.,1.,0.));
#610=DIRECTION('center_axis',(0.,-1.,0.));
#611=DIRECTION('ref_axis',(0.,0.,-1.));
#612=DIRECTION('center_axis',(0.,1.,0.));
#613=DIRECTION('ref_axis',(0.,0.,-1.));
#614=DIRECTION('center_axis',(0.,1.,0.));
#615=DIRECTION('ref_axis',(0.,0.,-1.));
#616=DIRECTION('',(0.,1.,0.));
#617=DIRECTION('center_axis',(0.,-1.,0.));
#618=DIRECTION('ref_axis',(0.,0.,-1.));
#619=DIRECTION('center_axis',(-1.,0.,0.));
#620=DIRECTION('ref_axis',(0.,0.,1.));
#621=DIRECTION('',(0.,0.,-1.));
#622=DIRECTION('',(0.,1.,0.));
#623=DIRECTION('',(0.,0.,1.));
#624=DIRECTION('',(0.,1.,0.));
#625=DIRECTION('center_axis',(0.,0.,-1.));
#626=DIRECTION('ref_axis',(-1.,0.,0.));
#627=DIRECTION('',(1.,0.,0.));
#628=DIRECTION('',(-1.,0.,0.));
#629=DIRECTION('',(0.,1.,0.));
#630=DIRECTION('center_axis',(1.,0.,0.));
#631=DIRECTION('ref_axis',(0.,0.,-1.));
#632=DIRECTION('',(0.,0.,1.));
#633=DIRECTION('',(0.,0.,-1.));
#634=DIRECTION('',(0.,1.,0.));
#635=DIRECTION('center_axis',(0.,0.,1.));
#636=DIRECTION('ref_axis',(1.,0.,0.));
#637=DIRECTION('',(-1.,0.,0.));
#638=DIRECTION('',(1.,0.,0.));
#639=DIRECTION('center_axis',(-1.,0.,0.));
#640=DIRECTION('ref_axis',(0.,0.,1.));
#641=DIRECTION('',(0.,0.,-1.));
#642=DIRECTION('',(0.,1.,0.));
#643=DIRECTION('',(0.,0.,1.));
#644=DIRECTION('',(0.,1.,0.));
#645=DIRECTION('center_axis',(0.,0.,-1.));
#646=DIRECTION('ref_axis',(-1.,0.,0.));
#647=DIRECTION('',(1.,0.,0.));
#648=DIRECTION('',(-1.,0.,0.));
#649=DIRECTION('',(0.,1.,0.));
#650=DIRECTION('center_axis',(1.,0.,0.));
#651=DIRECTION('ref_axis',(0.,0.,-1.));
#652=DIRECTION('',(0.,0.,1.));
#653=DIRECTION('',(0.,0.,-1.));
#654=DIRECTION('',(0.,1.,0.));
#655=DIRECTION('center_axis',(0.,0.,1.));
#656=DIRECTION('ref_axis',(1.,0.,0.));
#657=DIRECTION('',(-1.,0.,0.));
#658=DIRECTION('',(1.,0.,0.));
#659=DIRECTION('center_axis',(0.,1.,0.));
#660=DIRECTION('ref_axis',(0.,0.,-1.));
#661=DIRECTION('center_axis',(0.,1.,0.));
#662=DIRECTION('ref_axis',(0.,0.,-1.));
#663=DIRECTION('',(0.,1.,0.));
#664=DIRECTION('center_axis',(0.,-1.,0.));
#665=DIRECTION('ref_axis',(0.,0.,-1.));
#666=DIRECTION('center_axis',(0.,1.,0.));
#667=DIRECTION('ref_axis',(0.,0.,-1.));
#668=DIRECTION('center_axis',(0.,1.,0.));
#669=DIRECTION('ref_axis',(0.,0.,-1.));
#670=DIRECTION('',(0.,1.,0.));
#671=DIRECTION('center_axis',(0.,-1.,0.));
#672=DIRECTION('ref_axis',(0.,0.,-1.));
#673=DIRECTION('center_axis',(0.,1.,0.));
#674=DIRECTION('ref_axis',(0.,0.,-1.));
#675=DIRECTION('center_axis',(0.,1.,0.));
#676=DIRECTION('ref_axis',(0.,0.,-1.));
#677=DIRECTION('',(0.,1.,0.));
#678=DIRECTION('center_axis',(0.,-1.,0.));
#679=DIRECTION('ref_axis',(0.,0.,-1.));
#680=DIRECTION('center_axis',(0.,1.,0.));
#681=DIRECTION('ref_axis',(0.,0.,-1.));
#682=DIRECTION('center_axis',(0.,1.,0.));
#683=DIRECTION('ref_axis',(0.,0.,-1.));
#684=DIRECTION('',(0.,1.,0.));
#685=DIRECTION('center_axis',(0.,-1.,0.));
#686=DIRECTION('ref_axis',(0.,0.,-1.));
#687=DIRECTION('center_axis',(0.,1.,0.));
#688=DIRECTION('ref_axis',(0.,0.,-1.));
#689=DIRECTION('center_axis',(0.,1.,0.));
#690=DIRECTION('ref_axis',(0.,0.,-1.));
#691=DIRECTION('',(0.,1.,0.));
#692=DIRECTION('center_axis',(0.,-1.,0.));
#693=DIRECTION('ref_axis',(0.,0.,-1.));
#694=DIRECTION('center_axis',(0.755689082789818,0.,0.654930538417842));
#695=DIRECTION('ref_axis',(0.654930538417842,0.,-0.755689082789818));
#696=DIRECTION('',(-0.654930538417842,0.,0.755689082789818));
#697=DIRECTION('',(0.,1.,0.));
#698=DIRECTION('',(0.654930538417842,0.,-0.755689082789818));
#699=DIRECTION('',(0.,1.,0.));
#700=DIRECTION('center_axis',(0.,1.,0.));
#701=DIRECTION('ref_axis',(-0.485642931178631,0.,0.874157276121538));
#702=DIRECTION('center_axis',(0.,1.,0.));
#703=DIRECTION('ref_axis',(-0.485642931178631,0.,0.874157276121538));
#704=DIRECTION('center_axis',(0.,1.,0.));
#705=DIRECTION('ref_axis',(-0.485642931178631,0.,0.874157276121538));
#706=DIRECTION('',(0.,1.,0.));
#707=DIRECTION('center_axis',(-0.485642931178632,0.,0.874157276121538));
#708=DIRECTION('ref_axis',(0.874157276121538,0.,0.485642931178632));
#709=DIRECTION('',(-0.874157276121538,0.,-0.485642931178632));
#710=DIRECTION('',(0.874157276121538,0.,0.485642931178632));
#711=DIRECTION('',(0.,1.,0.));
#712=DIRECTION('center_axis',(0.,1.,0.));
#713=DIRECTION('ref_axis',(0.,0.,-1.));
#714=DIRECTION('center_axis',(0.,1.,0.));
#715=DIRECTION('ref_axis',(0.,0.,-1.));
#716=DIRECTION('center_axis',(0.,1.,0.));
#717=DIRECTION('ref_axis',(0.,0.,-1.));
#718=DIRECTION('',(0.,1.,0.));
#719=DIRECTION('center_axis',(0.,0.,-1.));
#720=DIRECTION('ref_axis',(-1.,0.,0.));
#721=DIRECTION('',(1.,0.,0.));
#722=DIRECTION('',(-1.,0.,0.));
#723=DIRECTION('',(0.,1.,0.));
#724=DIRECTION('center_axis',(0.,1.,0.));
#725=DIRECTION('ref_axis',(0.755689082789817,0.,0.654930538417842));
#726=DIRECTION('center_axis',(0.,1.,0.));
#727=DIRECTION('ref_axis',(0.755689082789817,0.,0.654930538417842));
#728=DIRECTION('center_axis',(0.,1.,0.));
#729=DIRECTION('ref_axis',(0.755689082789817,0.,0.654930538417842));
#730=DIRECTION('center_axis',(0.,1.,0.));
#731=DIRECTION('ref_axis',(1.,0.,0.));
#732=DIRECTION('center_axis',(0.,1.,0.));
#733=DIRECTION('ref_axis',(1.,0.,0.));
#734=CARTESIAN_POINT('',(0.,0.,0.));
#735=CARTESIAN_POINT('Origin',(-47.,1.1,10.));
#736=CARTESIAN_POINT('',(-47.,0.,12.25));
#737=CARTESIAN_POINT('Origin',(-47.,0.,10.));
#738=CARTESIAN_POINT('',(-47.,2.,12.25));
#739=CARTESIAN_POINT('',(-47.,1.1,12.25));
#740=CARTESIAN_POINT('Origin',(-47.,2.,10.));
#741=CARTESIAN_POINT('Origin',(-3.,1.1,10.));
#742=CARTESIAN_POINT('',(-3.,0.,12.25));
#743=CARTESIAN_POINT('Origin',(-3.,0.,10.));
#744=CARTESIAN_POINT('',(-3.,2.,12.25));
#745=CARTESIAN_POINT('',(-3.,1.1,12.25));
#746=CARTESIAN_POINT('Origin',(-3.,2.,10.));
#747=CARTESIAN_POINT('Origin',(-25.,1.1,10.));
#748=CARTESIAN_POINT('',(-25.,0.,28.5));
#749=CARTESIAN_POINT('Origin',(-25.,0.,10.));
#750=CARTESIAN_POINT('',(-25.,2.,28.5));
#751=CARTESIAN_POINT('',(-25.,1.1,28.5));
#752=CARTESIAN_POINT('Origin',(-25.,2.,10.));
#753=CARTESIAN_POINT('Origin',(170.,1.,100.));
#754=CARTESIAN_POINT('',(170.,0.,110.));
#755=CARTESIAN_POINT('Origin',(170.,0.,100.));
#756=CARTESIAN_POINT('',(170.,2.,110.));
#757=CARTESIAN_POINT('',(170.,1.,110.));
#758=CARTESIAN_POINT('Origin',(170.,2.,100.));
#759=CARTESIAN_POINT('Origin',(216.,0.,85.));
#760=CARTESIAN_POINT('',(216.,2.,175.));
#761=CARTESIAN_POINT('',(216.,2.,85.));
#762=CARTESIAN_POINT('',(216.,2.,85.));
#763=CARTESIAN_POINT('',(216.,0.,175.));
#764=CARTESIAN_POINT('',(216.,0.,175.));
#765=CARTESIAN_POINT('',(216.,0.,85.));
#766=CARTESIAN_POINT('',(216.,0.,85.));
#767=CARTESIAN_POINT('',(216.,0.,85.));
#768=CARTESIAN_POINT('Origin',(224.,0.,85.));
#769=CARTESIAN_POINT('',(224.,2.,85.));
#770=CARTESIAN_POINT('',(187.,2.,85.));
#771=CARTESIAN_POINT('',(224.,0.,85.));
#772=CARTESIAN_POINT('',(187.,0.,85.));
#773=CARTESIAN_POINT('',(224.,0.,85.));
#774=CARTESIAN_POINT('Origin',(224.,0.,175.));
#775=CARTESIAN_POINT('',(224.,2.,175.));
#776=CARTESIAN_POINT('',(224.,2.,130.));
#777=CARTESIAN_POINT('',(224.,0.,175.));
#778=CARTESIAN_POINT('',(224.,0.,130.));
#779=CARTESIAN_POINT('',(224.,0.,175.));
#780=CARTESIAN_POINT('Origin',(216.,0.,175.));
#781=CARTESIAN_POINT('',(183.,2.,175.));
#782=CARTESIAN_POINT('',(183.,0.,175.));
#783=CARTESIAN_POINT('Origin',(216.,0.,72.));
#784=CARTESIAN_POINT('',(216.,2.,80.));
#785=CARTESIAN_POINT('',(216.,2.,72.));
#786=CARTESIAN_POINT('',(216.,2.,78.5));
#787=CARTESIAN_POINT('',(216.,0.,80.));
#788=CARTESIAN_POINT('',(216.,0.,80.));
#789=CARTESIAN_POINT('',(216.,0.,72.));
#790=CARTESIAN_POINT('',(216.,0.,78.5));
#791=CARTESIAN_POINT('',(216.,0.,72.));
#792=CARTESIAN_POINT('Origin',(224.,0.,72.));
#793=CARTESIAN_POINT('',(224.,2.,72.));
#794=CARTESIAN_POINT('',(187.,2.,72.));
#795=CARTESIAN_POINT('',(224.,0.,72.));
#796=CARTESIAN_POINT('',(187.,0.,72.));
#797=CARTESIAN_POINT('',(224.,0.,72.));
#798=CARTESIAN_POINT('Origin',(224.,0.,80.));
#799=CARTESIAN_POINT('',(224.,2.,80.));
#800=CARTESIAN_POINT('',(224.,2.,82.5));
#801=CARTESIAN_POINT('',(224.,0.,80.));
#802=CARTESIAN_POINT('',(224.,0.,82.5));
#803=CARTESIAN_POINT('',(224.,0.,80.));
#804=CARTESIAN_POINT('Origin',(216.,0.,80.));
#805=CARTESIAN_POINT('',(183.,2.,80.));
#806=CARTESIAN_POINT('',(183.,0.,80.));
#807=CARTESIAN_POINT('Origin',(270.,1.1,110.));
#808=CARTESIAN_POINT('',(270.,0.,114.5));
#809=CARTESIAN_POINT('Origin',(270.,0.,110.));
#810=CARTESIAN_POINT('',(270.,2.,114.5));
#811=CARTESIAN_POINT('',(270.,1.1,114.5));
#812=CARTESIAN_POINT('Origin',(270.,2.,110.));
#813=CARTESIAN_POINT('Origin',(20.,1.1,10.));
#814=CARTESIAN_POINT('',(20.,0.,14.5));
#815=CARTESIAN_POINT('Origin',(20.,0.,10.));
#816=CARTESIAN_POINT('',(20.,2.,14.5));
#817=CARTESIAN_POINT('',(20.,1.1,14.5));
#818=CARTESIAN_POINT('Origin',(20.,2.,10.));
#819=CARTESIAN_POINT('Origin',(10.6217782649107,1.1,45.));
#820=CARTESIAN_POINT('',(10.6217782649107,0.,49.5));
#821=CARTESIAN_POINT('Origin',(10.6217782649107,0.,45.));
#822=CARTESIAN_POINT('',(10.6217782649107,2.,49.5));
#823=CARTESIAN_POINT('',(10.6217782649107,1.1,49.5));
#824=CARTESIAN_POINT('Origin',(10.6217782649107,2.,45.));
#825=CARTESIAN_POINT('Origin',(170.,1.1,135.));
#826=CARTESIAN_POINT('',(170.,0.,139.5));
#827=CARTESIAN_POINT('Origin',(170.,0.,135.));
#828=CARTESIAN_POINT('',(170.,2.,139.5));
#829=CARTESIAN_POINT('',(170.,1.1,139.5));
#830=CARTESIAN_POINT('Origin',(170.,2.,135.));
#831=CARTESIAN_POINT('Origin',(350.,1.1,10.));
#832=CARTESIAN_POINT('',(350.,0.,14.5));
#833=CARTESIAN_POINT('Origin',(350.,0.,10.));
#834=CARTESIAN_POINT('',(350.,2.,14.5));
#835=CARTESIAN_POINT('',(350.,1.1,14.5));
#836=CARTESIAN_POINT('Origin',(350.,2.,10.));
#837=CARTESIAN_POINT('Origin',(238.892227069746,0.,176.373263460446));
#838=CARTESIAN_POINT('',(368.892227069745,0.,26.3732634604461));
#839=CARTESIAN_POINT('',(238.892227069746,0.,176.373263460446));
#840=CARTESIAN_POINT('',(368.892227069745,0.,26.373263460446));
#841=CARTESIAN_POINT('',(368.892227069745,2.,26.3732634604461));
#842=CARTESIAN_POINT('',(368.892227069745,0.,26.3732634604461));
#843=CARTESIAN_POINT('',(238.892227069746,2.,176.373263460446));
#844=CARTESIAN_POINT('',(368.892227069745,2.,26.373263460446));
#845=CARTESIAN_POINT('',(238.892227069746,0.,176.373263460446));
#846=CARTESIAN_POINT('Origin',(220.,0.,160.));
#847=CARTESIAN_POINT('',(207.858926720534,0.,181.853931903039));
#848=CARTESIAN_POINT('Origin',(220.,0.,160.));
#849=CARTESIAN_POINT('',(207.858926720534,2.,181.853931903039));
#850=CARTESIAN_POINT('Origin',(220.,2.,160.));
#851=CARTESIAN_POINT('',(207.858926720534,0.,181.853931903039));
#852=CARTESIAN_POINT('Origin',(-62.1410732794658,0.,31.8539319030385));
#853=CARTESIAN_POINT('',(-62.1410732794658,0.,31.8539319030384));
#854=CARTESIAN_POINT('',(207.858926720534,0.,181.853931903039));
#855=CARTESIAN_POINT('',(-62.1410732794658,2.,31.8539319030384));
#856=CARTESIAN_POINT('',(207.858926720534,2.,181.853931903039));
#857=CARTESIAN_POINT('',(-62.1410732794658,0.,31.8539319030384));
#858=CARTESIAN_POINT('Origin',(-50.,0.,10.));
#859=CARTESIAN_POINT('',(-50.,0.,-15.));
#860=CARTESIAN_POINT('Origin',(-50.,0.,10.));
#861=CARTESIAN_POINT('',(-50.,2.,-15.));
#862=CARTESIAN_POINT('Origin',(-50.,2.,10.));
#863=CARTESIAN_POINT('',(-50.,0.,-15.));
#864=CARTESIAN_POINT('Origin',(350.,0.,-15.));
#865=CARTESIAN_POINT('',(350.,0.,-15.));
#866=CARTESIAN_POINT('',(-50.,0.,-15.));
#867=CARTESIAN_POINT('',(350.,2.,-15.));
#868=CARTESIAN_POINT('',(-50.,2.,-15.));
#869=CARTESIAN_POINT('',(350.,0.,-15.));
#870=CARTESIAN_POINT('Origin',(350.,0.,10.));
#871=CARTESIAN_POINT('Origin',(350.,0.,10.));
#872=CARTESIAN_POINT('Origin',(350.,2.,10.));
#873=CARTESIAN_POINT('Origin',(150.,2.,85.));
#874=CARTESIAN_POINT('Origin',(150.,0.,85.));
#875=UNCERTAINTY_MEASURE_WITH_UNIT(LENGTH_MEASURE(0.01),#879,
'DISTANCE_ACCURACY_VALUE',
'Maximum model space distance between geometric entities at asserted c
onnectivities');
#876=UNCERTAINTY_MEASURE_WITH_UNIT(LENGTH_MEASURE(0.01),#879,
'DISTANCE_ACCURACY_VALUE',
'Maximum model space distance between geometric entities at asserted c
onnectivities');
#877=(
GEOMETRIC_REPRESENTATION_CONTEXT(3)
GLOBAL_UNCERTAINTY_ASSIGNED_CONTEXT((#875))
GLOBAL_UNIT_ASSIGNED_CONTEXT((#879,#881,#882))
REPRESENTATION_CONTEXT('','3D')
);
#878=(
GEOMETRIC_REPRESENTATION_CONTEXT(3)
GLOBAL_UNCERTAINTY_ASSIGNED_CONTEXT((#876))
GLOBAL_UNIT_ASSIGNED_CONTEXT((#879,#881,#882))
REPRESENTATION_CONTEXT('','3D')
);
#879=(
LENGTH_UNIT()
NAMED_UNIT(*)
SI_UNIT(.MILLI.,.METRE.)
);
#880=(
LENGTH_UNIT()
NAMED_UNIT(*)
SI_UNIT($,.METRE.)
);
#881=(
NAMED_UNIT(*)
PLANE_ANGLE_UNIT()
SI_UNIT($,.RADIAN.)
);
#882=(
NAMED_UNIT(*)
SI_UNIT($,.STERADIAN.)
SOLID_ANGLE_UNIT()
);
#883=SHAPE_DEFINITION_REPRESENTATION(#884,#885);
#884=PRODUCT_DEFINITION_SHAPE('',$,#887);
#885=SHAPE_REPRESENTATION('',(#539),#877);
#886=PRODUCT_DEFINITION_CONTEXT('part definition',#891,'design');
#887=PRODUCT_DEFINITION('2026-02-12-02-13-22-735','pl\X\E1t vnit\X2\0159\X0\n
\X\ED',#888,#886);
#888=PRODUCT_DEFINITION_FORMATION('',$,#893);
#889=PRODUCT_RELATED_PRODUCT_CATEGORY('pl\X\E1t vnit\X2\0159\X0\n\X\ED',
'pl\X\E1t vnit\X2\0159\X0\n\X\ED',(#893));
#890=APPLICATION_PROTOCOL_DEFINITION('international standard',
'automotive_design',2009,#891);
#891=APPLICATION_CONTEXT(
'Core Data for Automotive Mechanical Design Process');
#892=PRODUCT_CONTEXT('part definition',#891,'mechanical');
#893=PRODUCT('2026-02-12-02-13-22-735','pl\X\E1t vnit\X2\0159\X0\n\X\ED',
$,(#892));
#894=PRESENTATION_STYLE_ASSIGNMENT((#895));
#895=SURFACE_STYLE_USAGE(.BOTH.,#896);
#896=SURFACE_SIDE_STYLE('',(#897));
#897=SURFACE_STYLE_FILL_AREA(#898);
#898=FILL_AREA_STYLE('Ocel \X2\2013\X0\ sat\X\E9n',(#899));
#899=FILL_AREA_STYLE_COLOUR('Ocel \X2\2013\X0\ sat\X\E9n',#900);
#900=COLOUR_RGB('Ocel \X2\2013\X0\ sat\X\E9n',0.627450980392157,0.627450980392157,
0.627450980392157);
ENDSEC;
END-ISO-10303-21;
