ISO-10303-21;
HEADER;
/* Generated by software containing ST-Developer
 * from STEP Tools, Inc. (www.steptools.com) 
 */

FILE_DESCRIPTION(
/* description */ (''),
/* implementation_level */ '2;1');

FILE_NAME(
/* name */ '',
/* time_stamp */ '2026-04-16T01:31:46+02:00',
/* author */ (''),
/* organization */ (''),
/* preprocessor_version */ 'ST-DEVELOPER v20.1',
/* originating_system */ 'Autodesk Translation Framework v15.8.0.0',
/* authorisation */ '');

FILE_SCHEMA (('AUTOMOTIVE_DESIGN { 1 0 10303 214 3 1 1 }'));
ENDSEC;

DATA;
#10=MECHANICAL_DESIGN_GEOMETRIC_PRESENTATION_REPRESENTATION('',(#13),#266);
#11=SHAPE_REPRESENTATION_RELATIONSHIP('SRR','None',#273,#12);
#12=ADVANCED_BREP_SHAPE_REPRESENTATION('',(#14),#265);
#13=STYLED_ITEM('',(#282),#14);
#14=MANIFOLD_SOLID_BREP('Ty\X2\010D\X0\ nosn\X\E1',#142);
#15=LINE('',#238,#20);
#16=LINE('',#241,#21);
#17=LINE('',#252,#22);
#18=LINE('',#256,#23);
#19=LINE('',#261,#24);
#20=VECTOR('',#193,7.60000000000002);
#21=VECTOR('',#196,8.00000000000001);
#22=VECTOR('',#211,7.60000000000002);
#23=VECTOR('',#216,8.00000000000001);
#24=VECTOR('',#223,8.00000000000001);
#25=CYLINDRICAL_SURFACE('',#162,7.60000000000002);
#26=CYLINDRICAL_SURFACE('',#163,8.00000000000001);
#27=CYLINDRICAL_SURFACE('',#170,7.60000000000002);
#28=CYLINDRICAL_SURFACE('',#171,8.00000000000001);
#29=CYLINDRICAL_SURFACE('',#175,8.00000000000001);
#30=FACE_BOUND('',#46,.T.);
#31=FACE_BOUND('',#48,.T.);
#32=FACE_BOUND('',#52,.T.);
#33=FACE_BOUND('',#54,.T.);
#34=FACE_OUTER_BOUND('',#45,.T.);
#35=FACE_OUTER_BOUND('',#47,.T.);
#36=FACE_OUTER_BOUND('',#49,.T.);
#37=FACE_OUTER_BOUND('',#50,.T.);
#38=FACE_OUTER_BOUND('',#51,.T.);
#39=FACE_OUTER_BOUND('',#53,.T.);
#40=FACE_OUTER_BOUND('',#55,.T.);
#41=FACE_OUTER_BOUND('',#56,.T.);
#42=FACE_OUTER_BOUND('',#57,.T.);
#43=FACE_OUTER_BOUND('',#58,.T.);
#44=FACE_OUTER_BOUND('',#59,.T.);
#45=EDGE_LOOP('',(#95));
#46=EDGE_LOOP('',(#96));
#47=EDGE_LOOP('',(#97));
#48=EDGE_LOOP('',(#98));
#49=EDGE_LOOP('',(#99,#100,#101,#102));
#50=EDGE_LOOP('',(#103,#104,#105,#106));
#51=EDGE_LOOP('',(#107));
#52=EDGE_LOOP('',(#108));
#53=EDGE_LOOP('',(#109));
#54=EDGE_LOOP('',(#110));
#55=EDGE_LOOP('',(#111,#112,#113,#114));
#56=EDGE_LOOP('',(#115,#116,#117,#118));
#57=EDGE_LOOP('',(#119));
#58=EDGE_LOOP('',(#120,#121,#122,#123));
#59=EDGE_LOOP('',(#124));
#60=CIRCLE('',#157,8.00000000000001);
#61=CIRCLE('',#158,7.60000000000002);
#62=CIRCLE('',#160,8.00000000000001);
#63=CIRCLE('',#161,7.60000000000002);
#64=CIRCLE('',#164,8.00000000000001);
#65=CIRCLE('',#166,8.00000000000001);
#66=CIRCLE('',#167,7.60000000000002);
#67=CIRCLE('',#169,7.60000000000002);
#68=CIRCLE('',#172,8.00000000000001);
#69=CIRCLE('',#174,8.00000000000001);
#70=VERTEX_POINT('',#228);
#71=VERTEX_POINT('',#230);
#72=VERTEX_POINT('',#233);
#73=VERTEX_POINT('',#235);
#74=VERTEX_POINT('',#240);
#75=VERTEX_POINT('',#244);
#76=VERTEX_POINT('',#246);
#77=VERTEX_POINT('',#249);
#78=VERTEX_POINT('',#254);
#79=VERTEX_POINT('',#258);
#80=EDGE_CURVE('',#70,#70,#60,.T.);
#81=EDGE_CURVE('',#71,#71,#61,.T.);
#82=EDGE_CURVE('',#72,#72,#62,.T.);
#83=EDGE_CURVE('',#73,#73,#63,.T.);
#84=EDGE_CURVE('',#71,#73,#15,.T.);
#85=EDGE_CURVE('',#72,#74,#16,.T.);
#86=EDGE_CURVE('',#74,#74,#64,.T.);
#87=EDGE_CURVE('',#75,#75,#65,.T.);
#88=EDGE_CURVE('',#76,#76,#66,.T.);
#89=EDGE_CURVE('',#77,#77,#67,.T.);
#90=EDGE_CURVE('',#76,#77,#17,.T.);
#91=EDGE_CURVE('',#78,#78,#68,.T.);
#92=EDGE_CURVE('',#78,#70,#18,.T.);
#93=EDGE_CURVE('',#79,#79,#69,.T.);
#94=EDGE_CURVE('',#75,#79,#19,.T.);
#95=ORIENTED_EDGE('',*,*,#80,.F.);
#96=ORIENTED_EDGE('',*,*,#81,.T.);
#97=ORIENTED_EDGE('',*,*,#82,.F.);
#98=ORIENTED_EDGE('',*,*,#83,.F.);
#99=ORIENTED_EDGE('',*,*,#81,.F.);
#100=ORIENTED_EDGE('',*,*,#84,.T.);
#101=ORIENTED_EDGE('',*,*,#83,.T.);
#102=ORIENTED_EDGE('',*,*,#84,.F.);
#103=ORIENTED_EDGE('',*,*,#82,.T.);
#104=ORIENTED_EDGE('',*,*,#85,.T.);
#105=ORIENTED_EDGE('',*,*,#86,.T.);
#106=ORIENTED_EDGE('',*,*,#85,.F.);
#107=ORIENTED_EDGE('',*,*,#87,.F.);
#108=ORIENTED_EDGE('',*,*,#88,.F.);
#109=ORIENTED_EDGE('',*,*,#86,.F.);
#110=ORIENTED_EDGE('',*,*,#89,.T.);
#111=ORIENTED_EDGE('',*,*,#88,.T.);
#112=ORIENTED_EDGE('',*,*,#90,.T.);
#113=ORIENTED_EDGE('',*,*,#89,.F.);
#114=ORIENTED_EDGE('',*,*,#90,.F.);
#115=ORIENTED_EDGE('',*,*,#91,.F.);
#116=ORIENTED_EDGE('',*,*,#92,.T.);
#117=ORIENTED_EDGE('',*,*,#80,.T.);
#118=ORIENTED_EDGE('',*,*,#92,.F.);
#119=ORIENTED_EDGE('',*,*,#93,.T.);
#120=ORIENTED_EDGE('',*,*,#87,.T.);
#121=ORIENTED_EDGE('',*,*,#94,.T.);
#122=ORIENTED_EDGE('',*,*,#93,.F.);
#123=ORIENTED_EDGE('',*,*,#94,.F.);
#124=ORIENTED_EDGE('',*,*,#91,.T.);
#125=PLANE('',#156);
#126=PLANE('',#159);
#127=PLANE('',#165);
#128=PLANE('',#168);
#129=PLANE('',#173);
#130=PLANE('',#176);
#131=ADVANCED_FACE('',(#34,#30),#125,.T.);
#132=ADVANCED_FACE('',(#35,#31),#126,.T.);
#133=ADVANCED_FACE('',(#36),#25,.T.);
#134=ADVANCED_FACE('',(#37),#26,.T.);
#135=ADVANCED_FACE('',(#38,#32),#127,.F.);
#136=ADVANCED_FACE('',(#39,#33),#128,.F.);
#137=ADVANCED_FACE('',(#40),#27,.T.);
#138=ADVANCED_FACE('',(#41),#28,.T.);
#139=ADVANCED_FACE('',(#42),#129,.F.);
#140=ADVANCED_FACE('',(#43),#29,.T.);
#141=ADVANCED_FACE('',(#44),#130,.T.);
#142=CLOSED_SHELL('',(#131,#132,#133,#134,#135,#136,#137,#138,#139,#140,
#141));
#143=DERIVED_UNIT_ELEMENT(#145,1.);
#144=DERIVED_UNIT_ELEMENT(#268,-3.);
#145=(
MASS_UNIT()
NAMED_UNIT(*)
SI_UNIT(.KILO.,.GRAM.)
);
#146=DERIVED_UNIT((#143,#144));
#147=MEASURE_REPRESENTATION_ITEM('density measure',
POSITIVE_RATIO_MEASURE(7850.),#146);
#148=PROPERTY_DEFINITION_REPRESENTATION(#153,#150);
#149=PROPERTY_DEFINITION_REPRESENTATION(#154,#151);
#150=REPRESENTATION('material name',(#152),#265);
#151=REPRESENTATION('density',(#147),#265);
#152=DESCRIPTIVE_REPRESENTATION_ITEM('Ocel','Ocel');
#153=PROPERTY_DEFINITION('material property','material name',#275);
#154=PROPERTY_DEFINITION('material property','density of part',#275);
#155=AXIS2_PLACEMENT_3D('',#226,#177,#178);
#156=AXIS2_PLACEMENT_3D('',#227,#179,#180);
#157=AXIS2_PLACEMENT_3D('',#229,#181,#182);
#158=AXIS2_PLACEMENT_3D('',#231,#183,#184);
#159=AXIS2_PLACEMENT_3D('',#232,#185,#186);
#160=AXIS2_PLACEMENT_3D('',#234,#187,#188);
#161=AXIS2_PLACEMENT_3D('',#236,#189,#190);
#162=AXIS2_PLACEMENT_3D('',#237,#191,#192);
#163=AXIS2_PLACEMENT_3D('',#239,#194,#195);
#164=AXIS2_PLACEMENT_3D('',#242,#197,#198);
#165=AXIS2_PLACEMENT_3D('',#243,#199,#200);
#166=AXIS2_PLACEMENT_3D('',#245,#201,#202);
#167=AXIS2_PLACEMENT_3D('',#247,#203,#204);
#168=AXIS2_PLACEMENT_3D('',#248,#205,#206);
#169=AXIS2_PLACEMENT_3D('',#250,#207,#208);
#170=AXIS2_PLACEMENT_3D('',#251,#209,#210);
#171=AXIS2_PLACEMENT_3D('',#253,#212,#213);
#172=AXIS2_PLACEMENT_3D('',#255,#214,#215);
#173=AXIS2_PLACEMENT_3D('',#257,#217,#218);
#174=AXIS2_PLACEMENT_3D('',#259,#219,#220);
#175=AXIS2_PLACEMENT_3D('',#260,#221,#222);
#176=AXIS2_PLACEMENT_3D('',#262,#224,#225);
#177=DIRECTION('axis',(0.,0.,1.));
#178=DIRECTION('refdir',(1.,0.,0.));
#179=DIRECTION('center_axis',(1.,0.,0.));
#180=DIRECTION('ref_axis',(0.,0.,-1.));
#181=DIRECTION('center_axis',(-1.,0.,0.));
#182=DIRECTION('ref_axis',(0.,-1.,0.));
#183=DIRECTION('center_axis',(-1.,0.,0.));
#184=DIRECTION('ref_axis',(0.,0.,1.));
#185=DIRECTION('center_axis',(-1.,0.,0.));
#186=DIRECTION('ref_axis',(0.,0.,1.));
#187=DIRECTION('center_axis',(1.,0.,0.));
#188=DIRECTION('ref_axis',(0.,-1.,0.));
#189=DIRECTION('center_axis',(-1.,0.,0.));
#190=DIRECTION('ref_axis',(0.,0.,1.));
#191=DIRECTION('center_axis',(-1.,0.,0.));
#192=DIRECTION('ref_axis',(0.,-1.,0.));
#193=DIRECTION('',(1.,0.,0.));
#194=DIRECTION('center_axis',(-1.,0.,0.));
#195=DIRECTION('ref_axis',(0.,-1.,0.));
#196=DIRECTION('',(1.,0.,0.));
#197=DIRECTION('center_axis',(-1.,0.,0.));
#198=DIRECTION('ref_axis',(0.,-1.,0.));
#199=DIRECTION('center_axis',(1.,0.,0.));
#200=DIRECTION('ref_axis',(0.,0.,-1.));
#201=DIRECTION('center_axis',(1.,0.,0.));
#202=DIRECTION('ref_axis',(0.,-1.,0.));
#203=DIRECTION('center_axis',(-1.,0.,0.));
#204=DIRECTION('ref_axis',(0.,0.,1.));
#205=DIRECTION('center_axis',(-1.,0.,0.));
#206=DIRECTION('ref_axis',(0.,0.,1.));
#207=DIRECTION('center_axis',(-1.,0.,0.));
#208=DIRECTION('ref_axis',(0.,0.,1.));
#209=DIRECTION('center_axis',(-1.,0.,0.));
#210=DIRECTION('ref_axis',(0.,-1.,0.));
#211=DIRECTION('',(-1.,0.,0.));
#212=DIRECTION('center_axis',(-1.,0.,0.));
#213=DIRECTION('ref_axis',(0.,-1.,0.));
#214=DIRECTION('center_axis',(-1.,0.,0.));
#215=DIRECTION('ref_axis',(0.,-1.,0.));
#216=DIRECTION('',(1.,0.,0.));
#217=DIRECTION('center_axis',(-1.,0.,0.));
#218=DIRECTION('ref_axis',(0.,-1.,0.));
#219=DIRECTION('center_axis',(1.,0.,0.));
#220=DIRECTION('ref_axis',(0.,-1.,0.));
#221=DIRECTION('center_axis',(-1.,0.,0.));
#222=DIRECTION('ref_axis',(0.,-1.,0.));
#223=DIRECTION('',(1.,0.,0.));
#224=DIRECTION('center_axis',(-1.,0.,0.));
#225=DIRECTION('ref_axis',(0.,-1.,0.));
#226=CARTESIAN_POINT('',(0.,0.,0.));
#227=CARTESIAN_POINT('Origin',(-151.6,137.5,92.));
#228=CARTESIAN_POINT('',(-151.6,153.5,92.));
#229=CARTESIAN_POINT('Origin',(-151.6,145.5,92.));
#230=CARTESIAN_POINT('',(-151.6,153.1,92.));
#231=CARTESIAN_POINT('Origin',(-151.6,145.5,92.));
#232=CARTESIAN_POINT('Origin',(-150.5,137.9,92.));
#233=CARTESIAN_POINT('',(-150.5,153.5,92.));
#234=CARTESIAN_POINT('Origin',(-150.5,145.5,92.));
#235=CARTESIAN_POINT('',(-150.5,153.1,92.));
#236=CARTESIAN_POINT('Origin',(-150.5,145.5,92.));
#237=CARTESIAN_POINT('Origin',(-151.05,145.5,92.));
#238=CARTESIAN_POINT('',(-151.05,153.1,92.));
#239=CARTESIAN_POINT('Origin',(150.,145.5,92.));
#240=CARTESIAN_POINT('',(150.5,153.5,92.));
#241=CARTESIAN_POINT('',(150.,153.5,92.));
#242=CARTESIAN_POINT('Origin',(150.5,145.5,92.));
#243=CARTESIAN_POINT('Origin',(151.6,137.5,92.));
#244=CARTESIAN_POINT('',(151.6,153.5,92.));
#245=CARTESIAN_POINT('Origin',(151.6,145.5,92.));
#246=CARTESIAN_POINT('',(151.6,153.1,92.));
#247=CARTESIAN_POINT('Origin',(151.6,145.5,92.));
#248=CARTESIAN_POINT('Origin',(150.5,137.9,92.));
#249=CARTESIAN_POINT('',(150.5,153.1,92.));
#250=CARTESIAN_POINT('Origin',(150.5,145.5,92.));
#251=CARTESIAN_POINT('Origin',(151.05,145.5,92.));
#252=CARTESIAN_POINT('',(151.05,153.1,92.));
#253=CARTESIAN_POINT('Origin',(150.,145.5,92.));
#254=CARTESIAN_POINT('',(-155.,153.5,92.));
#255=CARTESIAN_POINT('Origin',(-155.,145.5,92.));
#256=CARTESIAN_POINT('',(150.,153.5,92.));
#257=CARTESIAN_POINT('Origin',(155.,145.5,92.));
#258=CARTESIAN_POINT('',(155.,153.5,92.));
#259=CARTESIAN_POINT('Origin',(155.,145.5,92.));
#260=CARTESIAN_POINT('Origin',(150.,145.5,92.));
#261=CARTESIAN_POINT('',(150.,153.5,92.));
#262=CARTESIAN_POINT('Origin',(-155.,145.5,92.));
#263=UNCERTAINTY_MEASURE_WITH_UNIT(LENGTH_MEASURE(0.01),#267,
'DISTANCE_ACCURACY_VALUE',
'Maximum model space distance between geometric entities at asserted c
onnectivities');
#264=UNCERTAINTY_MEASURE_WITH_UNIT(LENGTH_MEASURE(0.01),#267,
'DISTANCE_ACCURACY_VALUE',
'Maximum model space distance between geometric entities at asserted c
onnectivities');
#265=(
GEOMETRIC_REPRESENTATION_CONTEXT(3)
GLOBAL_UNCERTAINTY_ASSIGNED_CONTEXT((#263))
GLOBAL_UNIT_ASSIGNED_CONTEXT((#267,#269,#270))
REPRESENTATION_CONTEXT('','3D')
);
#266=(
GEOMETRIC_REPRESENTATION_CONTEXT(3)
GLOBAL_UNCERTAINTY_ASSIGNED_CONTEXT((#264))
GLOBAL_UNIT_ASSIGNED_CONTEXT((#267,#269,#270))
REPRESENTATION_CONTEXT('','3D')
);
#267=(
LENGTH_UNIT()
NAMED_UNIT(*)
SI_UNIT(.MILLI.,.METRE.)
);
#268=(
LENGTH_UNIT()
NAMED_UNIT(*)
SI_UNIT($,.METRE.)
);
#269=(
NAMED_UNIT(*)
PLANE_ANGLE_UNIT()
SI_UNIT($,.RADIAN.)
);
#270=(
NAMED_UNIT(*)
SI_UNIT($,.STERADIAN.)
SOLID_ANGLE_UNIT()
);
#271=SHAPE_DEFINITION_REPRESENTATION(#272,#273);
#272=PRODUCT_DEFINITION_SHAPE('',$,#275);
#273=SHAPE_REPRESENTATION('',(#155),#265);
#274=PRODUCT_DEFINITION_CONTEXT('part definition',#279,'design');
#275=PRODUCT_DEFINITION('2026-04-16-01-31-46-781','Ty\X2\010D\X0\ nosn
\X\E1',#276,#274);
#276=PRODUCT_DEFINITION_FORMATION('',$,#281);
#277=PRODUCT_RELATED_PRODUCT_CATEGORY('Ty\X2\010D\X0\ nosn\X\E1',
'Ty\X2\010D\X0\ nosn\X\E1',(#281));
#278=APPLICATION_PROTOCOL_DEFINITION('international standard',
'automotive_design',2009,#279);
#279=APPLICATION_CONTEXT(
'Core Data for Automotive Mechanical Design Process');
#280=PRODUCT_CONTEXT('part definition',#279,'mechanical');
#281=PRODUCT('2026-04-16-01-31-46-781','Ty\X2\010D\X0\ nosn\X\E1',$,(#280));
#282=PRESENTATION_STYLE_ASSIGNMENT((#283));
#283=SURFACE_STYLE_USAGE(.BOTH.,#284);
#284=SURFACE_SIDE_STYLE('',(#285));
#285=SURFACE_STYLE_FILL_AREA(#286);
#286=FILL_AREA_STYLE('Ocel \X2\2013\X0\ sat\X\E9n',(#287));
#287=FILL_AREA_STYLE_COLOUR('Ocel \X2\2013\X0\ sat\X\E9n',#288);
#288=COLOUR_RGB('Ocel \X2\2013\X0\ sat\X\E9n',0.627450980392157,0.627450980392157,
0.627450980392157);
ENDSEC;
END-ISO-10303-21;
