ISO-10303-21;
HEADER;
/* Generated by software containing ST-Developer
 * from STEP Tools, Inc. (www.steptools.com) 
 */

FILE_DESCRIPTION(
/* description */ (''),
/* implementation_level */ '2;1');

FILE_NAME(
/* name */ 'kus horn.step',
/* time_stamp */ '2026-04-07T02:00:13+02:00',
/* author */ (''),
/* organization */ (''),
/* preprocessor_version */ 'ST-DEVELOPER v20.1',
/* originating_system */ 'Autodesk Translation Framework v14.24.0.0',
/* authorisation */ '');

FILE_SCHEMA (('AUTOMOTIVE_DESIGN { 1 0 10303 214 3 1 1 }'));
ENDSEC;

DATA;
#10=MECHANICAL_DESIGN_GEOMETRIC_PRESENTATION_REPRESENTATION('',(#13),#846);
#11=SHAPE_REPRESENTATION_RELATIONSHIP('SRR','None',#853,#12);
#12=ADVANCED_BREP_SHAPE_REPRESENTATION('',(#14),#845);
#13=STYLED_ITEM('',(#862),#14);
#14=MANIFOLD_SOLID_BREP('T\X2\011B\X0\leso1',#456);
#15=FACE_BOUND('',#155,.T.);
#16=FACE_BOUND('',#156,.T.);
#17=FACE_BOUND('',#168,.T.);
#18=FACE_BOUND('',#173,.T.);
#19=CYLINDRICAL_SURFACE('',#477,9.);
#20=CYLINDRICAL_SURFACE('',#507,3.38975);
#21=CYLINDRICAL_SURFACE('',#508,3.38975);
#22=LINE('',#648,#63);
#23=LINE('',#650,#64);
#24=LINE('',#651,#65);
#25=LINE('',#654,#66);
#26=LINE('',#656,#67);
#27=LINE('',#657,#68);
#28=LINE('',#659,#69);
#29=LINE('',#660,#70);
#30=LINE('',#663,#71);
#31=LINE('',#665,#72);
#32=LINE('',#666,#73);
#33=LINE('',#672,#74);
#34=LINE('',#676,#75);
#35=LINE('',#680,#76);
#36=LINE('',#684,#77);
#37=LINE('',#688,#78);
#38=LINE('',#692,#79);
#39=LINE('',#695,#80);
#40=LINE('',#699,#81);
#41=LINE('',#784,#82);
#42=LINE('',#786,#83);
#43=LINE('',#787,#84);
#44=LINE('',#794,#85);
#45=LINE('',#796,#86);
#46=LINE('',#797,#87);
#47=LINE('',#806,#88);
#48=LINE('',#807,#89);
#49=LINE('',#810,#90);
#50=LINE('',#811,#91);
#51=LINE('',#815,#92);
#52=LINE('',#816,#93);
#53=LINE('',#818,#94);
#54=LINE('',#820,#95);
#55=LINE('',#822,#96);
#56=LINE('',#826,#97);
#57=LINE('',#829,#98);
#58=LINE('',#830,#99);
#59=LINE('',#832,#100);
#60=LINE('',#834,#101);
#61=LINE('',#840,#102);
#62=LINE('',#842,#103);
#63=VECTOR('',#519,10.);
#64=VECTOR('',#520,10.);
#65=VECTOR('',#521,10.);
#66=VECTOR('',#524,10.);
#67=VECTOR('',#525,10.);
#68=VECTOR('',#526,10.);
#69=VECTOR('',#529,10.);
#70=VECTOR('',#530,10.);
#71=VECTOR('',#533,10.);
#72=VECTOR('',#534,10.);
#73=VECTOR('',#535,10.);
#74=VECTOR('',#540,10.);
#75=VECTOR('',#543,10.);
#76=VECTOR('',#546,10.);
#77=VECTOR('',#549,9.);
#78=VECTOR('',#552,10.);
#79=VECTOR('',#555,10.);
#80=VECTOR('',#558,10.);
#81=VECTOR('',#563,10.);
#82=VECTOR('',#568,10.);
#83=VECTOR('',#569,10.);
#84=VECTOR('',#570,10.);
#85=VECTOR('',#573,10.);
#86=VECTOR('',#574,10.);
#87=VECTOR('',#575,10.);
#88=VECTOR('',#582,10.);
#89=VECTOR('',#583,10.);
#90=VECTOR('',#586,10.);
#91=VECTOR('',#587,10.);
#92=VECTOR('',#592,10.);
#93=VECTOR('',#593,10.);
#94=VECTOR('',#596,10.);
#95=VECTOR('',#599,10.);
#96=VECTOR('',#602,10.);
#97=VECTOR('',#607,10.);
#98=VECTOR('',#610,10.);
#99=VECTOR('',#611,10.);
#100=VECTOR('',#614,10.);
#101=VECTOR('',#617,10.);
#102=VECTOR('',#626,3.39);
#103=VECTOR('',#629,3.39);
#104=PLANE('',#473);
#105=PLANE('',#474);
#106=PLANE('',#475);
#107=PLANE('',#476);
#108=PLANE('',#487);
#109=PLANE('',#488);
#110=PLANE('',#489);
#111=PLANE('',#492);
#112=PLANE('',#493);
#113=PLANE('',#494);
#114=PLANE('',#495);
#115=PLANE('',#496);
#116=PLANE('',#497);
#117=PLANE('',#498);
#118=PLANE('',#500);
#119=PLANE('',#501);
#120=PLANE('',#502);
#121=PLANE('',#503);
#122=PLANE('',#505);
#123=PLANE('',#506);
#124=FACE_OUTER_BOUND('',#149,.T.);
#125=FACE_OUTER_BOUND('',#150,.T.);
#126=FACE_OUTER_BOUND('',#151,.T.);
#127=FACE_OUTER_BOUND('',#152,.T.);
#128=FACE_OUTER_BOUND('',#153,.T.);
#129=FACE_OUTER_BOUND('',#154,.T.);
#130=FACE_OUTER_BOUND('',#157,.T.);
#131=FACE_OUTER_BOUND('',#158,.T.);
#132=FACE_OUTER_BOUND('',#159,.T.);
#133=FACE_OUTER_BOUND('',#160,.T.);
#134=FACE_OUTER_BOUND('',#161,.T.);
#135=FACE_OUTER_BOUND('',#162,.T.);
#136=FACE_OUTER_BOUND('',#163,.T.);
#137=FACE_OUTER_BOUND('',#164,.T.);
#138=FACE_OUTER_BOUND('',#165,.T.);
#139=FACE_OUTER_BOUND('',#166,.T.);
#140=FACE_OUTER_BOUND('',#167,.T.);
#141=FACE_OUTER_BOUND('',#169,.T.);
#142=FACE_OUTER_BOUND('',#170,.T.);
#143=FACE_OUTER_BOUND('',#171,.T.);
#144=FACE_OUTER_BOUND('',#172,.T.);
#145=FACE_OUTER_BOUND('',#174,.T.);
#146=FACE_OUTER_BOUND('',#175,.T.);
#147=FACE_OUTER_BOUND('',#176,.T.);
#148=FACE_OUTER_BOUND('',#177,.T.);
#149=EDGE_LOOP('',(#303,#304,#305,#306));
#150=EDGE_LOOP('',(#307,#308,#309,#310));
#151=EDGE_LOOP('',(#311,#312,#313,#314));
#152=EDGE_LOOP('',(#315,#316,#317,#318));
#153=EDGE_LOOP('',(#319,#320,#321,#322));
#154=EDGE_LOOP('',(#323,#324,#325,#326,#327,#328,#329,#330,#331,#332,#333,
#334,#335,#336,#337,#338,#339,#340,#341,#342));
#155=EDGE_LOOP('',(#343,#344));
#156=EDGE_LOOP('',(#345,#346));
#157=EDGE_LOOP('',(#347,#348,#349,#350));
#158=EDGE_LOOP('',(#351,#352,#353,#354));
#159=EDGE_LOOP('',(#355,#356,#357,#358));
#160=EDGE_LOOP('',(#359,#360,#361,#362));
#161=EDGE_LOOP('',(#363,#364,#365,#366));
#162=EDGE_LOOP('',(#367,#368,#369,#370));
#163=EDGE_LOOP('',(#371,#372,#373,#374));
#164=EDGE_LOOP('',(#375,#376,#377,#378));
#165=EDGE_LOOP('',(#379,#380,#381,#382));
#166=EDGE_LOOP('',(#383,#384,#385));
#167=EDGE_LOOP('',(#386,#387,#388,#389,#390,#391,#392,#393));
#168=EDGE_LOOP('',(#394));
#169=EDGE_LOOP('',(#395,#396,#397));
#170=EDGE_LOOP('',(#398,#399,#400,#401));
#171=EDGE_LOOP('',(#402,#403,#404,#405));
#172=EDGE_LOOP('',(#406,#407,#408,#409,#410,#411,#412,#413));
#173=EDGE_LOOP('',(#414));
#174=EDGE_LOOP('',(#415,#416));
#175=EDGE_LOOP('',(#417,#418));
#176=EDGE_LOOP('',(#419,#420,#421,#422,#423));
#177=EDGE_LOOP('',(#424,#425,#426,#427,#428));
#178=B_SPLINE_CURVE_WITH_KNOTS('',3,(#636,#637,#638,#639),.UNSPECIFIED.,
 .F.,.F.,(4,4),(0.,0.155264177780078),.UNSPECIFIED.);
#179=B_SPLINE_CURVE_WITH_KNOTS('',3,(#642,#643,#644,#645),.UNSPECIFIED.,
 .F.,.F.,(4,4),(0.,0.155268831485133),.UNSPECIFIED.);
#180=B_SPLINE_CURVE_WITH_KNOTS('',3,(#702,#703,#704,#705,#706,#707,#708,
#709,#710,#711,#712,#713,#714,#715,#716,#717,#718,#719,#720),
 .UNSPECIFIED.,.F.,.F.,(4,2,2,2,3,2,2,2,4),(1.5489512100968,1.67798010146114,
1.80700899282548,1.93613863647727,2.06526828012906,2.19439792378085,2.32352756743265,
2.45255645879699,2.58158535016133),.UNSPECIFIED.);
#181=B_SPLINE_CURVE_WITH_KNOTS('',3,(#721,#722,#723,#724,#725,#726,#727,
#728,#729,#730,#731,#732,#733,#734,#735,#736,#737,#738,#739),
 .UNSPECIFIED.,.F.,.F.,(4,2,2,2,3,2,2,2,4),(1.5489512100968,1.67798010146114,
1.80700899282548,1.93613863647727,2.06526828012906,2.19439792378085,2.32352756743265,
2.45255645879699,2.58158535016133),.UNSPECIFIED.);
#182=B_SPLINE_CURVE_WITH_KNOTS('',3,(#742,#743,#744,#745,#746,#747,#748,
#749,#750,#751,#752,#753,#754,#755,#756,#757,#758,#759,#760),
 .UNSPECIFIED.,.F.,.F.,(4,2,2,2,3,2,2,2,4),(1.5489512100968,1.67798010146114,
1.80700899282548,1.93613863647727,2.06526828012906,2.19439792378085,2.32352756743265,
2.45255645879699,2.58158535016133),.UNSPECIFIED.);
#183=B_SPLINE_CURVE_WITH_KNOTS('',3,(#761,#762,#763,#764,#765,#766,#767,
#768,#769,#770,#771,#772,#773,#774,#775,#776,#777,#778,#779),
 .UNSPECIFIED.,.F.,.F.,(4,2,2,2,3,2,2,2,4),(1.5489512100968,1.67798010146114,
1.80700899282548,1.93613863647727,2.06526828012906,2.19439792378085,2.32352756743265,
2.45255645879699,2.58158535016133),.UNSPECIFIED.);
#184=B_SPLINE_CURVE_WITH_KNOTS('',3,(#788,#789,#790,#791),.UNSPECIFIED.,
 .F.,.F.,(4,4),(0.,0.155264177780306),.UNSPECIFIED.);
#185=B_SPLINE_CURVE_WITH_KNOTS('',3,(#801,#802,#803,#804),.UNSPECIFIED.,
 .F.,.F.,(4,4),(0.,0.15526417778023),.UNSPECIFIED.);
#186=CIRCLE('',#471,9.);
#187=CIRCLE('',#472,8.);
#188=CIRCLE('',#478,9.);
#189=CIRCLE('',#479,9.);
#190=CIRCLE('',#480,9.);
#191=CIRCLE('',#481,9.);
#192=CIRCLE('',#482,9.);
#193=CIRCLE('',#483,9.);
#194=CIRCLE('',#484,9.);
#195=CIRCLE('',#485,9.);
#196=CIRCLE('',#486,9.);
#197=CIRCLE('',#491,8.);
#198=CIRCLE('',#499,3.38975);
#199=CIRCLE('',#504,3.38975);
#200=VERTEX_POINT('',#632);
#201=VERTEX_POINT('',#633);
#202=VERTEX_POINT('',#635);
#203=VERTEX_POINT('',#640);
#204=VERTEX_POINT('',#647);
#205=VERTEX_POINT('',#649);
#206=VERTEX_POINT('',#653);
#207=VERTEX_POINT('',#655);
#208=VERTEX_POINT('',#662);
#209=VERTEX_POINT('',#664);
#210=VERTEX_POINT('',#668);
#211=VERTEX_POINT('',#669);
#212=VERTEX_POINT('',#671);
#213=VERTEX_POINT('',#673);
#214=VERTEX_POINT('',#675);
#215=VERTEX_POINT('',#677);
#216=VERTEX_POINT('',#679);
#217=VERTEX_POINT('',#681);
#218=VERTEX_POINT('',#683);
#219=VERTEX_POINT('',#685);
#220=VERTEX_POINT('',#687);
#221=VERTEX_POINT('',#689);
#222=VERTEX_POINT('',#691);
#223=VERTEX_POINT('',#694);
#224=VERTEX_POINT('',#697);
#225=VERTEX_POINT('',#700);
#226=VERTEX_POINT('',#701);
#227=VERTEX_POINT('',#740);
#228=VERTEX_POINT('',#741);
#229=VERTEX_POINT('',#782);
#230=VERTEX_POINT('',#783);
#231=VERTEX_POINT('',#785);
#232=VERTEX_POINT('',#793);
#233=VERTEX_POINT('',#795);
#234=VERTEX_POINT('',#799);
#235=VERTEX_POINT('',#809);
#236=VERTEX_POINT('',#814);
#237=VERTEX_POINT('',#823);
#238=VERTEX_POINT('',#828);
#239=VERTEX_POINT('',#835);
#240=EDGE_CURVE('',#200,#201,#186,.T.);
#241=EDGE_CURVE('',#201,#202,#178,.T.);
#242=EDGE_CURVE('',#202,#203,#187,.T.);
#243=EDGE_CURVE('',#203,#200,#179,.T.);
#244=EDGE_CURVE('',#203,#204,#22,.T.);
#245=EDGE_CURVE('',#204,#205,#23,.T.);
#246=EDGE_CURVE('',#205,#200,#24,.T.);
#247=EDGE_CURVE('',#204,#206,#25,.T.);
#248=EDGE_CURVE('',#206,#207,#26,.T.);
#249=EDGE_CURVE('',#207,#205,#27,.T.);
#250=EDGE_CURVE('',#201,#207,#28,.T.);
#251=EDGE_CURVE('',#206,#202,#29,.T.);
#252=EDGE_CURVE('',#208,#201,#30,.T.);
#253=EDGE_CURVE('',#209,#208,#31,.T.);
#254=EDGE_CURVE('',#207,#209,#32,.T.);
#255=EDGE_CURVE('',#210,#211,#188,.T.);
#256=EDGE_CURVE('',#210,#212,#33,.T.);
#257=EDGE_CURVE('',#212,#213,#189,.T.);
#258=EDGE_CURVE('',#213,#214,#34,.T.);
#259=EDGE_CURVE('',#214,#215,#190,.T.);
#260=EDGE_CURVE('',#215,#216,#35,.T.);
#261=EDGE_CURVE('',#216,#217,#191,.T.);
#262=EDGE_CURVE('',#217,#218,#36,.T.);
#263=EDGE_CURVE('',#218,#219,#192,.T.);
#264=EDGE_CURVE('',#219,#220,#37,.T.);
#265=EDGE_CURVE('',#220,#221,#193,.T.);
#266=EDGE_CURVE('',#221,#222,#38,.T.);
#267=EDGE_CURVE('',#222,#208,#194,.T.);
#268=EDGE_CURVE('',#200,#223,#39,.T.);
#269=EDGE_CURVE('',#223,#218,#195,.T.);
#270=EDGE_CURVE('',#217,#224,#196,.T.);
#271=EDGE_CURVE('',#224,#211,#40,.T.);
#272=EDGE_CURVE('',#225,#226,#180,.T.);
#273=EDGE_CURVE('',#226,#225,#181,.T.);
#274=EDGE_CURVE('',#227,#228,#182,.T.);
#275=EDGE_CURVE('',#228,#227,#183,.T.);
#276=EDGE_CURVE('',#229,#230,#41,.T.);
#277=EDGE_CURVE('',#230,#231,#42,.T.);
#278=EDGE_CURVE('',#231,#210,#43,.T.);
#279=EDGE_CURVE('',#210,#229,#184,.T.);
#280=EDGE_CURVE('',#232,#231,#44,.T.);
#281=EDGE_CURVE('',#230,#233,#45,.T.);
#282=EDGE_CURVE('',#233,#232,#46,.T.);
#283=EDGE_CURVE('',#234,#229,#197,.T.);
#284=EDGE_CURVE('',#211,#234,#185,.T.);
#285=EDGE_CURVE('',#233,#234,#47,.T.);
#286=EDGE_CURVE('',#211,#232,#48,.T.);
#287=EDGE_CURVE('',#235,#231,#49,.T.);
#288=EDGE_CURVE('',#235,#212,#50,.T.);
#289=EDGE_CURVE('',#236,#205,#51,.T.);
#290=EDGE_CURVE('',#223,#236,#52,.T.);
#291=EDGE_CURVE('',#219,#236,#53,.T.);
#292=EDGE_CURVE('',#209,#222,#54,.T.);
#293=EDGE_CURVE('',#220,#221,#55,.T.);
#294=EDGE_CURVE('',#237,#237,#198,.T.);
#295=EDGE_CURVE('',#213,#235,#56,.T.);
#296=EDGE_CURVE('',#224,#238,#57,.T.);
#297=EDGE_CURVE('',#232,#238,#58,.T.);
#298=EDGE_CURVE('',#238,#216,#59,.T.);
#299=EDGE_CURVE('',#215,#214,#60,.T.);
#300=EDGE_CURVE('',#239,#239,#199,.T.);
#301=EDGE_CURVE('',#239,#226,#61,.T.);
#302=EDGE_CURVE('',#237,#227,#62,.T.);
#303=ORIENTED_EDGE('',*,*,#240,.T.);
#304=ORIENTED_EDGE('',*,*,#241,.T.);
#305=ORIENTED_EDGE('',*,*,#242,.T.);
#306=ORIENTED_EDGE('',*,*,#243,.T.);
#307=ORIENTED_EDGE('',*,*,#244,.T.);
#308=ORIENTED_EDGE('',*,*,#245,.T.);
#309=ORIENTED_EDGE('',*,*,#246,.T.);
#310=ORIENTED_EDGE('',*,*,#243,.F.);
#311=ORIENTED_EDGE('',*,*,#247,.T.);
#312=ORIENTED_EDGE('',*,*,#248,.T.);
#313=ORIENTED_EDGE('',*,*,#249,.T.);
#314=ORIENTED_EDGE('',*,*,#245,.F.);
#315=ORIENTED_EDGE('',*,*,#250,.T.);
#316=ORIENTED_EDGE('',*,*,#248,.F.);
#317=ORIENTED_EDGE('',*,*,#251,.T.);
#318=ORIENTED_EDGE('',*,*,#241,.F.);
#319=ORIENTED_EDGE('',*,*,#250,.F.);
#320=ORIENTED_EDGE('',*,*,#252,.F.);
#321=ORIENTED_EDGE('',*,*,#253,.F.);
#322=ORIENTED_EDGE('',*,*,#254,.F.);
#323=ORIENTED_EDGE('',*,*,#255,.F.);
#324=ORIENTED_EDGE('',*,*,#256,.T.);
#325=ORIENTED_EDGE('',*,*,#257,.T.);
#326=ORIENTED_EDGE('',*,*,#258,.T.);
#327=ORIENTED_EDGE('',*,*,#259,.T.);
#328=ORIENTED_EDGE('',*,*,#260,.T.);
#329=ORIENTED_EDGE('',*,*,#261,.T.);
#330=ORIENTED_EDGE('',*,*,#262,.T.);
#331=ORIENTED_EDGE('',*,*,#263,.T.);
#332=ORIENTED_EDGE('',*,*,#264,.T.);
#333=ORIENTED_EDGE('',*,*,#265,.T.);
#334=ORIENTED_EDGE('',*,*,#266,.T.);
#335=ORIENTED_EDGE('',*,*,#267,.T.);
#336=ORIENTED_EDGE('',*,*,#252,.T.);
#337=ORIENTED_EDGE('',*,*,#240,.F.);
#338=ORIENTED_EDGE('',*,*,#268,.T.);
#339=ORIENTED_EDGE('',*,*,#269,.T.);
#340=ORIENTED_EDGE('',*,*,#262,.F.);
#341=ORIENTED_EDGE('',*,*,#270,.T.);
#342=ORIENTED_EDGE('',*,*,#271,.T.);
#343=ORIENTED_EDGE('',*,*,#272,.T.);
#344=ORIENTED_EDGE('',*,*,#273,.T.);
#345=ORIENTED_EDGE('',*,*,#274,.T.);
#346=ORIENTED_EDGE('',*,*,#275,.T.);
#347=ORIENTED_EDGE('',*,*,#242,.F.);
#348=ORIENTED_EDGE('',*,*,#251,.F.);
#349=ORIENTED_EDGE('',*,*,#247,.F.);
#350=ORIENTED_EDGE('',*,*,#244,.F.);
#351=ORIENTED_EDGE('',*,*,#276,.T.);
#352=ORIENTED_EDGE('',*,*,#277,.T.);
#353=ORIENTED_EDGE('',*,*,#278,.T.);
#354=ORIENTED_EDGE('',*,*,#279,.T.);
#355=ORIENTED_EDGE('',*,*,#280,.T.);
#356=ORIENTED_EDGE('',*,*,#277,.F.);
#357=ORIENTED_EDGE('',*,*,#281,.T.);
#358=ORIENTED_EDGE('',*,*,#282,.T.);
#359=ORIENTED_EDGE('',*,*,#283,.T.);
#360=ORIENTED_EDGE('',*,*,#279,.F.);
#361=ORIENTED_EDGE('',*,*,#255,.T.);
#362=ORIENTED_EDGE('',*,*,#284,.T.);
#363=ORIENTED_EDGE('',*,*,#285,.T.);
#364=ORIENTED_EDGE('',*,*,#284,.F.);
#365=ORIENTED_EDGE('',*,*,#286,.T.);
#366=ORIENTED_EDGE('',*,*,#282,.F.);
#367=ORIENTED_EDGE('',*,*,#278,.F.);
#368=ORIENTED_EDGE('',*,*,#287,.F.);
#369=ORIENTED_EDGE('',*,*,#288,.T.);
#370=ORIENTED_EDGE('',*,*,#256,.F.);
#371=ORIENTED_EDGE('',*,*,#276,.F.);
#372=ORIENTED_EDGE('',*,*,#283,.F.);
#373=ORIENTED_EDGE('',*,*,#285,.F.);
#374=ORIENTED_EDGE('',*,*,#281,.F.);
#375=ORIENTED_EDGE('',*,*,#246,.F.);
#376=ORIENTED_EDGE('',*,*,#289,.F.);
#377=ORIENTED_EDGE('',*,*,#290,.F.);
#378=ORIENTED_EDGE('',*,*,#268,.F.);
#379=ORIENTED_EDGE('',*,*,#269,.F.);
#380=ORIENTED_EDGE('',*,*,#290,.T.);
#381=ORIENTED_EDGE('',*,*,#291,.F.);
#382=ORIENTED_EDGE('',*,*,#263,.F.);
#383=ORIENTED_EDGE('',*,*,#292,.F.);
#384=ORIENTED_EDGE('',*,*,#253,.T.);
#385=ORIENTED_EDGE('',*,*,#267,.F.);
#386=ORIENTED_EDGE('',*,*,#249,.F.);
#387=ORIENTED_EDGE('',*,*,#254,.T.);
#388=ORIENTED_EDGE('',*,*,#292,.T.);
#389=ORIENTED_EDGE('',*,*,#266,.F.);
#390=ORIENTED_EDGE('',*,*,#293,.F.);
#391=ORIENTED_EDGE('',*,*,#264,.F.);
#392=ORIENTED_EDGE('',*,*,#291,.T.);
#393=ORIENTED_EDGE('',*,*,#289,.T.);
#394=ORIENTED_EDGE('',*,*,#294,.F.);
#395=ORIENTED_EDGE('',*,*,#295,.F.);
#396=ORIENTED_EDGE('',*,*,#257,.F.);
#397=ORIENTED_EDGE('',*,*,#288,.F.);
#398=ORIENTED_EDGE('',*,*,#286,.F.);
#399=ORIENTED_EDGE('',*,*,#271,.F.);
#400=ORIENTED_EDGE('',*,*,#296,.T.);
#401=ORIENTED_EDGE('',*,*,#297,.F.);
#402=ORIENTED_EDGE('',*,*,#261,.F.);
#403=ORIENTED_EDGE('',*,*,#298,.F.);
#404=ORIENTED_EDGE('',*,*,#296,.F.);
#405=ORIENTED_EDGE('',*,*,#270,.F.);
#406=ORIENTED_EDGE('',*,*,#280,.F.);
#407=ORIENTED_EDGE('',*,*,#297,.T.);
#408=ORIENTED_EDGE('',*,*,#298,.T.);
#409=ORIENTED_EDGE('',*,*,#260,.F.);
#410=ORIENTED_EDGE('',*,*,#299,.T.);
#411=ORIENTED_EDGE('',*,*,#258,.F.);
#412=ORIENTED_EDGE('',*,*,#295,.T.);
#413=ORIENTED_EDGE('',*,*,#287,.T.);
#414=ORIENTED_EDGE('',*,*,#300,.F.);
#415=ORIENTED_EDGE('',*,*,#265,.F.);
#416=ORIENTED_EDGE('',*,*,#293,.T.);
#417=ORIENTED_EDGE('',*,*,#259,.F.);
#418=ORIENTED_EDGE('',*,*,#299,.F.);
#419=ORIENTED_EDGE('',*,*,#300,.T.);
#420=ORIENTED_EDGE('',*,*,#301,.T.);
#421=ORIENTED_EDGE('',*,*,#272,.F.);
#422=ORIENTED_EDGE('',*,*,#273,.F.);
#423=ORIENTED_EDGE('',*,*,#301,.F.);
#424=ORIENTED_EDGE('',*,*,#294,.T.);
#425=ORIENTED_EDGE('',*,*,#302,.T.);
#426=ORIENTED_EDGE('',*,*,#275,.F.);
#427=ORIENTED_EDGE('',*,*,#274,.F.);
#428=ORIENTED_EDGE('',*,*,#302,.F.);
#429=CONICAL_SURFACE('',#470,8.5,0.78539816339745);
#430=CONICAL_SURFACE('',#490,8.5,0.78539816339745);
#431=ADVANCED_FACE('',(#124),#429,.T.);
#432=ADVANCED_FACE('',(#125),#104,.T.);
#433=ADVANCED_FACE('',(#126),#105,.T.);
#434=ADVANCED_FACE('',(#127),#106,.T.);
#435=ADVANCED_FACE('',(#128),#107,.T.);
#436=ADVANCED_FACE('',(#129,#15,#16),#19,.T.);
#437=ADVANCED_FACE('',(#130),#108,.T.);
#438=ADVANCED_FACE('',(#131),#109,.T.);
#439=ADVANCED_FACE('',(#132),#110,.T.);
#440=ADVANCED_FACE('',(#133),#430,.T.);
#441=ADVANCED_FACE('',(#134),#111,.T.);
#442=ADVANCED_FACE('',(#135),#112,.F.);
#443=ADVANCED_FACE('',(#136),#113,.T.);
#444=ADVANCED_FACE('',(#137),#114,.T.);
#445=ADVANCED_FACE('',(#138),#115,.F.);
#446=ADVANCED_FACE('',(#139),#116,.F.);
#447=ADVANCED_FACE('',(#140,#17),#117,.T.);
#448=ADVANCED_FACE('',(#141),#118,.T.);
#449=ADVANCED_FACE('',(#142),#119,.F.);
#450=ADVANCED_FACE('',(#143),#120,.T.);
#451=ADVANCED_FACE('',(#144,#18),#121,.F.);
#452=ADVANCED_FACE('',(#145),#122,.T.);
#453=ADVANCED_FACE('',(#146),#123,.F.);
#454=ADVANCED_FACE('',(#147),#20,.F.);
#455=ADVANCED_FACE('',(#148),#21,.F.);
#456=CLOSED_SHELL('',(#431,#432,#433,#434,#435,#436,#437,#438,#439,#440,
#441,#442,#443,#444,#445,#446,#447,#448,#449,#450,#451,#452,#453,#454,#455));
#457=DERIVED_UNIT_ELEMENT(#459,1.);
#458=DERIVED_UNIT_ELEMENT(#848,-3.);
#459=(
MASS_UNIT()
NAMED_UNIT(*)
SI_UNIT(.KILO.,.GRAM.)
);
#460=DERIVED_UNIT((#457,#458));
#461=MEASURE_REPRESENTATION_ITEM('density measure',
POSITIVE_RATIO_MEASURE(7850.),#460);
#462=PROPERTY_DEFINITION_REPRESENTATION(#467,#464);
#463=PROPERTY_DEFINITION_REPRESENTATION(#468,#465);
#464=REPRESENTATION('material name',(#466),#845);
#465=REPRESENTATION('density',(#461),#845);
#466=DESCRIPTIVE_REPRESENTATION_ITEM('Ocel','Ocel');
#467=PROPERTY_DEFINITION('material property','material name',#855);
#468=PROPERTY_DEFINITION('material property','density of part',#855);
#469=AXIS2_PLACEMENT_3D('',#630,#509,#510);
#470=AXIS2_PLACEMENT_3D('',#631,#511,#512);
#471=AXIS2_PLACEMENT_3D('',#634,#513,#514);
#472=AXIS2_PLACEMENT_3D('',#641,#515,#516);
#473=AXIS2_PLACEMENT_3D('',#646,#517,#518);
#474=AXIS2_PLACEMENT_3D('',#652,#522,#523);
#475=AXIS2_PLACEMENT_3D('',#658,#527,#528);
#476=AXIS2_PLACEMENT_3D('',#661,#531,#532);
#477=AXIS2_PLACEMENT_3D('',#667,#536,#537);
#478=AXIS2_PLACEMENT_3D('',#670,#538,#539);
#479=AXIS2_PLACEMENT_3D('',#674,#541,#542);
#480=AXIS2_PLACEMENT_3D('',#678,#544,#545);
#481=AXIS2_PLACEMENT_3D('',#682,#547,#548);
#482=AXIS2_PLACEMENT_3D('',#686,#550,#551);
#483=AXIS2_PLACEMENT_3D('',#690,#553,#554);
#484=AXIS2_PLACEMENT_3D('',#693,#556,#557);
#485=AXIS2_PLACEMENT_3D('',#696,#559,#560);
#486=AXIS2_PLACEMENT_3D('',#698,#561,#562);
#487=AXIS2_PLACEMENT_3D('',#780,#564,#565);
#488=AXIS2_PLACEMENT_3D('',#781,#566,#567);
#489=AXIS2_PLACEMENT_3D('',#792,#571,#572);
#490=AXIS2_PLACEMENT_3D('',#798,#576,#577);
#491=AXIS2_PLACEMENT_3D('',#800,#578,#579);
#492=AXIS2_PLACEMENT_3D('',#805,#580,#581);
#493=AXIS2_PLACEMENT_3D('',#808,#584,#585);
#494=AXIS2_PLACEMENT_3D('',#812,#588,#589);
#495=AXIS2_PLACEMENT_3D('',#813,#590,#591);
#496=AXIS2_PLACEMENT_3D('',#817,#594,#595);
#497=AXIS2_PLACEMENT_3D('',#819,#597,#598);
#498=AXIS2_PLACEMENT_3D('',#821,#600,#601);
#499=AXIS2_PLACEMENT_3D('',#824,#603,#604);
#500=AXIS2_PLACEMENT_3D('',#825,#605,#606);
#501=AXIS2_PLACEMENT_3D('',#827,#608,#609);
#502=AXIS2_PLACEMENT_3D('',#831,#612,#613);
#503=AXIS2_PLACEMENT_3D('',#833,#615,#616);
#504=AXIS2_PLACEMENT_3D('',#836,#618,#619);
#505=AXIS2_PLACEMENT_3D('',#837,#620,#621);
#506=AXIS2_PLACEMENT_3D('',#838,#622,#623);
#507=AXIS2_PLACEMENT_3D('',#839,#624,#625);
#508=AXIS2_PLACEMENT_3D('',#841,#627,#628);
#509=DIRECTION('axis',(0.,0.,1.));
#510=DIRECTION('refdir',(1.,0.,0.));
#511=DIRECTION('center_axis',(0.,-1.,0.));
#512=DIRECTION('ref_axis',(-0.707106781186548,0.,-0.707106781186548));
#513=DIRECTION('center_axis',(0.,1.,0.));
#514=DIRECTION('ref_axis',(-0.707106781186548,0.,-0.707106781186548));
#515=DIRECTION('center_axis',(0.,-1.,0.));
#516=DIRECTION('ref_axis',(-0.707106781186548,0.,-0.707106781186548));
#517=DIRECTION('center_axis',(0.,0.707106781186542,-0.707106781186553));
#518=DIRECTION('ref_axis',(-1.,0.,0.));
#519=DIRECTION('',(1.,0.,0.));
#520=DIRECTION('',(0.577350269189623,-0.577350269189631,-0.577350269189623));
#521=DIRECTION('',(-1.,0.,0.));
#522=DIRECTION('center_axis',(0.707106781186553,0.707106781186542,0.));
#523=DIRECTION('ref_axis',(0.,0.,-1.));
#524=DIRECTION('',(0.,0.,1.));
#525=DIRECTION('',(0.577350269189623,-0.577350269189631,0.577350269189623));
#526=DIRECTION('',(0.,0.,-1.));
#527=DIRECTION('center_axis',(0.,0.707106781186543,0.707106781186552));
#528=DIRECTION('ref_axis',(1.,0.,0.));
#529=DIRECTION('',(1.,0.,0.));
#530=DIRECTION('',(-1.,0.,0.));
#531=DIRECTION('center_axis',(0.,0.,1.));
#532=DIRECTION('ref_axis',(-1.,0.,0.));
#533=DIRECTION('',(0.,1.,0.));
#534=DIRECTION('',(-1.,0.,0.));
#535=DIRECTION('',(0.,-1.,0.));
#536=DIRECTION('center_axis',(0.,-1.,0.));
#537=DIRECTION('ref_axis',(0.707106781186547,0.,0.707106781186548));
#538=DIRECTION('center_axis',(0.,-1.,0.));
#539=DIRECTION('ref_axis',(-0.707106781186548,0.,-0.707106781186548));
#540=DIRECTION('',(0.,1.,0.));
#541=DIRECTION('center_axis',(0.,1.,0.));
#542=DIRECTION('ref_axis',(0.707106781186547,0.,0.707106781186548));
#543=DIRECTION('',(0.,1.,0.));
#544=DIRECTION('center_axis',(0.,1.,0.));
#545=DIRECTION('ref_axis',(0.707106781186547,0.,0.707106781186548));
#546=DIRECTION('',(0.,-1.,0.));
#547=DIRECTION('center_axis',(0.,1.,0.));
#548=DIRECTION('ref_axis',(0.707106781186547,0.,0.707106781186548));
#549=DIRECTION('',(0.,1.,0.));
#550=DIRECTION('center_axis',(0.,-1.,0.));
#551=DIRECTION('ref_axis',(0.707106781186547,0.,0.707106781186548));
#552=DIRECTION('',(0.,-1.,0.));
#553=DIRECTION('center_axis',(0.,-1.,0.));
#554=DIRECTION('ref_axis',(0.707106781186547,0.,0.707106781186548));
#555=DIRECTION('',(0.,1.,0.));
#556=DIRECTION('center_axis',(0.,-1.,0.));
#557=DIRECTION('ref_axis',(0.707106781186547,0.,0.707106781186548));
#558=DIRECTION('',(0.,-1.,0.));
#559=DIRECTION('center_axis',(0.,-1.,0.));
#560=DIRECTION('ref_axis',(0.707106781186547,0.,0.707106781186548));
#561=DIRECTION('center_axis',(0.,1.,0.));
#562=DIRECTION('ref_axis',(0.707106781186547,0.,0.707106781186548));
#563=DIRECTION('',(0.,-1.,0.));
#564=DIRECTION('center_axis',(0.,1.,0.));
#565=DIRECTION('ref_axis',(0.,0.,1.));
#566=DIRECTION('center_axis',(0.,-0.707106781186548,0.707106781186547));
#567=DIRECTION('ref_axis',(1.,0.,0.));
#568=DIRECTION('',(1.,0.,0.));
#569=DIRECTION('',(0.577350269189626,0.577350269189626,0.577350269189626));
#570=DIRECTION('',(-1.,0.,0.));
#571=DIRECTION('center_axis',(0.707106781186548,-0.707106781186547,0.));
#572=DIRECTION('ref_axis',(0.,0.,-1.));
#573=DIRECTION('',(0.,0.,1.));
#574=DIRECTION('',(0.,0.,-1.));
#575=DIRECTION('',(0.577350269189626,0.577350269189626,-0.577350269189625));
#576=DIRECTION('center_axis',(0.,1.,0.));
#577=DIRECTION('ref_axis',(-0.707106781186548,0.,-0.707106781186548));
#578=DIRECTION('center_axis',(0.,1.,0.));
#579=DIRECTION('ref_axis',(-0.707106781186548,0.,-0.707106781186548));
#580=DIRECTION('center_axis',(0.,-0.707106781186547,-0.707106781186548));
#581=DIRECTION('ref_axis',(-1.,0.,0.));
#582=DIRECTION('',(-1.,0.,0.));
#583=DIRECTION('',(1.,0.,0.));
#584=DIRECTION('center_axis',(0.,0.,-1.));
#585=DIRECTION('ref_axis',(-1.,0.,0.));
#586=DIRECTION('',(0.,-1.,0.));
#587=DIRECTION('',(-1.,0.,0.));
#588=DIRECTION('center_axis',(0.,-1.,0.));
#589=DIRECTION('ref_axis',(0.,0.,-1.));
#590=DIRECTION('center_axis',(0.,0.,-1.));
#591=DIRECTION('ref_axis',(1.,0.,0.));
#592=DIRECTION('',(0.,1.,0.));
#593=DIRECTION('',(1.,0.,0.));
#594=DIRECTION('center_axis',(0.,-1.,0.));
#595=DIRECTION('ref_axis',(1.,0.,0.));
#596=DIRECTION('',(0.,0.,1.));
#597=DIRECTION('center_axis',(0.,-1.,0.));
#598=DIRECTION('ref_axis',(1.,0.,0.));
#599=DIRECTION('',(0.,0.,1.));
#600=DIRECTION('center_axis',(1.,0.,0.));
#601=DIRECTION('ref_axis',(0.,0.,1.));
#602=DIRECTION('',(0.,0.,1.));
#603=DIRECTION('center_axis',(1.,0.,0.));
#604=DIRECTION('ref_axis',(0.,1.,0.));
#605=DIRECTION('center_axis',(0.,-1.,0.));
#606=DIRECTION('ref_axis',(1.,0.,0.));
#607=DIRECTION('',(0.,0.,-1.));
#608=DIRECTION('center_axis',(0.,0.,1.));
#609=DIRECTION('ref_axis',(1.,0.,0.));
#610=DIRECTION('',(1.,0.,0.));
#611=DIRECTION('',(0.,1.,0.));
#612=DIRECTION('center_axis',(0.,-1.,0.));
#613=DIRECTION('ref_axis',(1.,0.,0.));
#614=DIRECTION('',(0.,0.,-1.));
#615=DIRECTION('center_axis',(-1.,0.,0.));
#616=DIRECTION('ref_axis',(0.,0.,1.));
#617=DIRECTION('',(0.,0.,1.));
#618=DIRECTION('center_axis',(1.,0.,0.));
#619=DIRECTION('ref_axis',(0.,1.,0.));
#620=DIRECTION('center_axis',(0.,1.,0.));
#621=DIRECTION('ref_axis',(0.,0.,1.));
#622=DIRECTION('center_axis',(0.,1.,0.));
#623=DIRECTION('ref_axis',(0.,0.,1.));
#624=DIRECTION('center_axis',(-1.,0.,0.));
#625=DIRECTION('ref_axis',(0.,1.,0.));
#626=DIRECTION('',(-1.,0.,0.));
#627=DIRECTION('center_axis',(-1.,0.,0.));
#628=DIRECTION('ref_axis',(0.,1.,0.));
#629=DIRECTION('',(-1.,0.,0.));
#630=CARTESIAN_POINT('',(0.,0.,0.));
#631=CARTESIAN_POINT('Origin',(0.,89.5,9.));
#632=CARTESIAN_POINT('',(-8.06225774829855,89.,5.));
#633=CARTESIAN_POINT('',(-8.06225774829855,89.,13.));
#634=CARTESIAN_POINT('Origin',(0.,89.,9.));
#635=CARTESIAN_POINT('',(-7.41619848709566,90.,12.));
#636=CARTESIAN_POINT('Ctrl Pts',(-8.06225774829855,89.,13.));
#637=CARTESIAN_POINT('Ctrl Pts',(-7.85440576716669,89.3351512490759,12.6648487509241));
#638=CARTESIAN_POINT('Ctrl Pts',(-7.63892204210567,89.6696475816588,12.3303524183412));
#639=CARTESIAN_POINT('Ctrl Pts',(-7.41619848709566,90.,12.));
#640=CARTESIAN_POINT('',(-7.41619848709566,90.,6.));
#641=CARTESIAN_POINT('Origin',(0.,90.,9.));
#642=CARTESIAN_POINT('Ctrl Pts',(-7.41619848709566,90.,6.));
#643=CARTESIAN_POINT('Ctrl Pts',(-7.63892204210567,89.6696475816589,5.66964758165885));
#644=CARTESIAN_POINT('Ctrl Pts',(-7.85440576716668,89.3351512490759,5.33515124907593));
#645=CARTESIAN_POINT('Ctrl Pts',(-8.06225774829855,89.,5.00000000000002));
#646=CARTESIAN_POINT('Origin',(-4.03112887414927,89.5,5.5));
#647=CARTESIAN_POINT('',(5.,90.,6.));
#648=CARTESIAN_POINT('',(-4.03112887414927,90.,6.));
#649=CARTESIAN_POINT('',(6.,89.,5.));
#650=CARTESIAN_POINT('',(5.,90.,6.));
#651=CARTESIAN_POINT('',(-4.03112887414927,89.,5.));
#652=CARTESIAN_POINT('Origin',(5.5,89.5,-1.));
#653=CARTESIAN_POINT('',(5.,90.,12.));
#654=CARTESIAN_POINT('',(5.,90.,-1.));
#655=CARTESIAN_POINT('',(6.,89.,13.));
#656=CARTESIAN_POINT('',(5.,90.,12.));
#657=CARTESIAN_POINT('',(6.,89.,-1.));
#658=CARTESIAN_POINT('Origin',(3.,89.5,12.5));
#659=CARTESIAN_POINT('',(3.,89.,13.));
#660=CARTESIAN_POINT('',(3.,90.,12.));
#661=CARTESIAN_POINT('Origin',(6.,90.,13.));
#662=CARTESIAN_POINT('',(-8.06225774829855,85.,13.));
#663=CARTESIAN_POINT('',(-8.06225774829855,67.5,13.));
#664=CARTESIAN_POINT('',(6.,85.,13.));
#665=CARTESIAN_POINT('',(9.00000000002262,85.,13.));
#666=CARTESIAN_POINT('',(6.,90.,13.));
#667=CARTESIAN_POINT('Origin',(0.,67.5,9.));
#668=CARTESIAN_POINT('',(-8.06225774829855,0.999999999999996,13.));
#669=CARTESIAN_POINT('',(-8.06225774829855,0.999999999999996,5.));
#670=CARTESIAN_POINT('Origin',(0.,0.999999999999996,9.));
#671=CARTESIAN_POINT('',(-8.06225774829855,5.,13.));
#672=CARTESIAN_POINT('',(-8.06225774829855,67.5,13.));
#673=CARTESIAN_POINT('',(6.,5.,15.7082039324994));
#674=CARTESIAN_POINT('Origin',(0.,5.,9.));
#675=CARTESIAN_POINT('',(6.,22.,15.7082039324994));
#676=CARTESIAN_POINT('',(6.,67.5,15.7082039324994));
#677=CARTESIAN_POINT('',(6.,22.,2.29179606750063));
#678=CARTESIAN_POINT('Origin',(0.,22.,9.));
#679=CARTESIAN_POINT('',(6.,5.,2.29179606750063));
#680=CARTESIAN_POINT('',(6.,67.5,2.29179606750063));
#681=CARTESIAN_POINT('',(-6.36396103067893,5.,2.63603896932107));
#682=CARTESIAN_POINT('Origin',(0.,5.,9.));
#683=CARTESIAN_POINT('',(-6.36396103067893,85.,2.63603896932107));
#684=CARTESIAN_POINT('',(-6.36396103067893,67.5,2.63603896932107));
#685=CARTESIAN_POINT('',(6.,85.,2.29179606750063));
#686=CARTESIAN_POINT('Origin',(0.,85.,9.));
#687=CARTESIAN_POINT('',(6.,68.,2.29179606750063));
#688=CARTESIAN_POINT('',(6.,67.5,2.29179606750063));
#689=CARTESIAN_POINT('',(6.,68.,15.7082039324994));
#690=CARTESIAN_POINT('Origin',(0.,68.,9.));
#691=CARTESIAN_POINT('',(6.,85.,15.7082039324994));
#692=CARTESIAN_POINT('',(6.,67.5,15.7082039324994));
#693=CARTESIAN_POINT('Origin',(0.,85.,9.));
#694=CARTESIAN_POINT('',(-8.06225774829855,85.,5.));
#695=CARTESIAN_POINT('',(-8.06225774829855,67.5,5.));
#696=CARTESIAN_POINT('Origin',(0.,85.,9.));
#697=CARTESIAN_POINT('',(-8.06225774829855,5.,5.));
#698=CARTESIAN_POINT('Origin',(0.,5.,9.));
#699=CARTESIAN_POINT('',(-8.06225774829855,67.5,5.));
#700=CARTESIAN_POINT('',(-9.,20.38975,9.));
#701=CARTESIAN_POINT('',(-9.,13.61025,9.));
#702=CARTESIAN_POINT('Ctrl Pts',(-9.,20.38975,9.));
#703=CARTESIAN_POINT('Ctrl Pts',(-9.,20.38975,9.4300963045478));
#704=CARTESIAN_POINT('Ctrl Pts',(-8.96618857049287,20.3029337996964,9.8860476792281));
#705=CARTESIAN_POINT('Ctrl Pts',(-8.84415101201494,19.9556456153342,10.7200612892832));
#706=CARTESIAN_POINT('Ctrl Pts',(-8.75742338744849,19.6953958235484,11.0984345995058));
#707=CARTESIAN_POINT('Ctrl Pts',(-8.59241682204248,19.0982015307404,11.6956288923138));
#708=CARTESIAN_POINT('Ctrl Pts',(-8.50282913410759,18.7199181963536,11.9557008992323));
#709=CARTESIAN_POINT('Ctrl Pts',(-8.37409256553586,17.8862487794695,12.3028543609006));
#710=CARTESIAN_POINT('Ctrl Pts',(-8.33724144651575,17.430432145506,12.38975));
#711=CARTESIAN_POINT('Ctrl Pts',(-8.33724144651575,17.,12.38975));
#712=CARTESIAN_POINT('Ctrl Pts',(-8.33724144651575,16.569567854494,12.38975));
#713=CARTESIAN_POINT('Ctrl Pts',(-8.37409256553586,16.1137512205305,12.3028543609006));
#714=CARTESIAN_POINT('Ctrl Pts',(-8.50282913410759,15.2800818036464,11.9557008992323));
#715=CARTESIAN_POINT('Ctrl Pts',(-8.59241682204248,14.9017984692596,11.6956288923138));
#716=CARTESIAN_POINT('Ctrl Pts',(-8.75742338744849,14.3046041764516,11.0984345995058));
#717=CARTESIAN_POINT('Ctrl Pts',(-8.84415101201494,14.0443543846658,10.7200612892832));
#718=CARTESIAN_POINT('Ctrl Pts',(-8.96618857049287,13.6970662003036,9.8860476792281));
#719=CARTESIAN_POINT('Ctrl Pts',(-9.,13.61025,9.4300963045478));
#720=CARTESIAN_POINT('Ctrl Pts',(-9.,13.61025,9.));
#721=CARTESIAN_POINT('Ctrl Pts',(-9.,13.61025,9.));
#722=CARTESIAN_POINT('Ctrl Pts',(-9.,13.61025,8.5699036954522));
#723=CARTESIAN_POINT('Ctrl Pts',(-8.96618857049288,13.6970662003036,8.1139523207719));
#724=CARTESIAN_POINT('Ctrl Pts',(-8.84415101201494,14.0443543846658,7.27993871071676));
#725=CARTESIAN_POINT('Ctrl Pts',(-8.7574233874485,14.3046041764516,6.90156540049416));
#726=CARTESIAN_POINT('Ctrl Pts',(-8.59241682204248,14.9017984692596,6.30437110768617));
#727=CARTESIAN_POINT('Ctrl Pts',(-8.5028291341076,15.2800818036464,6.04429910076773));
#728=CARTESIAN_POINT('Ctrl Pts',(-8.37409256553586,16.1137512205305,5.69714563909936));
#729=CARTESIAN_POINT('Ctrl Pts',(-8.33724144651575,16.569567854494,5.61025));
#730=CARTESIAN_POINT('Ctrl Pts',(-8.33724144651575,17.,5.61025));
#731=CARTESIAN_POINT('Ctrl Pts',(-8.33724144651575,17.430432145506,5.61025));
#732=CARTESIAN_POINT('Ctrl Pts',(-8.37409256553586,17.8862487794695,5.69714563909936));
#733=CARTESIAN_POINT('Ctrl Pts',(-8.5028291341076,18.7199181963536,6.04429910076773));
#734=CARTESIAN_POINT('Ctrl Pts',(-8.59241682204248,19.0982015307404,6.30437110768617));
#735=CARTESIAN_POINT('Ctrl Pts',(-8.75742338744849,19.6953958235484,6.90156540049416));
#736=CARTESIAN_POINT('Ctrl Pts',(-8.84415101201494,19.9556456153342,7.27993871071676));
#737=CARTESIAN_POINT('Ctrl Pts',(-8.96618857049288,20.3029337996964,8.1139523207719));
#738=CARTESIAN_POINT('Ctrl Pts',(-9.,20.38975,8.5699036954522));
#739=CARTESIAN_POINT('Ctrl Pts',(-9.,20.38975,9.));
#740=CARTESIAN_POINT('',(-9.,69.61025,9.));
#741=CARTESIAN_POINT('',(-9.,76.38975,9.));
#742=CARTESIAN_POINT('Ctrl Pts',(-9.,69.61025,9.));
#743=CARTESIAN_POINT('Ctrl Pts',(-9.,69.61025,8.5699036954522));
#744=CARTESIAN_POINT('Ctrl Pts',(-8.96618857049288,69.6970662003036,8.11395232077189));
#745=CARTESIAN_POINT('Ctrl Pts',(-8.84415101201494,70.0443543846658,7.27993871071676));
#746=CARTESIAN_POINT('Ctrl Pts',(-8.7574233874485,70.3046041764516,6.90156540049415));
#747=CARTESIAN_POINT('Ctrl Pts',(-8.59241682204248,70.9017984692596,6.30437110768617));
#748=CARTESIAN_POINT('Ctrl Pts',(-8.5028291341076,71.2800818036464,6.04429910076773));
#749=CARTESIAN_POINT('Ctrl Pts',(-8.37409256553586,72.1137512205305,5.69714563909936));
#750=CARTESIAN_POINT('Ctrl Pts',(-8.33724144651575,72.569567854494,5.61025));
#751=CARTESIAN_POINT('Ctrl Pts',(-8.33724144651575,73.,5.61025));
#752=CARTESIAN_POINT('Ctrl Pts',(-8.33724144651575,73.430432145506,5.61025));
#753=CARTESIAN_POINT('Ctrl Pts',(-8.37409256553586,73.8862487794695,5.69714563909937));
#754=CARTESIAN_POINT('Ctrl Pts',(-8.5028291341076,74.7199181963536,6.04429910076773));
#755=CARTESIAN_POINT('Ctrl Pts',(-8.59241682204248,75.0982015307404,6.30437110768617));
#756=CARTESIAN_POINT('Ctrl Pts',(-8.7574233874485,75.6953958235484,6.90156540049416));
#757=CARTESIAN_POINT('Ctrl Pts',(-8.84415101201494,75.9556456153342,7.27993871071676));
#758=CARTESIAN_POINT('Ctrl Pts',(-8.96618857049287,76.3029337996964,8.1139523207719));
#759=CARTESIAN_POINT('Ctrl Pts',(-9.,76.38975,8.5699036954522));
#760=CARTESIAN_POINT('Ctrl Pts',(-9.,76.38975,9.));
#761=CARTESIAN_POINT('Ctrl Pts',(-9.,76.38975,9.));
#762=CARTESIAN_POINT('Ctrl Pts',(-9.,76.38975,9.4300963045478));
#763=CARTESIAN_POINT('Ctrl Pts',(-8.96618857049287,76.3029337996964,9.8860476792281));
#764=CARTESIAN_POINT('Ctrl Pts',(-8.84415101201494,75.9556456153342,10.7200612892832));
#765=CARTESIAN_POINT('Ctrl Pts',(-8.75742338744849,75.6953958235484,11.0984345995058));
#766=CARTESIAN_POINT('Ctrl Pts',(-8.59241682204248,75.0982015307404,11.6956288923138));
#767=CARTESIAN_POINT('Ctrl Pts',(-8.5028291341076,74.7199181963536,11.9557008992323));
#768=CARTESIAN_POINT('Ctrl Pts',(-8.37409256553586,73.8862487794695,12.3028543609006));
#769=CARTESIAN_POINT('Ctrl Pts',(-8.33724144651575,73.430432145506,12.38975));
#770=CARTESIAN_POINT('Ctrl Pts',(-8.33724144651575,73.,12.38975));
#771=CARTESIAN_POINT('Ctrl Pts',(-8.33724144651575,72.569567854494,12.38975));
#772=CARTESIAN_POINT('Ctrl Pts',(-8.37409256553586,72.1137512205305,12.3028543609006));
#773=CARTESIAN_POINT('Ctrl Pts',(-8.5028291341076,71.2800818036464,11.9557008992323));
#774=CARTESIAN_POINT('Ctrl Pts',(-8.59241682204248,70.9017984692596,11.6956288923138));
#775=CARTESIAN_POINT('Ctrl Pts',(-8.75742338744849,70.3046041764516,11.0984345995058));
#776=CARTESIAN_POINT('Ctrl Pts',(-8.84415101201494,70.0443543846658,10.7200612892832));
#777=CARTESIAN_POINT('Ctrl Pts',(-8.96618857049287,69.6970662003036,9.8860476792281));
#778=CARTESIAN_POINT('Ctrl Pts',(-9.,69.61025,9.4300963045478));
#779=CARTESIAN_POINT('Ctrl Pts',(-9.,69.61025,9.));
#780=CARTESIAN_POINT('Origin',(0.,90.,0.));
#781=CARTESIAN_POINT('Origin',(3.,0.5,12.5));
#782=CARTESIAN_POINT('',(-7.41619848709566,0.,12.));
#783=CARTESIAN_POINT('',(5.,0.,12.));
#784=CARTESIAN_POINT('',(3.,0.,12.));
#785=CARTESIAN_POINT('',(6.,1.,13.));
#786=CARTESIAN_POINT('',(5.,0.,12.));
#787=CARTESIAN_POINT('',(3.,1.,13.));
#788=CARTESIAN_POINT('Ctrl Pts',(-8.06225774829855,0.999999999999998,13.));
#789=CARTESIAN_POINT('Ctrl Pts',(-7.85440576716639,0.664848750923607,12.6648487509236));
#790=CARTESIAN_POINT('Ctrl Pts',(-7.63892204210554,0.330352418340955,12.330352418341));
#791=CARTESIAN_POINT('Ctrl Pts',(-7.41619848709567,2.08166817117217E-16,
12.));
#792=CARTESIAN_POINT('Origin',(5.5,0.5,8.));
#793=CARTESIAN_POINT('',(6.,1.,5.));
#794=CARTESIAN_POINT('',(6.,1.,8.));
#795=CARTESIAN_POINT('',(5.,0.,6.));
#796=CARTESIAN_POINT('',(5.,0.,8.));
#797=CARTESIAN_POINT('',(5.,0.,6.));
#798=CARTESIAN_POINT('Origin',(0.,0.499999999999998,9.));
#799=CARTESIAN_POINT('',(-7.41619848709566,0.,6.));
#800=CARTESIAN_POINT('Origin',(0.,0.,9.));
#801=CARTESIAN_POINT('Ctrl Pts',(-8.06225774829855,0.999999999999997,5.));
#802=CARTESIAN_POINT('Ctrl Pts',(-7.85440576716649,0.664848750923769,5.33515124907623));
#803=CARTESIAN_POINT('Ctrl Pts',(-7.63892204210558,0.330352418341022,5.66964758165898));
#804=CARTESIAN_POINT('Ctrl Pts',(-7.41619848709566,-9.71445146547012E-16,
6.));
#805=CARTESIAN_POINT('Origin',(-4.03112887414927,0.5,5.5));
#806=CARTESIAN_POINT('',(-4.03112887414927,0.,6.));
#807=CARTESIAN_POINT('',(-4.03112887414927,1.,5.));
#808=CARTESIAN_POINT('Origin',(6.,0.,13.));
#809=CARTESIAN_POINT('',(6.,5.,13.));
#810=CARTESIAN_POINT('',(6.,0.,13.));
#811=CARTESIAN_POINT('',(9.00000000002262,5.,13.));
#812=CARTESIAN_POINT('Origin',(0.,0.,18.));
#813=CARTESIAN_POINT('Origin',(-8.06225774829855,90.,5.));
#814=CARTESIAN_POINT('',(6.,85.,5.));
#815=CARTESIAN_POINT('',(6.,90.,5.));
#816=CARTESIAN_POINT('',(-9.,85.,5.));
#817=CARTESIAN_POINT('Origin',(-1.03112887414927,85.,2.5));
#818=CARTESIAN_POINT('',(6.,85.,0.249999999999999));
#819=CARTESIAN_POINT('Origin',(-1.03112887414928,85.,15.5));
#820=CARTESIAN_POINT('',(6.,85.,6.75));
#821=CARTESIAN_POINT('Origin',(6.,90.,-2.));
#822=CARTESIAN_POINT('',(6.,68.,20.));
#823=CARTESIAN_POINT('',(6.,69.61025,9.));
#824=CARTESIAN_POINT('Origin',(6.,73.,9.));
#825=CARTESIAN_POINT('Origin',(-1.03112887414928,5.,15.5));
#826=CARTESIAN_POINT('',(6.,5.,6.75));
#827=CARTESIAN_POINT('Origin',(-8.06225774829855,0.,5.));
#828=CARTESIAN_POINT('',(6.,5.,5.));
#829=CARTESIAN_POINT('',(-9.,5.,5.));
#830=CARTESIAN_POINT('',(6.,0.,5.));
#831=CARTESIAN_POINT('Origin',(-1.03112887414927,5.,2.5));
#832=CARTESIAN_POINT('',(6.,5.,0.249999999999999));
#833=CARTESIAN_POINT('Origin',(6.,0.,-2.));
#834=CARTESIAN_POINT('',(6.,22.,20.));
#835=CARTESIAN_POINT('',(6.,13.61025,9.));
#836=CARTESIAN_POINT('Origin',(6.,17.,9.));
#837=CARTESIAN_POINT('Origin',(11.,68.,9.));
#838=CARTESIAN_POINT('Origin',(11.,22.,9.));
#839=CARTESIAN_POINT('Origin',(-0.900000000000001,17.,9.));
#840=CARTESIAN_POINT('',(-0.900000000000001,13.61025,9.));
#841=CARTESIAN_POINT('Origin',(-0.900000000000001,73.,9.));
#842=CARTESIAN_POINT('',(-0.900000000000001,69.61025,9.));
#843=UNCERTAINTY_MEASURE_WITH_UNIT(LENGTH_MEASURE(0.01),#847,
'DISTANCE_ACCURACY_VALUE',
'Maximum model space distance between geometric entities at asserted c
onnectivities');
#844=UNCERTAINTY_MEASURE_WITH_UNIT(LENGTH_MEASURE(0.01),#847,
'DISTANCE_ACCURACY_VALUE',
'Maximum model space distance between geometric entities at asserted c
onnectivities');
#845=(
GEOMETRIC_REPRESENTATION_CONTEXT(3)
GLOBAL_UNCERTAINTY_ASSIGNED_CONTEXT((#843))
GLOBAL_UNIT_ASSIGNED_CONTEXT((#847,#849,#850))
REPRESENTATION_CONTEXT('','3D')
);
#846=(
GEOMETRIC_REPRESENTATION_CONTEXT(3)
GLOBAL_UNCERTAINTY_ASSIGNED_CONTEXT((#844))
GLOBAL_UNIT_ASSIGNED_CONTEXT((#847,#849,#850))
REPRESENTATION_CONTEXT('','3D')
);
#847=(
LENGTH_UNIT()
NAMED_UNIT(*)
SI_UNIT(.MILLI.,.METRE.)
);
#848=(
LENGTH_UNIT()
NAMED_UNIT(*)
SI_UNIT($,.METRE.)
);
#849=(
NAMED_UNIT(*)
PLANE_ANGLE_UNIT()
SI_UNIT($,.RADIAN.)
);
#850=(
NAMED_UNIT(*)
SI_UNIT($,.STERADIAN.)
SOLID_ANGLE_UNIT()
);
#851=SHAPE_DEFINITION_REPRESENTATION(#852,#853);
#852=PRODUCT_DEFINITION_SHAPE('',$,#855);
#853=SHAPE_REPRESENTATION('',(#469),#845);
#854=PRODUCT_DEFINITION_CONTEXT('part definition',#859,'design');
#855=PRODUCT_DEFINITION('2026-02-10-14-02-17-803','kus horn\X\ED',#856,
#854);
#856=PRODUCT_DEFINITION_FORMATION('',$,#861);
#857=PRODUCT_RELATED_PRODUCT_CATEGORY('kus horn\X\ED','kus horn\X\ED',(#861));
#858=APPLICATION_PROTOCOL_DEFINITION('international standard',
'automotive_design',2009,#859);
#859=APPLICATION_CONTEXT(
'Core Data for Automotive Mechanical Design Process');
#860=PRODUCT_CONTEXT('part definition',#859,'mechanical');
#861=PRODUCT('2026-02-10-14-02-17-803','kus horn\X\ED',$,(#860));
#862=PRESENTATION_STYLE_ASSIGNMENT((#863));
#863=SURFACE_STYLE_USAGE(.BOTH.,#864);
#864=SURFACE_SIDE_STYLE('',(#865));
#865=SURFACE_STYLE_FILL_AREA(#866);
#866=FILL_AREA_STYLE('Ocel \X2\2013\X0\ sat\X\E9n',(#867));
#867=FILL_AREA_STYLE_COLOUR('Ocel \X2\2013\X0\ sat\X\E9n',#868);
#868=COLOUR_RGB('Ocel \X2\2013\X0\ sat\X\E9n',0.627450980392157,0.627450980392157,
0.627450980392157);
ENDSEC;
END-ISO-10303-21;
