ISO-10303-21;
HEADER;
/* Generated by software containing ST-Developer
 * from STEP Tools, Inc. (www.steptools.com) 
 */

FILE_DESCRIPTION(
/* description */ (''),
/* implementation_level */ '2;1');

FILE_NAME(
/* name */ '',
/* time_stamp */ '2026-04-07T02:00:33+02:00',
/* author */ (''),
/* organization */ (''),
/* preprocessor_version */ 'ST-DEVELOPER v20.1',
/* originating_system */ 'Autodesk Translation Framework v14.24.0.0',
/* authorisation */ '');

FILE_SCHEMA (('AUTOMOTIVE_DESIGN { 1 0 10303 214 3 1 1 }'));
ENDSEC;

DATA;
#10=MECHANICAL_DESIGN_GEOMETRIC_PRESENTATION_REPRESENTATION('',(#13),#761);
#11=SHAPE_REPRESENTATION_RELATIONSHIP('SRR','None',#768,#12);
#12=ADVANCED_BREP_SHAPE_REPRESENTATION('',(#14),#760);
#13=STYLED_ITEM('',(#777),#14);
#14=MANIFOLD_SOLID_BREP('T\X2\011B\X0\leso1',#457);
#15=FACE_BOUND('',#101,.T.);
#16=FACE_BOUND('',#102,.T.);
#17=FACE_BOUND('',#103,.T.);
#18=FACE_BOUND('',#104,.T.);
#19=FACE_BOUND('',#105,.T.);
#20=FACE_BOUND('',#106,.T.);
#21=FACE_BOUND('',#107,.T.);
#22=FACE_BOUND('',#108,.T.);
#23=FACE_BOUND('',#110,.T.);
#24=FACE_BOUND('',#111,.T.);
#25=FACE_BOUND('',#112,.T.);
#26=FACE_BOUND('',#113,.T.);
#27=FACE_BOUND('',#114,.T.);
#28=FACE_BOUND('',#115,.T.);
#29=FACE_BOUND('',#116,.T.);
#30=FACE_BOUND('',#117,.T.);
#31=CIRCLE('',#480,4.5);
#32=CIRCLE('',#481,4.5);
#33=CIRCLE('',#483,4.5);
#34=CIRCLE('',#484,4.5);
#35=CIRCLE('',#486,4.5);
#36=CIRCLE('',#487,4.5);
#37=CIRCLE('',#489,4.5);
#38=CIRCLE('',#490,4.5);
#39=CIRCLE('',#492,4.5);
#40=CIRCLE('',#493,4.5);
#41=CIRCLE('',#495,4.5);
#42=CIRCLE('',#496,4.5);
#43=CIRCLE('',#499,25.0000000000001);
#44=CIRCLE('',#500,25.0000000000001);
#45=CIRCLE('',#503,25.);
#46=CIRCLE('',#504,25.);
#47=CIRCLE('',#507,25.);
#48=CIRCLE('',#508,25.);
#49=CYLINDRICAL_SURFACE('',#479,4.5);
#50=CYLINDRICAL_SURFACE('',#482,4.5);
#51=CYLINDRICAL_SURFACE('',#485,4.5);
#52=CYLINDRICAL_SURFACE('',#488,4.5);
#53=CYLINDRICAL_SURFACE('',#491,4.5);
#54=CYLINDRICAL_SURFACE('',#494,4.5);
#55=CYLINDRICAL_SURFACE('',#498,25.0000000000001);
#56=CYLINDRICAL_SURFACE('',#502,25.);
#57=CYLINDRICAL_SURFACE('',#506,25.);
#58=FACE_OUTER_BOUND('',#80,.T.);
#59=FACE_OUTER_BOUND('',#81,.T.);
#60=FACE_OUTER_BOUND('',#82,.T.);
#61=FACE_OUTER_BOUND('',#83,.T.);
#62=FACE_OUTER_BOUND('',#84,.T.);
#63=FACE_OUTER_BOUND('',#85,.T.);
#64=FACE_OUTER_BOUND('',#86,.T.);
#65=FACE_OUTER_BOUND('',#87,.T.);
#66=FACE_OUTER_BOUND('',#88,.T.);
#67=FACE_OUTER_BOUND('',#89,.T.);
#68=FACE_OUTER_BOUND('',#90,.T.);
#69=FACE_OUTER_BOUND('',#91,.T.);
#70=FACE_OUTER_BOUND('',#92,.T.);
#71=FACE_OUTER_BOUND('',#93,.T.);
#72=FACE_OUTER_BOUND('',#94,.T.);
#73=FACE_OUTER_BOUND('',#95,.T.);
#74=FACE_OUTER_BOUND('',#96,.T.);
#75=FACE_OUTER_BOUND('',#97,.T.);
#76=FACE_OUTER_BOUND('',#98,.T.);
#77=FACE_OUTER_BOUND('',#99,.T.);
#78=FACE_OUTER_BOUND('',#100,.T.);
#79=FACE_OUTER_BOUND('',#109,.T.);
#80=EDGE_LOOP('',(#302,#303,#304,#305));
#81=EDGE_LOOP('',(#306,#307,#308,#309));
#82=EDGE_LOOP('',(#310,#311,#312,#313));
#83=EDGE_LOOP('',(#314,#315,#316,#317));
#84=EDGE_LOOP('',(#318,#319,#320,#321));
#85=EDGE_LOOP('',(#322,#323,#324,#325));
#86=EDGE_LOOP('',(#326,#327,#328,#329));
#87=EDGE_LOOP('',(#330,#331,#332,#333));
#88=EDGE_LOOP('',(#334,#335,#336,#337));
#89=EDGE_LOOP('',(#338,#339,#340,#341));
#90=EDGE_LOOP('',(#342,#343,#344,#345));
#91=EDGE_LOOP('',(#346,#347,#348,#349));
#92=EDGE_LOOP('',(#350,#351,#352,#353));
#93=EDGE_LOOP('',(#354,#355,#356,#357));
#94=EDGE_LOOP('',(#358,#359,#360,#361));
#95=EDGE_LOOP('',(#362,#363,#364,#365));
#96=EDGE_LOOP('',(#366,#367,#368,#369));
#97=EDGE_LOOP('',(#370,#371,#372,#373));
#98=EDGE_LOOP('',(#374,#375,#376,#377));
#99=EDGE_LOOP('',(#378,#379,#380,#381));
#100=EDGE_LOOP('',(#382,#383,#384,#385,#386,#387));
#101=EDGE_LOOP('',(#388,#389,#390,#391));
#102=EDGE_LOOP('',(#392,#393,#394,#395));
#103=EDGE_LOOP('',(#396));
#104=EDGE_LOOP('',(#397));
#105=EDGE_LOOP('',(#398));
#106=EDGE_LOOP('',(#399));
#107=EDGE_LOOP('',(#400));
#108=EDGE_LOOP('',(#401));
#109=EDGE_LOOP('',(#402,#403,#404,#405,#406,#407));
#110=EDGE_LOOP('',(#408,#409,#410,#411));
#111=EDGE_LOOP('',(#412,#413,#414,#415));
#112=EDGE_LOOP('',(#416));
#113=EDGE_LOOP('',(#417));
#114=EDGE_LOOP('',(#418));
#115=EDGE_LOOP('',(#419));
#116=EDGE_LOOP('',(#420));
#117=EDGE_LOOP('',(#421));
#118=LINE('',#639,#160);
#119=LINE('',#641,#161);
#120=LINE('',#643,#162);
#121=LINE('',#644,#163);
#122=LINE('',#647,#164);
#123=LINE('',#649,#165);
#124=LINE('',#650,#166);
#125=LINE('',#653,#167);
#126=LINE('',#655,#168);
#127=LINE('',#656,#169);
#128=LINE('',#658,#170);
#129=LINE('',#659,#171);
#130=LINE('',#663,#172);
#131=LINE('',#665,#173);
#132=LINE('',#667,#174);
#133=LINE('',#668,#175);
#134=LINE('',#671,#176);
#135=LINE('',#673,#177);
#136=LINE('',#674,#178);
#137=LINE('',#677,#179);
#138=LINE('',#679,#180);
#139=LINE('',#680,#181);
#140=LINE('',#682,#182);
#141=LINE('',#683,#183);
#142=LINE('',#688,#184);
#143=LINE('',#694,#185);
#144=LINE('',#700,#186);
#145=LINE('',#706,#187);
#146=LINE('',#712,#188);
#147=LINE('',#718,#189);
#148=LINE('',#723,#190);
#149=LINE('',#725,#191);
#150=LINE('',#727,#192);
#151=LINE('',#728,#193);
#152=LINE('',#734,#194);
#153=LINE('',#737,#195);
#154=LINE('',#739,#196);
#155=LINE('',#740,#197);
#156=LINE('',#746,#198);
#157=LINE('',#749,#199);
#158=LINE('',#751,#200);
#159=LINE('',#752,#201);
#160=VECTOR('',#515,10.);
#161=VECTOR('',#516,10.);
#162=VECTOR('',#517,10.);
#163=VECTOR('',#518,10.);
#164=VECTOR('',#521,10.);
#165=VECTOR('',#522,10.);
#166=VECTOR('',#523,10.);
#167=VECTOR('',#526,10.);
#168=VECTOR('',#527,10.);
#169=VECTOR('',#528,10.);
#170=VECTOR('',#531,10.);
#171=VECTOR('',#532,10.);
#172=VECTOR('',#535,10.);
#173=VECTOR('',#536,10.);
#174=VECTOR('',#537,10.);
#175=VECTOR('',#538,10.);
#176=VECTOR('',#541,10.);
#177=VECTOR('',#542,10.);
#178=VECTOR('',#543,10.);
#179=VECTOR('',#546,10.);
#180=VECTOR('',#547,10.);
#181=VECTOR('',#548,10.);
#182=VECTOR('',#551,10.);
#183=VECTOR('',#552,10.);
#184=VECTOR('',#557,4.5);
#185=VECTOR('',#564,4.5);
#186=VECTOR('',#571,4.5);
#187=VECTOR('',#578,4.5);
#188=VECTOR('',#585,4.5);
#189=VECTOR('',#592,4.5);
#190=VECTOR('',#597,10.);
#191=VECTOR('',#598,10.);
#192=VECTOR('',#599,10.);
#193=VECTOR('',#600,10.);
#194=VECTOR('',#607,10.);
#195=VECTOR('',#610,10.);
#196=VECTOR('',#611,10.);
#197=VECTOR('',#612,10.);
#198=VECTOR('',#619,10.);
#199=VECTOR('',#622,10.);
#200=VECTOR('',#623,10.);
#201=VECTOR('',#624,10.);
#202=VERTEX_POINT('',#637);
#203=VERTEX_POINT('',#638);
#204=VERTEX_POINT('',#640);
#205=VERTEX_POINT('',#642);
#206=VERTEX_POINT('',#646);
#207=VERTEX_POINT('',#648);
#208=VERTEX_POINT('',#652);
#209=VERTEX_POINT('',#654);
#210=VERTEX_POINT('',#661);
#211=VERTEX_POINT('',#662);
#212=VERTEX_POINT('',#664);
#213=VERTEX_POINT('',#666);
#214=VERTEX_POINT('',#670);
#215=VERTEX_POINT('',#672);
#216=VERTEX_POINT('',#676);
#217=VERTEX_POINT('',#678);
#218=VERTEX_POINT('',#685);
#219=VERTEX_POINT('',#687);
#220=VERTEX_POINT('',#691);
#221=VERTEX_POINT('',#693);
#222=VERTEX_POINT('',#697);
#223=VERTEX_POINT('',#699);
#224=VERTEX_POINT('',#703);
#225=VERTEX_POINT('',#705);
#226=VERTEX_POINT('',#709);
#227=VERTEX_POINT('',#711);
#228=VERTEX_POINT('',#715);
#229=VERTEX_POINT('',#717);
#230=VERTEX_POINT('',#721);
#231=VERTEX_POINT('',#722);
#232=VERTEX_POINT('',#724);
#233=VERTEX_POINT('',#726);
#234=VERTEX_POINT('',#730);
#235=VERTEX_POINT('',#732);
#236=VERTEX_POINT('',#736);
#237=VERTEX_POINT('',#738);
#238=VERTEX_POINT('',#742);
#239=VERTEX_POINT('',#744);
#240=VERTEX_POINT('',#748);
#241=VERTEX_POINT('',#750);
#242=EDGE_CURVE('',#202,#203,#118,.T.);
#243=EDGE_CURVE('',#204,#202,#119,.T.);
#244=EDGE_CURVE('',#205,#204,#120,.T.);
#245=EDGE_CURVE('',#205,#203,#121,.T.);
#246=EDGE_CURVE('',#203,#206,#122,.T.);
#247=EDGE_CURVE('',#207,#205,#123,.T.);
#248=EDGE_CURVE('',#207,#206,#124,.T.);
#249=EDGE_CURVE('',#206,#208,#125,.T.);
#250=EDGE_CURVE('',#209,#207,#126,.T.);
#251=EDGE_CURVE('',#209,#208,#127,.T.);
#252=EDGE_CURVE('',#208,#202,#128,.T.);
#253=EDGE_CURVE('',#204,#209,#129,.T.);
#254=EDGE_CURVE('',#210,#211,#130,.T.);
#255=EDGE_CURVE('',#212,#210,#131,.T.);
#256=EDGE_CURVE('',#213,#212,#132,.T.);
#257=EDGE_CURVE('',#213,#211,#133,.T.);
#258=EDGE_CURVE('',#211,#214,#134,.T.);
#259=EDGE_CURVE('',#215,#213,#135,.T.);
#260=EDGE_CURVE('',#215,#214,#136,.T.);
#261=EDGE_CURVE('',#214,#216,#137,.T.);
#262=EDGE_CURVE('',#217,#215,#138,.T.);
#263=EDGE_CURVE('',#217,#216,#139,.T.);
#264=EDGE_CURVE('',#216,#210,#140,.T.);
#265=EDGE_CURVE('',#212,#217,#141,.T.);
#266=EDGE_CURVE('',#218,#218,#31,.T.);
#267=EDGE_CURVE('',#218,#219,#142,.T.);
#268=EDGE_CURVE('',#219,#219,#32,.T.);
#269=EDGE_CURVE('',#220,#220,#33,.T.);
#270=EDGE_CURVE('',#220,#221,#143,.T.);
#271=EDGE_CURVE('',#221,#221,#34,.T.);
#272=EDGE_CURVE('',#222,#222,#35,.T.);
#273=EDGE_CURVE('',#222,#223,#144,.T.);
#274=EDGE_CURVE('',#223,#223,#36,.T.);
#275=EDGE_CURVE('',#224,#224,#37,.T.);
#276=EDGE_CURVE('',#224,#225,#145,.T.);
#277=EDGE_CURVE('',#225,#225,#38,.T.);
#278=EDGE_CURVE('',#226,#226,#39,.T.);
#279=EDGE_CURVE('',#226,#227,#146,.T.);
#280=EDGE_CURVE('',#227,#227,#40,.T.);
#281=EDGE_CURVE('',#228,#228,#41,.T.);
#282=EDGE_CURVE('',#228,#229,#147,.T.);
#283=EDGE_CURVE('',#229,#229,#42,.T.);
#284=EDGE_CURVE('',#230,#231,#148,.T.);
#285=EDGE_CURVE('',#230,#232,#149,.T.);
#286=EDGE_CURVE('',#233,#232,#150,.T.);
#287=EDGE_CURVE('',#231,#233,#151,.T.);
#288=EDGE_CURVE('',#234,#231,#43,.T.);
#289=EDGE_CURVE('',#235,#233,#44,.T.);
#290=EDGE_CURVE('',#234,#235,#152,.T.);
#291=EDGE_CURVE('',#234,#236,#153,.T.);
#292=EDGE_CURVE('',#237,#235,#154,.T.);
#293=EDGE_CURVE('',#236,#237,#155,.T.);
#294=EDGE_CURVE('',#238,#236,#45,.T.);
#295=EDGE_CURVE('',#239,#237,#46,.T.);
#296=EDGE_CURVE('',#238,#239,#156,.T.);
#297=EDGE_CURVE('',#238,#240,#157,.T.);
#298=EDGE_CURVE('',#241,#239,#158,.T.);
#299=EDGE_CURVE('',#240,#241,#159,.T.);
#300=EDGE_CURVE('',#230,#240,#47,.T.);
#301=EDGE_CURVE('',#232,#241,#48,.T.);
#302=ORIENTED_EDGE('',*,*,#242,.F.);
#303=ORIENTED_EDGE('',*,*,#243,.F.);
#304=ORIENTED_EDGE('',*,*,#244,.F.);
#305=ORIENTED_EDGE('',*,*,#245,.T.);
#306=ORIENTED_EDGE('',*,*,#246,.F.);
#307=ORIENTED_EDGE('',*,*,#245,.F.);
#308=ORIENTED_EDGE('',*,*,#247,.F.);
#309=ORIENTED_EDGE('',*,*,#248,.T.);
#310=ORIENTED_EDGE('',*,*,#249,.F.);
#311=ORIENTED_EDGE('',*,*,#248,.F.);
#312=ORIENTED_EDGE('',*,*,#250,.F.);
#313=ORIENTED_EDGE('',*,*,#251,.T.);
#314=ORIENTED_EDGE('',*,*,#252,.F.);
#315=ORIENTED_EDGE('',*,*,#251,.F.);
#316=ORIENTED_EDGE('',*,*,#253,.F.);
#317=ORIENTED_EDGE('',*,*,#243,.T.);
#318=ORIENTED_EDGE('',*,*,#254,.F.);
#319=ORIENTED_EDGE('',*,*,#255,.F.);
#320=ORIENTED_EDGE('',*,*,#256,.F.);
#321=ORIENTED_EDGE('',*,*,#257,.T.);
#322=ORIENTED_EDGE('',*,*,#258,.F.);
#323=ORIENTED_EDGE('',*,*,#257,.F.);
#324=ORIENTED_EDGE('',*,*,#259,.F.);
#325=ORIENTED_EDGE('',*,*,#260,.T.);
#326=ORIENTED_EDGE('',*,*,#261,.F.);
#327=ORIENTED_EDGE('',*,*,#260,.F.);
#328=ORIENTED_EDGE('',*,*,#262,.F.);
#329=ORIENTED_EDGE('',*,*,#263,.T.);
#330=ORIENTED_EDGE('',*,*,#264,.F.);
#331=ORIENTED_EDGE('',*,*,#263,.F.);
#332=ORIENTED_EDGE('',*,*,#265,.F.);
#333=ORIENTED_EDGE('',*,*,#255,.T.);
#334=ORIENTED_EDGE('',*,*,#266,.F.);
#335=ORIENTED_EDGE('',*,*,#267,.T.);
#336=ORIENTED_EDGE('',*,*,#268,.F.);
#337=ORIENTED_EDGE('',*,*,#267,.F.);
#338=ORIENTED_EDGE('',*,*,#269,.F.);
#339=ORIENTED_EDGE('',*,*,#270,.T.);
#340=ORIENTED_EDGE('',*,*,#271,.F.);
#341=ORIENTED_EDGE('',*,*,#270,.F.);
#342=ORIENTED_EDGE('',*,*,#272,.F.);
#343=ORIENTED_EDGE('',*,*,#273,.T.);
#344=ORIENTED_EDGE('',*,*,#274,.F.);
#345=ORIENTED_EDGE('',*,*,#273,.F.);
#346=ORIENTED_EDGE('',*,*,#275,.F.);
#347=ORIENTED_EDGE('',*,*,#276,.T.);
#348=ORIENTED_EDGE('',*,*,#277,.F.);
#349=ORIENTED_EDGE('',*,*,#276,.F.);
#350=ORIENTED_EDGE('',*,*,#278,.F.);
#351=ORIENTED_EDGE('',*,*,#279,.T.);
#352=ORIENTED_EDGE('',*,*,#280,.F.);
#353=ORIENTED_EDGE('',*,*,#279,.F.);
#354=ORIENTED_EDGE('',*,*,#281,.F.);
#355=ORIENTED_EDGE('',*,*,#282,.T.);
#356=ORIENTED_EDGE('',*,*,#283,.F.);
#357=ORIENTED_EDGE('',*,*,#282,.F.);
#358=ORIENTED_EDGE('',*,*,#284,.F.);
#359=ORIENTED_EDGE('',*,*,#285,.T.);
#360=ORIENTED_EDGE('',*,*,#286,.F.);
#361=ORIENTED_EDGE('',*,*,#287,.F.);
#362=ORIENTED_EDGE('',*,*,#288,.T.);
#363=ORIENTED_EDGE('',*,*,#287,.T.);
#364=ORIENTED_EDGE('',*,*,#289,.F.);
#365=ORIENTED_EDGE('',*,*,#290,.F.);
#366=ORIENTED_EDGE('',*,*,#291,.F.);
#367=ORIENTED_EDGE('',*,*,#290,.T.);
#368=ORIENTED_EDGE('',*,*,#292,.F.);
#369=ORIENTED_EDGE('',*,*,#293,.F.);
#370=ORIENTED_EDGE('',*,*,#294,.T.);
#371=ORIENTED_EDGE('',*,*,#293,.T.);
#372=ORIENTED_EDGE('',*,*,#295,.F.);
#373=ORIENTED_EDGE('',*,*,#296,.F.);
#374=ORIENTED_EDGE('',*,*,#297,.F.);
#375=ORIENTED_EDGE('',*,*,#296,.T.);
#376=ORIENTED_EDGE('',*,*,#298,.F.);
#377=ORIENTED_EDGE('',*,*,#299,.F.);
#378=ORIENTED_EDGE('',*,*,#300,.T.);
#379=ORIENTED_EDGE('',*,*,#299,.T.);
#380=ORIENTED_EDGE('',*,*,#301,.F.);
#381=ORIENTED_EDGE('',*,*,#285,.F.);
#382=ORIENTED_EDGE('',*,*,#301,.T.);
#383=ORIENTED_EDGE('',*,*,#298,.T.);
#384=ORIENTED_EDGE('',*,*,#295,.T.);
#385=ORIENTED_EDGE('',*,*,#292,.T.);
#386=ORIENTED_EDGE('',*,*,#289,.T.);
#387=ORIENTED_EDGE('',*,*,#286,.T.);
#388=ORIENTED_EDGE('',*,*,#242,.T.);
#389=ORIENTED_EDGE('',*,*,#246,.T.);
#390=ORIENTED_EDGE('',*,*,#249,.T.);
#391=ORIENTED_EDGE('',*,*,#252,.T.);
#392=ORIENTED_EDGE('',*,*,#254,.T.);
#393=ORIENTED_EDGE('',*,*,#258,.T.);
#394=ORIENTED_EDGE('',*,*,#261,.T.);
#395=ORIENTED_EDGE('',*,*,#264,.T.);
#396=ORIENTED_EDGE('',*,*,#268,.T.);
#397=ORIENTED_EDGE('',*,*,#271,.T.);
#398=ORIENTED_EDGE('',*,*,#274,.T.);
#399=ORIENTED_EDGE('',*,*,#277,.T.);
#400=ORIENTED_EDGE('',*,*,#280,.T.);
#401=ORIENTED_EDGE('',*,*,#283,.T.);
#402=ORIENTED_EDGE('',*,*,#300,.F.);
#403=ORIENTED_EDGE('',*,*,#284,.T.);
#404=ORIENTED_EDGE('',*,*,#288,.F.);
#405=ORIENTED_EDGE('',*,*,#291,.T.);
#406=ORIENTED_EDGE('',*,*,#294,.F.);
#407=ORIENTED_EDGE('',*,*,#297,.T.);
#408=ORIENTED_EDGE('',*,*,#244,.T.);
#409=ORIENTED_EDGE('',*,*,#253,.T.);
#410=ORIENTED_EDGE('',*,*,#250,.T.);
#411=ORIENTED_EDGE('',*,*,#247,.T.);
#412=ORIENTED_EDGE('',*,*,#256,.T.);
#413=ORIENTED_EDGE('',*,*,#265,.T.);
#414=ORIENTED_EDGE('',*,*,#262,.T.);
#415=ORIENTED_EDGE('',*,*,#259,.T.);
#416=ORIENTED_EDGE('',*,*,#266,.T.);
#417=ORIENTED_EDGE('',*,*,#269,.T.);
#418=ORIENTED_EDGE('',*,*,#272,.T.);
#419=ORIENTED_EDGE('',*,*,#275,.T.);
#420=ORIENTED_EDGE('',*,*,#278,.T.);
#421=ORIENTED_EDGE('',*,*,#281,.T.);
#422=PLANE('',#471);
#423=PLANE('',#472);
#424=PLANE('',#473);
#425=PLANE('',#474);
#426=PLANE('',#475);
#427=PLANE('',#476);
#428=PLANE('',#477);
#429=PLANE('',#478);
#430=PLANE('',#497);
#431=PLANE('',#501);
#432=PLANE('',#505);
#433=PLANE('',#509);
#434=PLANE('',#510);
#435=ADVANCED_FACE('',(#58),#422,.F.);
#436=ADVANCED_FACE('',(#59),#423,.F.);
#437=ADVANCED_FACE('',(#60),#424,.F.);
#438=ADVANCED_FACE('',(#61),#425,.F.);
#439=ADVANCED_FACE('',(#62),#426,.F.);
#440=ADVANCED_FACE('',(#63),#427,.F.);
#441=ADVANCED_FACE('',(#64),#428,.F.);
#442=ADVANCED_FACE('',(#65),#429,.F.);
#443=ADVANCED_FACE('',(#66),#49,.F.);
#444=ADVANCED_FACE('',(#67),#50,.F.);
#445=ADVANCED_FACE('',(#68),#51,.F.);
#446=ADVANCED_FACE('',(#69),#52,.F.);
#447=ADVANCED_FACE('',(#70),#53,.F.);
#448=ADVANCED_FACE('',(#71),#54,.F.);
#449=ADVANCED_FACE('',(#72),#430,.T.);
#450=ADVANCED_FACE('',(#73),#55,.T.);
#451=ADVANCED_FACE('',(#74),#431,.T.);
#452=ADVANCED_FACE('',(#75),#56,.T.);
#453=ADVANCED_FACE('',(#76),#432,.T.);
#454=ADVANCED_FACE('',(#77),#57,.T.);
#455=ADVANCED_FACE('',(#78,#15,#16,#17,#18,#19,#20,#21,#22),#433,.T.);
#456=ADVANCED_FACE('',(#79,#23,#24,#25,#26,#27,#28,#29,#30),#434,.F.);
#457=CLOSED_SHELL('',(#435,#436,#437,#438,#439,#440,#441,#442,#443,#444,
#445,#446,#447,#448,#449,#450,#451,#452,#453,#454,#455,#456));
#458=DERIVED_UNIT_ELEMENT(#460,1.);
#459=DERIVED_UNIT_ELEMENT(#763,-3.);
#460=(
MASS_UNIT()
NAMED_UNIT(*)
SI_UNIT(.KILO.,.GRAM.)
);
#461=DERIVED_UNIT((#458,#459));
#462=MEASURE_REPRESENTATION_ITEM('density measure',
POSITIVE_RATIO_MEASURE(7850.),#461);
#463=PROPERTY_DEFINITION_REPRESENTATION(#468,#465);
#464=PROPERTY_DEFINITION_REPRESENTATION(#469,#466);
#465=REPRESENTATION('material name',(#467),#760);
#466=REPRESENTATION('density',(#462),#760);
#467=DESCRIPTIVE_REPRESENTATION_ITEM('Ocel','Ocel');
#468=PROPERTY_DEFINITION('material property','material name',#770);
#469=PROPERTY_DEFINITION('material property','density of part',#770);
#470=AXIS2_PLACEMENT_3D('',#635,#511,#512);
#471=AXIS2_PLACEMENT_3D('',#636,#513,#514);
#472=AXIS2_PLACEMENT_3D('',#645,#519,#520);
#473=AXIS2_PLACEMENT_3D('',#651,#524,#525);
#474=AXIS2_PLACEMENT_3D('',#657,#529,#530);
#475=AXIS2_PLACEMENT_3D('',#660,#533,#534);
#476=AXIS2_PLACEMENT_3D('',#669,#539,#540);
#477=AXIS2_PLACEMENT_3D('',#675,#544,#545);
#478=AXIS2_PLACEMENT_3D('',#681,#549,#550);
#479=AXIS2_PLACEMENT_3D('',#684,#553,#554);
#480=AXIS2_PLACEMENT_3D('',#686,#555,#556);
#481=AXIS2_PLACEMENT_3D('',#689,#558,#559);
#482=AXIS2_PLACEMENT_3D('',#690,#560,#561);
#483=AXIS2_PLACEMENT_3D('',#692,#562,#563);
#484=AXIS2_PLACEMENT_3D('',#695,#565,#566);
#485=AXIS2_PLACEMENT_3D('',#696,#567,#568);
#486=AXIS2_PLACEMENT_3D('',#698,#569,#570);
#487=AXIS2_PLACEMENT_3D('',#701,#572,#573);
#488=AXIS2_PLACEMENT_3D('',#702,#574,#575);
#489=AXIS2_PLACEMENT_3D('',#704,#576,#577);
#490=AXIS2_PLACEMENT_3D('',#707,#579,#580);
#491=AXIS2_PLACEMENT_3D('',#708,#581,#582);
#492=AXIS2_PLACEMENT_3D('',#710,#583,#584);
#493=AXIS2_PLACEMENT_3D('',#713,#586,#587);
#494=AXIS2_PLACEMENT_3D('',#714,#588,#589);
#495=AXIS2_PLACEMENT_3D('',#716,#590,#591);
#496=AXIS2_PLACEMENT_3D('',#719,#593,#594);
#497=AXIS2_PLACEMENT_3D('',#720,#595,#596);
#498=AXIS2_PLACEMENT_3D('',#729,#601,#602);
#499=AXIS2_PLACEMENT_3D('',#731,#603,#604);
#500=AXIS2_PLACEMENT_3D('',#733,#605,#606);
#501=AXIS2_PLACEMENT_3D('',#735,#608,#609);
#502=AXIS2_PLACEMENT_3D('',#741,#613,#614);
#503=AXIS2_PLACEMENT_3D('',#743,#615,#616);
#504=AXIS2_PLACEMENT_3D('',#745,#617,#618);
#505=AXIS2_PLACEMENT_3D('',#747,#620,#621);
#506=AXIS2_PLACEMENT_3D('',#753,#625,#626);
#507=AXIS2_PLACEMENT_3D('',#754,#627,#628);
#508=AXIS2_PLACEMENT_3D('',#755,#629,#630);
#509=AXIS2_PLACEMENT_3D('',#756,#631,#632);
#510=AXIS2_PLACEMENT_3D('',#757,#633,#634);
#511=DIRECTION('axis',(0.,0.,1.));
#512=DIRECTION('refdir',(1.,0.,0.));
#513=DIRECTION('center_axis',(-1.,0.,0.));
#514=DIRECTION('ref_axis',(0.,0.,1.));
#515=DIRECTION('',(0.,0.,-1.));
#516=DIRECTION('',(0.,1.,0.));
#517=DIRECTION('',(0.,0.,1.));
#518=DIRECTION('',(0.,1.,0.));
#519=DIRECTION('center_axis',(0.,0.,-1.));
#520=DIRECTION('ref_axis',(-1.,0.,0.));
#521=DIRECTION('',(1.,0.,0.));
#522=DIRECTION('',(-1.,0.,0.));
#523=DIRECTION('',(0.,1.,0.));
#524=DIRECTION('center_axis',(1.,0.,0.));
#525=DIRECTION('ref_axis',(0.,0.,-1.));
#526=DIRECTION('',(0.,0.,1.));
#527=DIRECTION('',(0.,0.,-1.));
#528=DIRECTION('',(0.,1.,0.));
#529=DIRECTION('center_axis',(0.,0.,1.));
#530=DIRECTION('ref_axis',(1.,0.,0.));
#531=DIRECTION('',(-1.,0.,0.));
#532=DIRECTION('',(1.,0.,0.));
#533=DIRECTION('center_axis',(-1.,0.,0.));
#534=DIRECTION('ref_axis',(0.,0.,1.));
#535=DIRECTION('',(0.,0.,-1.));
#536=DIRECTION('',(0.,1.,0.));
#537=DIRECTION('',(0.,0.,1.));
#538=DIRECTION('',(0.,1.,0.));
#539=DIRECTION('center_axis',(0.,0.,-1.));
#540=DIRECTION('ref_axis',(-1.,0.,0.));
#541=DIRECTION('',(1.,0.,0.));
#542=DIRECTION('',(-1.,0.,0.));
#543=DIRECTION('',(0.,1.,0.));
#544=DIRECTION('center_axis',(1.,0.,0.));
#545=DIRECTION('ref_axis',(0.,0.,-1.));
#546=DIRECTION('',(0.,0.,1.));
#547=DIRECTION('',(0.,0.,-1.));
#548=DIRECTION('',(0.,1.,0.));
#549=DIRECTION('center_axis',(0.,0.,1.));
#550=DIRECTION('ref_axis',(1.,0.,0.));
#551=DIRECTION('',(-1.,0.,0.));
#552=DIRECTION('',(1.,0.,0.));
#553=DIRECTION('center_axis',(0.,1.,0.));
#554=DIRECTION('ref_axis',(0.,0.,-1.));
#555=DIRECTION('center_axis',(0.,1.,0.));
#556=DIRECTION('ref_axis',(0.,0.,-1.));
#557=DIRECTION('',(0.,1.,0.));
#558=DIRECTION('center_axis',(0.,-1.,0.));
#559=DIRECTION('ref_axis',(0.,0.,-1.));
#560=DIRECTION('center_axis',(0.,1.,0.));
#561=DIRECTION('ref_axis',(0.,0.,-1.));
#562=DIRECTION('center_axis',(0.,1.,0.));
#563=DIRECTION('ref_axis',(0.,0.,-1.));
#564=DIRECTION('',(0.,1.,0.));
#565=DIRECTION('center_axis',(0.,-1.,0.));
#566=DIRECTION('ref_axis',(0.,0.,-1.));
#567=DIRECTION('center_axis',(0.,1.,0.));
#568=DIRECTION('ref_axis',(0.,0.,-1.));
#569=DIRECTION('center_axis',(0.,1.,0.));
#570=DIRECTION('ref_axis',(0.,0.,-1.));
#571=DIRECTION('',(0.,1.,0.));
#572=DIRECTION('center_axis',(0.,-1.,0.));
#573=DIRECTION('ref_axis',(0.,0.,-1.));
#574=DIRECTION('center_axis',(0.,1.,0.));
#575=DIRECTION('ref_axis',(0.,0.,-1.));
#576=DIRECTION('center_axis',(0.,1.,0.));
#577=DIRECTION('ref_axis',(0.,0.,-1.));
#578=DIRECTION('',(0.,1.,0.));
#579=DIRECTION('center_axis',(0.,-1.,0.));
#580=DIRECTION('ref_axis',(0.,0.,-1.));
#581=DIRECTION('center_axis',(0.,1.,0.));
#582=DIRECTION('ref_axis',(0.,0.,-1.));
#583=DIRECTION('center_axis',(0.,1.,0.));
#584=DIRECTION('ref_axis',(0.,0.,-1.));
#585=DIRECTION('',(0.,1.,0.));
#586=DIRECTION('center_axis',(0.,-1.,0.));
#587=DIRECTION('ref_axis',(0.,0.,-1.));
#588=DIRECTION('center_axis',(0.,1.,0.));
#589=DIRECTION('ref_axis',(0.,0.,-1.));
#590=DIRECTION('center_axis',(0.,1.,0.));
#591=DIRECTION('ref_axis',(0.,0.,-1.));
#592=DIRECTION('',(0.,1.,0.));
#593=DIRECTION('center_axis',(0.,-1.,0.));
#594=DIRECTION('ref_axis',(0.,0.,-1.));
#595=DIRECTION('center_axis',(0.755689082789818,0.,0.654930538417842));
#596=DIRECTION('ref_axis',(0.654930538417842,0.,-0.755689082789818));
#597=DIRECTION('',(-0.654930538417842,0.,0.755689082789818));
#598=DIRECTION('',(0.,1.,0.));
#599=DIRECTION('',(0.654930538417842,0.,-0.755689082789818));
#600=DIRECTION('',(0.,1.,0.));
#601=DIRECTION('center_axis',(0.,1.,0.));
#602=DIRECTION('ref_axis',(-0.485642931178631,0.,0.874157276121538));
#603=DIRECTION('center_axis',(0.,1.,0.));
#604=DIRECTION('ref_axis',(-0.485642931178631,0.,0.874157276121538));
#605=DIRECTION('center_axis',(0.,1.,0.));
#606=DIRECTION('ref_axis',(-0.485642931178631,0.,0.874157276121538));
#607=DIRECTION('',(0.,1.,0.));
#608=DIRECTION('center_axis',(-0.485642931178632,0.,0.874157276121538));
#609=DIRECTION('ref_axis',(0.874157276121538,0.,0.485642931178632));
#610=DIRECTION('',(-0.874157276121538,0.,-0.485642931178632));
#611=DIRECTION('',(0.874157276121538,0.,0.485642931178632));
#612=DIRECTION('',(0.,1.,0.));
#613=DIRECTION('center_axis',(0.,1.,0.));
#614=DIRECTION('ref_axis',(0.,0.,-1.));
#615=DIRECTION('center_axis',(0.,1.,0.));
#616=DIRECTION('ref_axis',(0.,0.,-1.));
#617=DIRECTION('center_axis',(0.,1.,0.));
#618=DIRECTION('ref_axis',(0.,0.,-1.));
#619=DIRECTION('',(0.,1.,0.));
#620=DIRECTION('center_axis',(0.,0.,-1.));
#621=DIRECTION('ref_axis',(-1.,0.,0.));
#622=DIRECTION('',(1.,0.,0.));
#623=DIRECTION('',(-1.,0.,0.));
#624=DIRECTION('',(0.,1.,0.));
#625=DIRECTION('center_axis',(0.,1.,0.));
#626=DIRECTION('ref_axis',(0.755689082789817,0.,0.654930538417842));
#627=DIRECTION('center_axis',(0.,1.,0.));
#628=DIRECTION('ref_axis',(0.755689082789817,0.,0.654930538417842));
#629=DIRECTION('center_axis',(0.,1.,0.));
#630=DIRECTION('ref_axis',(0.755689082789817,0.,0.654930538417842));
#631=DIRECTION('center_axis',(0.,1.,0.));
#632=DIRECTION('ref_axis',(1.,0.,0.));
#633=DIRECTION('center_axis',(0.,1.,0.));
#634=DIRECTION('ref_axis',(1.,0.,0.));
#635=CARTESIAN_POINT('',(0.,0.,0.));
#636=CARTESIAN_POINT('Origin',(216.,0.,85.));
#637=CARTESIAN_POINT('',(216.,2.,175.));
#638=CARTESIAN_POINT('',(216.,2.,85.));
#639=CARTESIAN_POINT('',(216.,2.,85.));
#640=CARTESIAN_POINT('',(216.,0.,175.));
#641=CARTESIAN_POINT('',(216.,0.,175.));
#642=CARTESIAN_POINT('',(216.,0.,85.));
#643=CARTESIAN_POINT('',(216.,0.,85.));
#644=CARTESIAN_POINT('',(216.,0.,85.));
#645=CARTESIAN_POINT('Origin',(224.,0.,85.));
#646=CARTESIAN_POINT('',(224.,2.,85.));
#647=CARTESIAN_POINT('',(187.,2.,85.));
#648=CARTESIAN_POINT('',(224.,0.,85.));
#649=CARTESIAN_POINT('',(187.,0.,85.));
#650=CARTESIAN_POINT('',(224.,0.,85.));
#651=CARTESIAN_POINT('Origin',(224.,0.,175.));
#652=CARTESIAN_POINT('',(224.,2.,175.));
#653=CARTESIAN_POINT('',(224.,2.,130.));
#654=CARTESIAN_POINT('',(224.,0.,175.));
#655=CARTESIAN_POINT('',(224.,0.,130.));
#656=CARTESIAN_POINT('',(224.,0.,175.));
#657=CARTESIAN_POINT('Origin',(216.,0.,175.));
#658=CARTESIAN_POINT('',(183.,2.,175.));
#659=CARTESIAN_POINT('',(183.,0.,175.));
#660=CARTESIAN_POINT('Origin',(216.,0.,72.));
#661=CARTESIAN_POINT('',(216.,2.,80.));
#662=CARTESIAN_POINT('',(216.,2.,72.));
#663=CARTESIAN_POINT('',(216.,2.,78.5));
#664=CARTESIAN_POINT('',(216.,0.,80.));
#665=CARTESIAN_POINT('',(216.,0.,80.));
#666=CARTESIAN_POINT('',(216.,0.,72.));
#667=CARTESIAN_POINT('',(216.,0.,78.5));
#668=CARTESIAN_POINT('',(216.,0.,72.));
#669=CARTESIAN_POINT('Origin',(224.,0.,72.));
#670=CARTESIAN_POINT('',(224.,2.,72.));
#671=CARTESIAN_POINT('',(187.,2.,72.));
#672=CARTESIAN_POINT('',(224.,0.,72.));
#673=CARTESIAN_POINT('',(187.,0.,72.));
#674=CARTESIAN_POINT('',(224.,0.,72.));
#675=CARTESIAN_POINT('Origin',(224.,0.,80.));
#676=CARTESIAN_POINT('',(224.,2.,80.));
#677=CARTESIAN_POINT('',(224.,2.,82.5));
#678=CARTESIAN_POINT('',(224.,0.,80.));
#679=CARTESIAN_POINT('',(224.,0.,82.5));
#680=CARTESIAN_POINT('',(224.,0.,80.));
#681=CARTESIAN_POINT('Origin',(216.,0.,80.));
#682=CARTESIAN_POINT('',(183.,2.,80.));
#683=CARTESIAN_POINT('',(183.,0.,80.));
#684=CARTESIAN_POINT('Origin',(350.,1.1,10.));
#685=CARTESIAN_POINT('',(350.,0.,14.5));
#686=CARTESIAN_POINT('Origin',(350.,0.,10.));
#687=CARTESIAN_POINT('',(350.,2.,14.5));
#688=CARTESIAN_POINT('',(350.,1.1,14.5));
#689=CARTESIAN_POINT('Origin',(350.,2.,10.));
#690=CARTESIAN_POINT('Origin',(170.,1.1,135.));
#691=CARTESIAN_POINT('',(170.,0.,139.5));
#692=CARTESIAN_POINT('Origin',(170.,0.,135.));
#693=CARTESIAN_POINT('',(170.,2.,139.5));
#694=CARTESIAN_POINT('',(170.,1.1,139.5));
#695=CARTESIAN_POINT('Origin',(170.,2.,135.));
#696=CARTESIAN_POINT('Origin',(10.6217782649107,1.1,45.));
#697=CARTESIAN_POINT('',(10.6217782649107,0.,49.5));
#698=CARTESIAN_POINT('Origin',(10.6217782649107,0.,45.));
#699=CARTESIAN_POINT('',(10.6217782649107,2.,49.5));
#700=CARTESIAN_POINT('',(10.6217782649107,1.1,49.5));
#701=CARTESIAN_POINT('Origin',(10.6217782649107,2.,45.));
#702=CARTESIAN_POINT('Origin',(20.,1.1,10.));
#703=CARTESIAN_POINT('',(20.,0.,14.5));
#704=CARTESIAN_POINT('Origin',(20.,0.,10.));
#705=CARTESIAN_POINT('',(20.,2.,14.5));
#706=CARTESIAN_POINT('',(20.,1.1,14.5));
#707=CARTESIAN_POINT('Origin',(20.,2.,10.));
#708=CARTESIAN_POINT('Origin',(270.,1.1,110.));
#709=CARTESIAN_POINT('',(270.,0.,114.5));
#710=CARTESIAN_POINT('Origin',(270.,0.,110.));
#711=CARTESIAN_POINT('',(270.,2.,114.5));
#712=CARTESIAN_POINT('',(270.,1.1,114.5));
#713=CARTESIAN_POINT('Origin',(270.,2.,110.));
#714=CARTESIAN_POINT('Origin',(-32.,1.1,10.));
#715=CARTESIAN_POINT('',(-32.,0.,14.5));
#716=CARTESIAN_POINT('Origin',(-32.,0.,10.));
#717=CARTESIAN_POINT('',(-32.,2.,14.5));
#718=CARTESIAN_POINT('',(-32.,1.1,14.5));
#719=CARTESIAN_POINT('Origin',(-32.,2.,10.));
#720=CARTESIAN_POINT('Origin',(238.892227069746,0.,176.373263460446));
#721=CARTESIAN_POINT('',(368.892227069745,0.,26.3732634604461));
#722=CARTESIAN_POINT('',(238.892227069746,0.,176.373263460446));
#723=CARTESIAN_POINT('',(368.892227069745,0.,26.373263460446));
#724=CARTESIAN_POINT('',(368.892227069745,2.,26.3732634604461));
#725=CARTESIAN_POINT('',(368.892227069745,0.,26.3732634604461));
#726=CARTESIAN_POINT('',(238.892227069746,2.,176.373263460446));
#727=CARTESIAN_POINT('',(368.892227069745,2.,26.373263460446));
#728=CARTESIAN_POINT('',(238.892227069746,0.,176.373263460446));
#729=CARTESIAN_POINT('Origin',(220.,0.,160.));
#730=CARTESIAN_POINT('',(207.858926720534,0.,181.853931903039));
#731=CARTESIAN_POINT('Origin',(220.,0.,160.));
#732=CARTESIAN_POINT('',(207.858926720534,2.,181.853931903039));
#733=CARTESIAN_POINT('Origin',(220.,2.,160.));
#734=CARTESIAN_POINT('',(207.858926720534,0.,181.853931903039));
#735=CARTESIAN_POINT('Origin',(-62.1410732794658,0.,31.8539319030385));
#736=CARTESIAN_POINT('',(-62.1410732794658,0.,31.8539319030384));
#737=CARTESIAN_POINT('',(207.858926720534,0.,181.853931903039));
#738=CARTESIAN_POINT('',(-62.1410732794658,2.,31.8539319030384));
#739=CARTESIAN_POINT('',(207.858926720534,2.,181.853931903039));
#740=CARTESIAN_POINT('',(-62.1410732794658,0.,31.8539319030384));
#741=CARTESIAN_POINT('Origin',(-50.,0.,10.));
#742=CARTESIAN_POINT('',(-50.,0.,-15.));
#743=CARTESIAN_POINT('Origin',(-50.,0.,10.));
#744=CARTESIAN_POINT('',(-50.,2.,-15.));
#745=CARTESIAN_POINT('Origin',(-50.,2.,10.));
#746=CARTESIAN_POINT('',(-50.,0.,-15.));
#747=CARTESIAN_POINT('Origin',(350.,0.,-15.));
#748=CARTESIAN_POINT('',(350.,0.,-15.));
#749=CARTESIAN_POINT('',(-50.,0.,-15.));
#750=CARTESIAN_POINT('',(350.,2.,-15.));
#751=CARTESIAN_POINT('',(-50.,2.,-15.));
#752=CARTESIAN_POINT('',(350.,0.,-15.));
#753=CARTESIAN_POINT('Origin',(350.,0.,10.));
#754=CARTESIAN_POINT('Origin',(350.,0.,10.));
#755=CARTESIAN_POINT('Origin',(350.,2.,10.));
#756=CARTESIAN_POINT('Origin',(150.,2.,85.));
#757=CARTESIAN_POINT('Origin',(150.,0.,85.));
#758=UNCERTAINTY_MEASURE_WITH_UNIT(LENGTH_MEASURE(0.01),#762,
'DISTANCE_ACCURACY_VALUE',
'Maximum model space distance between geometric entities at asserted c
onnectivities');
#759=UNCERTAINTY_MEASURE_WITH_UNIT(LENGTH_MEASURE(0.01),#762,
'DISTANCE_ACCURACY_VALUE',
'Maximum model space distance between geometric entities at asserted c
onnectivities');
#760=(
GEOMETRIC_REPRESENTATION_CONTEXT(3)
GLOBAL_UNCERTAINTY_ASSIGNED_CONTEXT((#758))
GLOBAL_UNIT_ASSIGNED_CONTEXT((#762,#764,#765))
REPRESENTATION_CONTEXT('','3D')
);
#761=(
GEOMETRIC_REPRESENTATION_CONTEXT(3)
GLOBAL_UNCERTAINTY_ASSIGNED_CONTEXT((#759))
GLOBAL_UNIT_ASSIGNED_CONTEXT((#762,#764,#765))
REPRESENTATION_CONTEXT('','3D')
);
#762=(
LENGTH_UNIT()
NAMED_UNIT(*)
SI_UNIT(.MILLI.,.METRE.)
);
#763=(
LENGTH_UNIT()
NAMED_UNIT(*)
SI_UNIT($,.METRE.)
);
#764=(
NAMED_UNIT(*)
PLANE_ANGLE_UNIT()
SI_UNIT($,.RADIAN.)
);
#765=(
NAMED_UNIT(*)
SI_UNIT($,.STERADIAN.)
SOLID_ANGLE_UNIT()
);
#766=SHAPE_DEFINITION_REPRESENTATION(#767,#768);
#767=PRODUCT_DEFINITION_SHAPE('',$,#770);
#768=SHAPE_REPRESENTATION('',(#470),#760);
#769=PRODUCT_DEFINITION_CONTEXT('part definition',#774,'design');
#770=PRODUCT_DEFINITION('2026-02-12-02-13-22-735','pl\X\E1t vn\X2\011B\X0\j
\X2\016100ED\X0\',#771,#769);
#771=PRODUCT_DEFINITION_FORMATION('',$,#776);
#772=PRODUCT_RELATED_PRODUCT_CATEGORY('pl\X\E1t vn\X2\011B\X0\j\X2\016100ED\X0\',
'pl\X\E1t vn\X2\011B\X0\j\X2\016100ED\X0\',(#776));
#773=APPLICATION_PROTOCOL_DEFINITION('international standard',
'automotive_design',2009,#774);
#774=APPLICATION_CONTEXT(
'Core Data for Automotive Mechanical Design Process');
#775=PRODUCT_CONTEXT('part definition',#774,'mechanical');
#776=PRODUCT('2026-02-12-02-13-22-735','pl\X\E1t vn\X2\011B\X0\j\X2\016100ED\X0\',
$,(#775));
#777=PRESENTATION_STYLE_ASSIGNMENT((#778));
#778=SURFACE_STYLE_USAGE(.BOTH.,#779);
#779=SURFACE_SIDE_STYLE('',(#780));
#780=SURFACE_STYLE_FILL_AREA(#781);
#781=FILL_AREA_STYLE('Ocel \X2\2013\X0\ sat\X\E9n',(#782));
#782=FILL_AREA_STYLE_COLOUR('Ocel \X2\2013\X0\ sat\X\E9n',#783);
#783=COLOUR_RGB('Ocel \X2\2013\X0\ sat\X\E9n',0.627450980392157,0.627450980392157,
0.627450980392157);
ENDSEC;
END-ISO-10303-21;
