ISO-10303-21;
HEADER;
/* Generated by software containing ST-Developer
 * from STEP Tools, Inc. (www.steptools.com) 
 */

FILE_DESCRIPTION(
/* description */ (''),
/* implementation_level */ '2;1');

FILE_NAME(
/* name */ '',
/* time_stamp */ '2026-04-16T01:26:08+02:00',
/* author */ (''),
/* organization */ (''),
/* preprocessor_version */ 'ST-DEVELOPER v20.1',
/* originating_system */ 'Autodesk Translation Framework v15.8.0.0',
/* authorisation */ '');

FILE_SCHEMA (('AUTOMOTIVE_DESIGN { 1 0 10303 214 3 1 1 }'));
ENDSEC;

DATA;
#10=MECHANICAL_DESIGN_GEOMETRIC_PRESENTATION_REPRESENTATION('',(#13,#14,
#15),#1225);
#11=SHAPE_REPRESENTATION_RELATIONSHIP('SRR','None',#1232,#12);
#12=ADVANCED_BREP_SHAPE_REPRESENTATION('',(#16,#17,#18),#1224);
#13=STYLED_ITEM('',(#1241),#16);
#14=STYLED_ITEM('',(#1241),#17);
#15=STYLED_ITEM('',(#1241),#18);
#16=MANIFOLD_SOLID_BREP('"3" krajn\X\ED',#739);
#17=MANIFOLD_SOLID_BREP('"3" krajn\X\ED (1)',#740);
#18=MANIFOLD_SOLID_BREP('"3" krajn\X\ED (1) (1)',#741);
#19=CYLINDRICAL_SURFACE('',#769,17.5);
#20=CYLINDRICAL_SURFACE('',#770,17.5);
#21=CYLINDRICAL_SURFACE('',#773,2.);
#22=CYLINDRICAL_SURFACE('',#774,2.);
#23=CYLINDRICAL_SURFACE('',#783,10.);
#24=CYLINDRICAL_SURFACE('',#785,7.99999999999999);
#25=CYLINDRICAL_SURFACE('',#787,10.);
#26=CYLINDRICAL_SURFACE('',#789,7.99999999999999);
#27=CYLINDRICAL_SURFACE('',#805,2.);
#28=CYLINDRICAL_SURFACE('',#807,17.5);
#29=CYLINDRICAL_SURFACE('',#808,2.);
#30=CYLINDRICAL_SURFACE('',#813,17.5);
#31=FACE_BOUND('',#92,.T.);
#32=FACE_BOUND('',#94,.T.);
#33=FACE_BOUND('',#96,.T.);
#34=FACE_BOUND('',#98,.T.);
#35=FACE_BOUND('',#109,.T.);
#36=FACE_BOUND('',#110,.T.);
#37=FACE_BOUND('',#113,.T.);
#38=FACE_BOUND('',#114,.T.);
#39=FACE_BOUND('',#121,.T.);
#40=FACE_BOUND('',#123,.T.);
#41=FACE_BOUND('',#124,.T.);
#42=FACE_BOUND('',#126,.T.);
#43=FACE_BOUND('',#128,.T.);
#44=FACE_BOUND('',#129,.T.);
#45=FACE_BOUND('',#131,.T.);
#46=FACE_BOUND('',#132,.T.);
#47=FACE_BOUND('',#134,.T.);
#48=FACE_BOUND('',#136,.T.);
#49=FACE_BOUND('',#148,.T.);
#50=FACE_BOUND('',#150,.T.);
#51=FACE_OUTER_BOUND('',#91,.T.);
#52=FACE_OUTER_BOUND('',#93,.T.);
#53=FACE_OUTER_BOUND('',#95,.T.);
#54=FACE_OUTER_BOUND('',#97,.T.);
#55=FACE_OUTER_BOUND('',#99,.T.);
#56=FACE_OUTER_BOUND('',#100,.T.);
#57=FACE_OUTER_BOUND('',#101,.T.);
#58=FACE_OUTER_BOUND('',#102,.T.);
#59=FACE_OUTER_BOUND('',#103,.T.);
#60=FACE_OUTER_BOUND('',#104,.T.);
#61=FACE_OUTER_BOUND('',#105,.T.);
#62=FACE_OUTER_BOUND('',#106,.T.);
#63=FACE_OUTER_BOUND('',#107,.T.);
#64=FACE_OUTER_BOUND('',#108,.T.);
#65=FACE_OUTER_BOUND('',#111,.T.);
#66=FACE_OUTER_BOUND('',#112,.T.);
#67=FACE_OUTER_BOUND('',#115,.T.);
#68=FACE_OUTER_BOUND('',#116,.T.);
#69=FACE_OUTER_BOUND('',#117,.T.);
#70=FACE_OUTER_BOUND('',#118,.T.);
#71=FACE_OUTER_BOUND('',#119,.T.);
#72=FACE_OUTER_BOUND('',#120,.T.);
#73=FACE_OUTER_BOUND('',#122,.T.);
#74=FACE_OUTER_BOUND('',#125,.T.);
#75=FACE_OUTER_BOUND('',#127,.T.);
#76=FACE_OUTER_BOUND('',#130,.T.);
#77=FACE_OUTER_BOUND('',#133,.T.);
#78=FACE_OUTER_BOUND('',#135,.T.);
#79=FACE_OUTER_BOUND('',#137,.T.);
#80=FACE_OUTER_BOUND('',#138,.T.);
#81=FACE_OUTER_BOUND('',#139,.T.);
#82=FACE_OUTER_BOUND('',#140,.T.);
#83=FACE_OUTER_BOUND('',#141,.T.);
#84=FACE_OUTER_BOUND('',#142,.T.);
#85=FACE_OUTER_BOUND('',#143,.T.);
#86=FACE_OUTER_BOUND('',#144,.T.);
#87=FACE_OUTER_BOUND('',#145,.T.);
#88=FACE_OUTER_BOUND('',#146,.T.);
#89=FACE_OUTER_BOUND('',#147,.T.);
#90=FACE_OUTER_BOUND('',#149,.T.);
#91=EDGE_LOOP('',(#479,#480,#481,#482));
#92=EDGE_LOOP('',(#483));
#93=EDGE_LOOP('',(#484,#485,#486,#487));
#94=EDGE_LOOP('',(#488));
#95=EDGE_LOOP('',(#489,#490,#491,#492));
#96=EDGE_LOOP('',(#493));
#97=EDGE_LOOP('',(#494,#495,#496,#497));
#98=EDGE_LOOP('',(#498));
#99=EDGE_LOOP('',(#499,#500,#501,#502));
#100=EDGE_LOOP('',(#503,#504,#505,#506));
#101=EDGE_LOOP('',(#507,#508,#509,#510));
#102=EDGE_LOOP('',(#511,#512,#513,#514));
#103=EDGE_LOOP('',(#515,#516,#517,#518));
#104=EDGE_LOOP('',(#519,#520,#521,#522));
#105=EDGE_LOOP('',(#523,#524,#525,#526));
#106=EDGE_LOOP('',(#527,#528,#529,#530));
#107=EDGE_LOOP('',(#531,#532,#533,#534));
#108=EDGE_LOOP('',(#535,#536,#537,#538));
#109=EDGE_LOOP('',(#539));
#110=EDGE_LOOP('',(#540));
#111=EDGE_LOOP('',(#541,#542,#543,#544));
#112=EDGE_LOOP('',(#545,#546,#547,#548));
#113=EDGE_LOOP('',(#549));
#114=EDGE_LOOP('',(#550));
#115=EDGE_LOOP('',(#551,#552,#553,#554));
#116=EDGE_LOOP('',(#555,#556,#557,#558));
#117=EDGE_LOOP('',(#559,#560,#561,#562));
#118=EDGE_LOOP('',(#563,#564,#565,#566));
#119=EDGE_LOOP('',(#567,#568,#569,#570));
#120=EDGE_LOOP('',(#571,#572,#573,#574));
#121=EDGE_LOOP('',(#575,#576,#577,#578));
#122=EDGE_LOOP('',(#579,#580,#581,#582));
#123=EDGE_LOOP('',(#583,#584,#585,#586));
#124=EDGE_LOOP('',(#587,#588,#589,#590));
#125=EDGE_LOOP('',(#591,#592,#593,#594));
#126=EDGE_LOOP('',(#595,#596,#597,#598));
#127=EDGE_LOOP('',(#599,#600,#601,#602));
#128=EDGE_LOOP('',(#603));
#129=EDGE_LOOP('',(#604));
#130=EDGE_LOOP('',(#605,#606,#607,#608));
#131=EDGE_LOOP('',(#609));
#132=EDGE_LOOP('',(#610));
#133=EDGE_LOOP('',(#611,#612,#613,#614));
#134=EDGE_LOOP('',(#615));
#135=EDGE_LOOP('',(#616,#617,#618,#619));
#136=EDGE_LOOP('',(#620));
#137=EDGE_LOOP('',(#621,#622,#623,#624));
#138=EDGE_LOOP('',(#625,#626,#627,#628));
#139=EDGE_LOOP('',(#629,#630,#631,#632));
#140=EDGE_LOOP('',(#633,#634,#635,#636));
#141=EDGE_LOOP('',(#637,#638,#639,#640));
#142=EDGE_LOOP('',(#641,#642,#643,#644));
#143=EDGE_LOOP('',(#645,#646,#647,#648));
#144=EDGE_LOOP('',(#649,#650,#651,#652));
#145=EDGE_LOOP('',(#653,#654,#655,#656));
#146=EDGE_LOOP('',(#657,#658,#659,#660));
#147=EDGE_LOOP('',(#661,#662,#663,#664));
#148=EDGE_LOOP('',(#665));
#149=EDGE_LOOP('',(#666,#667,#668,#669));
#150=EDGE_LOOP('',(#670));
#151=CIRCLE('',#756,17.5);
#152=CIRCLE('',#757,2.);
#153=CIRCLE('',#759,17.5);
#154=CIRCLE('',#760,2.);
#155=CIRCLE('',#762,17.5);
#156=CIRCLE('',#763,2.);
#157=CIRCLE('',#765,17.5);
#158=CIRCLE('',#766,2.);
#159=CIRCLE('',#777,10.);
#160=CIRCLE('',#778,7.99999999999999);
#161=CIRCLE('',#781,10.);
#162=CIRCLE('',#782,7.99999999999999);
#163=CIRCLE('',#784,10.);
#164=CIRCLE('',#786,7.99999999999999);
#165=CIRCLE('',#788,10.);
#166=CIRCLE('',#790,7.99999999999999);
#167=CIRCLE('',#798,17.5);
#168=CIRCLE('',#799,2.);
#169=CIRCLE('',#801,17.5);
#170=CIRCLE('',#802,2.);
#171=CIRCLE('',#809,2.);
#172=CIRCLE('',#810,2.);
#173=CIRCLE('',#814,17.5);
#174=CIRCLE('',#815,17.5);
#175=LINE('',#1025,#247);
#176=LINE('',#1027,#248);
#177=LINE('',#1029,#249);
#178=LINE('',#1036,#250);
#179=LINE('',#1038,#251);
#180=LINE('',#1040,#252);
#181=LINE('',#1047,#253);
#182=LINE('',#1051,#254);
#183=LINE('',#1052,#255);
#184=LINE('',#1058,#256);
#185=LINE('',#1062,#257);
#186=LINE('',#1063,#258);
#187=LINE('',#1067,#259);
#188=LINE('',#1068,#260);
#189=LINE('',#1070,#261);
#190=LINE('',#1071,#262);
#191=LINE('',#1073,#263);
#192=LINE('',#1075,#264);
#193=LINE('',#1077,#265);
#194=LINE('',#1079,#266);
#195=LINE('',#1081,#267);
#196=LINE('',#1083,#268);
#197=LINE('',#1087,#269);
#198=LINE('',#1089,#270);
#199=LINE('',#1091,#271);
#200=LINE('',#1092,#272);
#201=LINE('',#1095,#273);
#202=LINE('',#1097,#274);
#203=LINE('',#1098,#275);
#204=LINE('',#1105,#276);
#205=LINE('',#1107,#277);
#206=LINE('',#1108,#278);
#207=LINE('',#1110,#279);
#208=LINE('',#1111,#280);
#209=LINE('',#1118,#281);
#210=LINE('',#1122,#282);
#211=LINE('',#1127,#283);
#212=LINE('',#1131,#284);
#213=LINE('',#1135,#285);
#214=LINE('',#1137,#286);
#215=LINE('',#1139,#287);
#216=LINE('',#1140,#288);
#217=LINE('',#1143,#289);
#218=LINE('',#1145,#290);
#219=LINE('',#1146,#291);
#220=LINE('',#1149,#292);
#221=LINE('',#1151,#293);
#222=LINE('',#1152,#294);
#223=LINE('',#1154,#295);
#224=LINE('',#1155,#296);
#225=LINE('',#1163,#297);
#226=LINE('',#1165,#298);
#227=LINE('',#1166,#299);
#228=LINE('',#1172,#300);
#229=LINE('',#1176,#301);
#230=LINE('',#1177,#302);
#231=LINE('',#1181,#303);
#232=LINE('',#1182,#304);
#233=LINE('',#1184,#305);
#234=LINE('',#1186,#306);
#235=LINE('',#1188,#307);
#236=LINE('',#1194,#308);
#237=LINE('',#1199,#309);
#238=LINE('',#1201,#310);
#239=LINE('',#1203,#311);
#240=LINE('',#1204,#312);
#241=LINE('',#1207,#313);
#242=LINE('',#1209,#314);
#243=LINE('',#1210,#315);
#244=LINE('',#1215,#316);
#245=LINE('',#1218,#317);
#246=LINE('',#1219,#318);
#247=VECTOR('',#823,10.);
#248=VECTOR('',#824,10.);
#249=VECTOR('',#825,10.);
#250=VECTOR('',#832,10.);
#251=VECTOR('',#833,10.);
#252=VECTOR('',#834,10.);
#253=VECTOR('',#841,10.);
#254=VECTOR('',#844,10.);
#255=VECTOR('',#845,10.);
#256=VECTOR('',#850,10.);
#257=VECTOR('',#853,10.);
#258=VECTOR('',#854,10.);
#259=VECTOR('',#859,10.);
#260=VECTOR('',#860,10.);
#261=VECTOR('',#863,10.);
#262=VECTOR('',#864,10.);
#263=VECTOR('',#867,10.);
#264=VECTOR('',#870,10.);
#265=VECTOR('',#873,10.);
#266=VECTOR('',#876,10.);
#267=VECTOR('',#879,2.);
#268=VECTOR('',#882,2.);
#269=VECTOR('',#885,10.);
#270=VECTOR('',#886,10.);
#271=VECTOR('',#887,10.);
#272=VECTOR('',#888,10.);
#273=VECTOR('',#891,10.);
#274=VECTOR('',#892,10.);
#275=VECTOR('',#893,10.);
#276=VECTOR('',#900,10.);
#277=VECTOR('',#901,10.);
#278=VECTOR('',#902,10.);
#279=VECTOR('',#905,10.);
#280=VECTOR('',#906,10.);
#281=VECTOR('',#913,10.);
#282=VECTOR('',#918,7.99999999999999);
#283=VECTOR('',#925,10.);
#284=VECTOR('',#930,7.99999999999999);
#285=VECTOR('',#933,10.);
#286=VECTOR('',#934,10.);
#287=VECTOR('',#935,10.);
#288=VECTOR('',#936,10.);
#289=VECTOR('',#939,10.);
#290=VECTOR('',#940,10.);
#291=VECTOR('',#941,10.);
#292=VECTOR('',#944,10.);
#293=VECTOR('',#945,10.);
#294=VECTOR('',#946,10.);
#295=VECTOR('',#949,10.);
#296=VECTOR('',#950,10.);
#297=VECTOR('',#959,10.);
#298=VECTOR('',#960,10.);
#299=VECTOR('',#961,10.);
#300=VECTOR('',#966,10.);
#301=VECTOR('',#969,10.);
#302=VECTOR('',#970,10.);
#303=VECTOR('',#975,10.);
#304=VECTOR('',#976,10.);
#305=VECTOR('',#979,10.);
#306=VECTOR('',#982,2.);
#307=VECTOR('',#985,10.);
#308=VECTOR('',#992,2.);
#309=VECTOR('',#997,10.);
#310=VECTOR('',#998,10.);
#311=VECTOR('',#999,10.);
#312=VECTOR('',#1000,10.);
#313=VECTOR('',#1003,10.);
#314=VECTOR('',#1004,10.);
#315=VECTOR('',#1005,10.);
#316=VECTOR('',#1010,10.);
#317=VECTOR('',#1015,10.);
#318=VECTOR('',#1016,10.);
#319=VERTEX_POINT('',#1023);
#320=VERTEX_POINT('',#1024);
#321=VERTEX_POINT('',#1026);
#322=VERTEX_POINT('',#1028);
#323=VERTEX_POINT('',#1031);
#324=VERTEX_POINT('',#1034);
#325=VERTEX_POINT('',#1035);
#326=VERTEX_POINT('',#1037);
#327=VERTEX_POINT('',#1039);
#328=VERTEX_POINT('',#1042);
#329=VERTEX_POINT('',#1045);
#330=VERTEX_POINT('',#1046);
#331=VERTEX_POINT('',#1048);
#332=VERTEX_POINT('',#1050);
#333=VERTEX_POINT('',#1053);
#334=VERTEX_POINT('',#1056);
#335=VERTEX_POINT('',#1057);
#336=VERTEX_POINT('',#1059);
#337=VERTEX_POINT('',#1061);
#338=VERTEX_POINT('',#1064);
#339=VERTEX_POINT('',#1085);
#340=VERTEX_POINT('',#1086);
#341=VERTEX_POINT('',#1088);
#342=VERTEX_POINT('',#1090);
#343=VERTEX_POINT('',#1094);
#344=VERTEX_POINT('',#1096);
#345=VERTEX_POINT('',#1099);
#346=VERTEX_POINT('',#1101);
#347=VERTEX_POINT('',#1104);
#348=VERTEX_POINT('',#1106);
#349=VERTEX_POINT('',#1112);
#350=VERTEX_POINT('',#1114);
#351=VERTEX_POINT('',#1117);
#352=VERTEX_POINT('',#1121);
#353=VERTEX_POINT('',#1125);
#354=VERTEX_POINT('',#1129);
#355=VERTEX_POINT('',#1133);
#356=VERTEX_POINT('',#1134);
#357=VERTEX_POINT('',#1136);
#358=VERTEX_POINT('',#1138);
#359=VERTEX_POINT('',#1142);
#360=VERTEX_POINT('',#1144);
#361=VERTEX_POINT('',#1148);
#362=VERTEX_POINT('',#1150);
#363=VERTEX_POINT('',#1159);
#364=VERTEX_POINT('',#1160);
#365=VERTEX_POINT('',#1162);
#366=VERTEX_POINT('',#1164);
#367=VERTEX_POINT('',#1167);
#368=VERTEX_POINT('',#1170);
#369=VERTEX_POINT('',#1171);
#370=VERTEX_POINT('',#1173);
#371=VERTEX_POINT('',#1175);
#372=VERTEX_POINT('',#1178);
#373=VERTEX_POINT('',#1191);
#374=VERTEX_POINT('',#1193);
#375=VERTEX_POINT('',#1197);
#376=VERTEX_POINT('',#1198);
#377=VERTEX_POINT('',#1200);
#378=VERTEX_POINT('',#1202);
#379=VERTEX_POINT('',#1206);
#380=VERTEX_POINT('',#1208);
#381=VERTEX_POINT('',#1212);
#382=VERTEX_POINT('',#1214);
#383=EDGE_CURVE('',#319,#320,#175,.T.);
#384=EDGE_CURVE('',#321,#319,#176,.T.);
#385=EDGE_CURVE('',#322,#321,#177,.T.);
#386=EDGE_CURVE('',#320,#322,#151,.T.);
#387=EDGE_CURVE('',#323,#323,#152,.T.);
#388=EDGE_CURVE('',#324,#325,#178,.T.);
#389=EDGE_CURVE('',#326,#324,#179,.T.);
#390=EDGE_CURVE('',#327,#326,#180,.T.);
#391=EDGE_CURVE('',#325,#327,#153,.T.);
#392=EDGE_CURVE('',#328,#328,#154,.T.);
#393=EDGE_CURVE('',#329,#330,#181,.T.);
#394=EDGE_CURVE('',#331,#329,#155,.T.);
#395=EDGE_CURVE('',#332,#331,#182,.T.);
#396=EDGE_CURVE('',#332,#330,#183,.T.);
#397=EDGE_CURVE('',#333,#333,#156,.T.);
#398=EDGE_CURVE('',#334,#335,#184,.T.);
#399=EDGE_CURVE('',#336,#334,#157,.T.);
#400=EDGE_CURVE('',#337,#336,#185,.T.);
#401=EDGE_CURVE('',#337,#335,#186,.T.);
#402=EDGE_CURVE('',#338,#338,#158,.T.);
#403=EDGE_CURVE('',#325,#334,#187,.T.);
#404=EDGE_CURVE('',#324,#335,#188,.T.);
#405=EDGE_CURVE('',#320,#329,#189,.T.);
#406=EDGE_CURVE('',#319,#330,#190,.T.);
#407=EDGE_CURVE('',#327,#336,#191,.T.);
#408=EDGE_CURVE('',#322,#331,#192,.T.);
#409=EDGE_CURVE('',#337,#326,#193,.T.);
#410=EDGE_CURVE('',#332,#321,#194,.T.);
#411=EDGE_CURVE('',#333,#323,#195,.T.);
#412=EDGE_CURVE('',#338,#328,#196,.T.);
#413=EDGE_CURVE('',#339,#340,#197,.T.);
#414=EDGE_CURVE('',#341,#340,#198,.T.);
#415=EDGE_CURVE('',#341,#342,#199,.T.);
#416=EDGE_CURVE('',#342,#339,#200,.T.);
#417=EDGE_CURVE('',#340,#343,#201,.T.);
#418=EDGE_CURVE('',#344,#343,#202,.T.);
#419=EDGE_CURVE('',#344,#341,#203,.T.);
#420=EDGE_CURVE('',#345,#345,#159,.T.);
#421=EDGE_CURVE('',#346,#346,#160,.T.);
#422=EDGE_CURVE('',#343,#347,#204,.T.);
#423=EDGE_CURVE('',#348,#347,#205,.T.);
#424=EDGE_CURVE('',#348,#344,#206,.T.);
#425=EDGE_CURVE('',#347,#339,#207,.T.);
#426=EDGE_CURVE('',#342,#348,#208,.T.);
#427=EDGE_CURVE('',#349,#349,#161,.T.);
#428=EDGE_CURVE('',#350,#350,#162,.T.);
#429=EDGE_CURVE('',#349,#351,#209,.T.);
#430=EDGE_CURVE('',#351,#351,#163,.T.);
#431=EDGE_CURVE('',#350,#352,#210,.T.);
#432=EDGE_CURVE('',#352,#352,#164,.T.);
#433=EDGE_CURVE('',#353,#353,#165,.T.);
#434=EDGE_CURVE('',#353,#345,#211,.T.);
#435=EDGE_CURVE('',#354,#354,#166,.T.);
#436=EDGE_CURVE('',#354,#346,#212,.T.);
#437=EDGE_CURVE('',#355,#356,#213,.T.);
#438=EDGE_CURVE('',#355,#357,#214,.T.);
#439=EDGE_CURVE('',#357,#358,#215,.T.);
#440=EDGE_CURVE('',#356,#358,#216,.T.);
#441=EDGE_CURVE('',#359,#355,#217,.T.);
#442=EDGE_CURVE('',#359,#360,#218,.T.);
#443=EDGE_CURVE('',#360,#357,#219,.T.);
#444=EDGE_CURVE('',#361,#359,#220,.T.);
#445=EDGE_CURVE('',#361,#362,#221,.T.);
#446=EDGE_CURVE('',#362,#360,#222,.T.);
#447=EDGE_CURVE('',#356,#361,#223,.T.);
#448=EDGE_CURVE('',#358,#362,#224,.T.);
#449=EDGE_CURVE('',#363,#364,#167,.T.);
#450=EDGE_CURVE('',#365,#363,#225,.T.);
#451=EDGE_CURVE('',#366,#365,#226,.T.);
#452=EDGE_CURVE('',#364,#366,#227,.T.);
#453=EDGE_CURVE('',#367,#367,#168,.T.);
#454=EDGE_CURVE('',#368,#369,#228,.T.);
#455=EDGE_CURVE('',#370,#368,#169,.T.);
#456=EDGE_CURVE('',#371,#370,#229,.T.);
#457=EDGE_CURVE('',#369,#371,#230,.T.);
#458=EDGE_CURVE('',#372,#372,#170,.T.);
#459=EDGE_CURVE('',#368,#363,#231,.T.);
#460=EDGE_CURVE('',#369,#365,#232,.T.);
#461=EDGE_CURVE('',#366,#371,#233,.T.);
#462=EDGE_CURVE('',#367,#372,#234,.T.);
#463=EDGE_CURVE('',#370,#364,#235,.T.);
#464=EDGE_CURVE('',#373,#373,#171,.T.);
#465=EDGE_CURVE('',#373,#374,#236,.T.);
#466=EDGE_CURVE('',#374,#374,#172,.T.);
#467=EDGE_CURVE('',#375,#376,#237,.T.);
#468=EDGE_CURVE('',#376,#377,#238,.T.);
#469=EDGE_CURVE('',#377,#378,#239,.T.);
#470=EDGE_CURVE('',#378,#375,#240,.T.);
#471=EDGE_CURVE('',#379,#375,#241,.T.);
#472=EDGE_CURVE('',#378,#380,#242,.T.);
#473=EDGE_CURVE('',#379,#380,#243,.T.);
#474=EDGE_CURVE('',#376,#381,#173,.T.);
#475=EDGE_CURVE('',#381,#382,#244,.T.);
#476=EDGE_CURVE('',#382,#377,#174,.T.);
#477=EDGE_CURVE('',#381,#379,#245,.T.);
#478=EDGE_CURVE('',#380,#382,#246,.T.);
#479=ORIENTED_EDGE('',*,*,#383,.F.);
#480=ORIENTED_EDGE('',*,*,#384,.F.);
#481=ORIENTED_EDGE('',*,*,#385,.F.);
#482=ORIENTED_EDGE('',*,*,#386,.F.);
#483=ORIENTED_EDGE('',*,*,#387,.F.);
#484=ORIENTED_EDGE('',*,*,#388,.F.);
#485=ORIENTED_EDGE('',*,*,#389,.F.);
#486=ORIENTED_EDGE('',*,*,#390,.F.);
#487=ORIENTED_EDGE('',*,*,#391,.F.);
#488=ORIENTED_EDGE('',*,*,#392,.F.);
#489=ORIENTED_EDGE('',*,*,#393,.F.);
#490=ORIENTED_EDGE('',*,*,#394,.F.);
#491=ORIENTED_EDGE('',*,*,#395,.F.);
#492=ORIENTED_EDGE('',*,*,#396,.T.);
#493=ORIENTED_EDGE('',*,*,#397,.F.);
#494=ORIENTED_EDGE('',*,*,#398,.F.);
#495=ORIENTED_EDGE('',*,*,#399,.F.);
#496=ORIENTED_EDGE('',*,*,#400,.F.);
#497=ORIENTED_EDGE('',*,*,#401,.T.);
#498=ORIENTED_EDGE('',*,*,#402,.F.);
#499=ORIENTED_EDGE('',*,*,#388,.T.);
#500=ORIENTED_EDGE('',*,*,#403,.T.);
#501=ORIENTED_EDGE('',*,*,#398,.T.);
#502=ORIENTED_EDGE('',*,*,#404,.F.);
#503=ORIENTED_EDGE('',*,*,#383,.T.);
#504=ORIENTED_EDGE('',*,*,#405,.T.);
#505=ORIENTED_EDGE('',*,*,#393,.T.);
#506=ORIENTED_EDGE('',*,*,#406,.F.);
#507=ORIENTED_EDGE('',*,*,#391,.T.);
#508=ORIENTED_EDGE('',*,*,#407,.T.);
#509=ORIENTED_EDGE('',*,*,#399,.T.);
#510=ORIENTED_EDGE('',*,*,#403,.F.);
#511=ORIENTED_EDGE('',*,*,#386,.T.);
#512=ORIENTED_EDGE('',*,*,#408,.T.);
#513=ORIENTED_EDGE('',*,*,#394,.T.);
#514=ORIENTED_EDGE('',*,*,#405,.F.);
#515=ORIENTED_EDGE('',*,*,#390,.T.);
#516=ORIENTED_EDGE('',*,*,#409,.F.);
#517=ORIENTED_EDGE('',*,*,#400,.T.);
#518=ORIENTED_EDGE('',*,*,#407,.F.);
#519=ORIENTED_EDGE('',*,*,#385,.T.);
#520=ORIENTED_EDGE('',*,*,#410,.F.);
#521=ORIENTED_EDGE('',*,*,#395,.T.);
#522=ORIENTED_EDGE('',*,*,#408,.F.);
#523=ORIENTED_EDGE('',*,*,#397,.T.);
#524=ORIENTED_EDGE('',*,*,#411,.T.);
#525=ORIENTED_EDGE('',*,*,#387,.T.);
#526=ORIENTED_EDGE('',*,*,#411,.F.);
#527=ORIENTED_EDGE('',*,*,#402,.T.);
#528=ORIENTED_EDGE('',*,*,#412,.T.);
#529=ORIENTED_EDGE('',*,*,#392,.T.);
#530=ORIENTED_EDGE('',*,*,#412,.F.);
#531=ORIENTED_EDGE('',*,*,#413,.T.);
#532=ORIENTED_EDGE('',*,*,#414,.F.);
#533=ORIENTED_EDGE('',*,*,#415,.T.);
#534=ORIENTED_EDGE('',*,*,#416,.T.);
#535=ORIENTED_EDGE('',*,*,#417,.T.);
#536=ORIENTED_EDGE('',*,*,#418,.F.);
#537=ORIENTED_EDGE('',*,*,#419,.T.);
#538=ORIENTED_EDGE('',*,*,#414,.T.);
#539=ORIENTED_EDGE('',*,*,#420,.T.);
#540=ORIENTED_EDGE('',*,*,#421,.T.);
#541=ORIENTED_EDGE('',*,*,#422,.T.);
#542=ORIENTED_EDGE('',*,*,#423,.F.);
#543=ORIENTED_EDGE('',*,*,#424,.T.);
#544=ORIENTED_EDGE('',*,*,#418,.T.);
#545=ORIENTED_EDGE('',*,*,#425,.T.);
#546=ORIENTED_EDGE('',*,*,#416,.F.);
#547=ORIENTED_EDGE('',*,*,#426,.T.);
#548=ORIENTED_EDGE('',*,*,#423,.T.);
#549=ORIENTED_EDGE('',*,*,#427,.T.);
#550=ORIENTED_EDGE('',*,*,#428,.T.);
#551=ORIENTED_EDGE('',*,*,#427,.F.);
#552=ORIENTED_EDGE('',*,*,#429,.T.);
#553=ORIENTED_EDGE('',*,*,#430,.F.);
#554=ORIENTED_EDGE('',*,*,#429,.F.);
#555=ORIENTED_EDGE('',*,*,#428,.F.);
#556=ORIENTED_EDGE('',*,*,#431,.T.);
#557=ORIENTED_EDGE('',*,*,#432,.F.);
#558=ORIENTED_EDGE('',*,*,#431,.F.);
#559=ORIENTED_EDGE('',*,*,#433,.T.);
#560=ORIENTED_EDGE('',*,*,#434,.T.);
#561=ORIENTED_EDGE('',*,*,#420,.F.);
#562=ORIENTED_EDGE('',*,*,#434,.F.);
#563=ORIENTED_EDGE('',*,*,#435,.T.);
#564=ORIENTED_EDGE('',*,*,#436,.T.);
#565=ORIENTED_EDGE('',*,*,#421,.F.);
#566=ORIENTED_EDGE('',*,*,#436,.F.);
#567=ORIENTED_EDGE('',*,*,#437,.F.);
#568=ORIENTED_EDGE('',*,*,#438,.T.);
#569=ORIENTED_EDGE('',*,*,#439,.T.);
#570=ORIENTED_EDGE('',*,*,#440,.F.);
#571=ORIENTED_EDGE('',*,*,#441,.F.);
#572=ORIENTED_EDGE('',*,*,#442,.T.);
#573=ORIENTED_EDGE('',*,*,#443,.T.);
#574=ORIENTED_EDGE('',*,*,#438,.F.);
#575=ORIENTED_EDGE('',*,*,#413,.F.);
#576=ORIENTED_EDGE('',*,*,#425,.F.);
#577=ORIENTED_EDGE('',*,*,#422,.F.);
#578=ORIENTED_EDGE('',*,*,#417,.F.);
#579=ORIENTED_EDGE('',*,*,#444,.F.);
#580=ORIENTED_EDGE('',*,*,#445,.T.);
#581=ORIENTED_EDGE('',*,*,#446,.T.);
#582=ORIENTED_EDGE('',*,*,#442,.F.);
#583=ORIENTED_EDGE('',*,*,#404,.T.);
#584=ORIENTED_EDGE('',*,*,#401,.F.);
#585=ORIENTED_EDGE('',*,*,#409,.T.);
#586=ORIENTED_EDGE('',*,*,#389,.T.);
#587=ORIENTED_EDGE('',*,*,#396,.F.);
#588=ORIENTED_EDGE('',*,*,#410,.T.);
#589=ORIENTED_EDGE('',*,*,#384,.T.);
#590=ORIENTED_EDGE('',*,*,#406,.T.);
#591=ORIENTED_EDGE('',*,*,#447,.F.);
#592=ORIENTED_EDGE('',*,*,#440,.T.);
#593=ORIENTED_EDGE('',*,*,#448,.T.);
#594=ORIENTED_EDGE('',*,*,#445,.F.);
#595=ORIENTED_EDGE('',*,*,#415,.F.);
#596=ORIENTED_EDGE('',*,*,#419,.F.);
#597=ORIENTED_EDGE('',*,*,#424,.F.);
#598=ORIENTED_EDGE('',*,*,#426,.F.);
#599=ORIENTED_EDGE('',*,*,#448,.F.);
#600=ORIENTED_EDGE('',*,*,#439,.F.);
#601=ORIENTED_EDGE('',*,*,#443,.F.);
#602=ORIENTED_EDGE('',*,*,#446,.F.);
#603=ORIENTED_EDGE('',*,*,#435,.F.);
#604=ORIENTED_EDGE('',*,*,#433,.F.);
#605=ORIENTED_EDGE('',*,*,#447,.T.);
#606=ORIENTED_EDGE('',*,*,#444,.T.);
#607=ORIENTED_EDGE('',*,*,#441,.T.);
#608=ORIENTED_EDGE('',*,*,#437,.T.);
#609=ORIENTED_EDGE('',*,*,#432,.T.);
#610=ORIENTED_EDGE('',*,*,#430,.T.);
#611=ORIENTED_EDGE('',*,*,#449,.F.);
#612=ORIENTED_EDGE('',*,*,#450,.F.);
#613=ORIENTED_EDGE('',*,*,#451,.F.);
#614=ORIENTED_EDGE('',*,*,#452,.F.);
#615=ORIENTED_EDGE('',*,*,#453,.F.);
#616=ORIENTED_EDGE('',*,*,#454,.F.);
#617=ORIENTED_EDGE('',*,*,#455,.F.);
#618=ORIENTED_EDGE('',*,*,#456,.F.);
#619=ORIENTED_EDGE('',*,*,#457,.F.);
#620=ORIENTED_EDGE('',*,*,#458,.F.);
#621=ORIENTED_EDGE('',*,*,#450,.T.);
#622=ORIENTED_EDGE('',*,*,#459,.F.);
#623=ORIENTED_EDGE('',*,*,#454,.T.);
#624=ORIENTED_EDGE('',*,*,#460,.T.);
#625=ORIENTED_EDGE('',*,*,#451,.T.);
#626=ORIENTED_EDGE('',*,*,#460,.F.);
#627=ORIENTED_EDGE('',*,*,#457,.T.);
#628=ORIENTED_EDGE('',*,*,#461,.F.);
#629=ORIENTED_EDGE('',*,*,#453,.T.);
#630=ORIENTED_EDGE('',*,*,#462,.T.);
#631=ORIENTED_EDGE('',*,*,#458,.T.);
#632=ORIENTED_EDGE('',*,*,#462,.F.);
#633=ORIENTED_EDGE('',*,*,#452,.T.);
#634=ORIENTED_EDGE('',*,*,#461,.T.);
#635=ORIENTED_EDGE('',*,*,#456,.T.);
#636=ORIENTED_EDGE('',*,*,#463,.T.);
#637=ORIENTED_EDGE('',*,*,#449,.T.);
#638=ORIENTED_EDGE('',*,*,#463,.F.);
#639=ORIENTED_EDGE('',*,*,#455,.T.);
#640=ORIENTED_EDGE('',*,*,#459,.T.);
#641=ORIENTED_EDGE('',*,*,#464,.T.);
#642=ORIENTED_EDGE('',*,*,#465,.T.);
#643=ORIENTED_EDGE('',*,*,#466,.T.);
#644=ORIENTED_EDGE('',*,*,#465,.F.);
#645=ORIENTED_EDGE('',*,*,#467,.T.);
#646=ORIENTED_EDGE('',*,*,#468,.T.);
#647=ORIENTED_EDGE('',*,*,#469,.T.);
#648=ORIENTED_EDGE('',*,*,#470,.T.);
#649=ORIENTED_EDGE('',*,*,#471,.T.);
#650=ORIENTED_EDGE('',*,*,#470,.F.);
#651=ORIENTED_EDGE('',*,*,#472,.T.);
#652=ORIENTED_EDGE('',*,*,#473,.F.);
#653=ORIENTED_EDGE('',*,*,#474,.T.);
#654=ORIENTED_EDGE('',*,*,#475,.T.);
#655=ORIENTED_EDGE('',*,*,#476,.T.);
#656=ORIENTED_EDGE('',*,*,#468,.F.);
#657=ORIENTED_EDGE('',*,*,#477,.T.);
#658=ORIENTED_EDGE('',*,*,#473,.T.);
#659=ORIENTED_EDGE('',*,*,#478,.T.);
#660=ORIENTED_EDGE('',*,*,#475,.F.);
#661=ORIENTED_EDGE('',*,*,#478,.F.);
#662=ORIENTED_EDGE('',*,*,#472,.F.);
#663=ORIENTED_EDGE('',*,*,#469,.F.);
#664=ORIENTED_EDGE('',*,*,#476,.F.);
#665=ORIENTED_EDGE('',*,*,#464,.F.);
#666=ORIENTED_EDGE('',*,*,#477,.F.);
#667=ORIENTED_EDGE('',*,*,#474,.F.);
#668=ORIENTED_EDGE('',*,*,#467,.F.);
#669=ORIENTED_EDGE('',*,*,#471,.F.);
#670=ORIENTED_EDGE('',*,*,#466,.F.);
#671=PLANE('',#755);
#672=PLANE('',#758);
#673=PLANE('',#761);
#674=PLANE('',#764);
#675=PLANE('',#767);
#676=PLANE('',#768);
#677=PLANE('',#771);
#678=PLANE('',#772);
#679=PLANE('',#775);
#680=PLANE('',#776);
#681=PLANE('',#779);
#682=PLANE('',#780);
#683=PLANE('',#791);
#684=PLANE('',#792);
#685=PLANE('',#793);
#686=PLANE('',#794);
#687=PLANE('',#795);
#688=PLANE('',#796);
#689=PLANE('',#797);
#690=PLANE('',#800);
#691=PLANE('',#803);
#692=PLANE('',#804);
#693=PLANE('',#806);
#694=PLANE('',#811);
#695=PLANE('',#812);
#696=PLANE('',#816);
#697=PLANE('',#817);
#698=PLANE('',#818);
#699=ADVANCED_FACE('',(#51,#31),#671,.F.);
#700=ADVANCED_FACE('',(#52,#32),#672,.F.);
#701=ADVANCED_FACE('',(#53,#33),#673,.F.);
#702=ADVANCED_FACE('',(#54,#34),#674,.F.);
#703=ADVANCED_FACE('',(#55),#675,.T.);
#704=ADVANCED_FACE('',(#56),#676,.T.);
#705=ADVANCED_FACE('',(#57),#19,.T.);
#706=ADVANCED_FACE('',(#58),#20,.T.);
#707=ADVANCED_FACE('',(#59),#677,.T.);
#708=ADVANCED_FACE('',(#60),#678,.T.);
#709=ADVANCED_FACE('',(#61),#21,.F.);
#710=ADVANCED_FACE('',(#62),#22,.F.);
#711=ADVANCED_FACE('',(#63),#679,.T.);
#712=ADVANCED_FACE('',(#64,#35,#36),#680,.T.);
#713=ADVANCED_FACE('',(#65),#681,.T.);
#714=ADVANCED_FACE('',(#66,#37,#38),#682,.T.);
#715=ADVANCED_FACE('',(#67),#23,.F.);
#716=ADVANCED_FACE('',(#68),#24,.F.);
#717=ADVANCED_FACE('',(#69),#25,.F.);
#718=ADVANCED_FACE('',(#70),#26,.F.);
#719=ADVANCED_FACE('',(#71),#683,.F.);
#720=ADVANCED_FACE('',(#72,#39),#684,.F.);
#721=ADVANCED_FACE('',(#73,#40,#41),#685,.F.);
#722=ADVANCED_FACE('',(#74,#42),#686,.F.);
#723=ADVANCED_FACE('',(#75,#43,#44),#687,.F.);
#724=ADVANCED_FACE('',(#76,#45,#46),#688,.T.);
#725=ADVANCED_FACE('',(#77,#47),#689,.F.);
#726=ADVANCED_FACE('',(#78,#48),#690,.F.);
#727=ADVANCED_FACE('',(#79),#691,.F.);
#728=ADVANCED_FACE('',(#80),#692,.F.);
#729=ADVANCED_FACE('',(#81),#27,.F.);
#730=ADVANCED_FACE('',(#82),#693,.F.);
#731=ADVANCED_FACE('',(#83),#28,.T.);
#732=ADVANCED_FACE('',(#84),#29,.F.);
#733=ADVANCED_FACE('',(#85),#694,.F.);
#734=ADVANCED_FACE('',(#86),#695,.F.);
#735=ADVANCED_FACE('',(#87),#30,.T.);
#736=ADVANCED_FACE('',(#88),#696,.F.);
#737=ADVANCED_FACE('',(#89,#49),#697,.F.);
#738=ADVANCED_FACE('',(#90,#50),#698,.F.);
#739=CLOSED_SHELL('',(#699,#700,#701,#702,#703,#704,#705,#706,#707,#708,
#709,#710,#711,#712,#713,#714,#715,#716,#717,#718,#719,#720,#721,#722,#723,
#724));
#740=CLOSED_SHELL('',(#725,#726,#727,#728,#729,#730,#731));
#741=CLOSED_SHELL('',(#732,#733,#734,#735,#736,#737,#738));
#742=DERIVED_UNIT_ELEMENT(#744,1.);
#743=DERIVED_UNIT_ELEMENT(#1227,-3.);
#744=(
MASS_UNIT()
NAMED_UNIT(*)
SI_UNIT(.KILO.,.GRAM.)
);
#745=DERIVED_UNIT((#742,#743));
#746=MEASURE_REPRESENTATION_ITEM('density measure',
POSITIVE_RATIO_MEASURE(7850.),#745);
#747=PROPERTY_DEFINITION_REPRESENTATION(#752,#749);
#748=PROPERTY_DEFINITION_REPRESENTATION(#753,#750);
#749=REPRESENTATION('material name',(#751),#1224);
#750=REPRESENTATION('density',(#746),#1224);
#751=DESCRIPTIVE_REPRESENTATION_ITEM('Ocel','Ocel');
#752=PROPERTY_DEFINITION('material property','material name',#1234);
#753=PROPERTY_DEFINITION('material property','density of part',#1234);
#754=AXIS2_PLACEMENT_3D('',#1021,#819,#820);
#755=AXIS2_PLACEMENT_3D('',#1022,#821,#822);
#756=AXIS2_PLACEMENT_3D('',#1030,#826,#827);
#757=AXIS2_PLACEMENT_3D('',#1032,#828,#829);
#758=AXIS2_PLACEMENT_3D('',#1033,#830,#831);
#759=AXIS2_PLACEMENT_3D('',#1041,#835,#836);
#760=AXIS2_PLACEMENT_3D('',#1043,#837,#838);
#761=AXIS2_PLACEMENT_3D('',#1044,#839,#840);
#762=AXIS2_PLACEMENT_3D('',#1049,#842,#843);
#763=AXIS2_PLACEMENT_3D('',#1054,#846,#847);
#764=AXIS2_PLACEMENT_3D('',#1055,#848,#849);
#765=AXIS2_PLACEMENT_3D('',#1060,#851,#852);
#766=AXIS2_PLACEMENT_3D('',#1065,#855,#856);
#767=AXIS2_PLACEMENT_3D('',#1066,#857,#858);
#768=AXIS2_PLACEMENT_3D('',#1069,#861,#862);
#769=AXIS2_PLACEMENT_3D('',#1072,#865,#866);
#770=AXIS2_PLACEMENT_3D('',#1074,#868,#869);
#771=AXIS2_PLACEMENT_3D('',#1076,#871,#872);
#772=AXIS2_PLACEMENT_3D('',#1078,#874,#875);
#773=AXIS2_PLACEMENT_3D('',#1080,#877,#878);
#774=AXIS2_PLACEMENT_3D('',#1082,#880,#881);
#775=AXIS2_PLACEMENT_3D('',#1084,#883,#884);
#776=AXIS2_PLACEMENT_3D('',#1093,#889,#890);
#777=AXIS2_PLACEMENT_3D('',#1100,#894,#895);
#778=AXIS2_PLACEMENT_3D('',#1102,#896,#897);
#779=AXIS2_PLACEMENT_3D('',#1103,#898,#899);
#780=AXIS2_PLACEMENT_3D('',#1109,#903,#904);
#781=AXIS2_PLACEMENT_3D('',#1113,#907,#908);
#782=AXIS2_PLACEMENT_3D('',#1115,#909,#910);
#783=AXIS2_PLACEMENT_3D('',#1116,#911,#912);
#784=AXIS2_PLACEMENT_3D('',#1119,#914,#915);
#785=AXIS2_PLACEMENT_3D('',#1120,#916,#917);
#786=AXIS2_PLACEMENT_3D('',#1123,#919,#920);
#787=AXIS2_PLACEMENT_3D('',#1124,#921,#922);
#788=AXIS2_PLACEMENT_3D('',#1126,#923,#924);
#789=AXIS2_PLACEMENT_3D('',#1128,#926,#927);
#790=AXIS2_PLACEMENT_3D('',#1130,#928,#929);
#791=AXIS2_PLACEMENT_3D('',#1132,#931,#932);
#792=AXIS2_PLACEMENT_3D('',#1141,#937,#938);
#793=AXIS2_PLACEMENT_3D('',#1147,#942,#943);
#794=AXIS2_PLACEMENT_3D('',#1153,#947,#948);
#795=AXIS2_PLACEMENT_3D('',#1156,#951,#952);
#796=AXIS2_PLACEMENT_3D('',#1157,#953,#954);
#797=AXIS2_PLACEMENT_3D('',#1158,#955,#956);
#798=AXIS2_PLACEMENT_3D('',#1161,#957,#958);
#799=AXIS2_PLACEMENT_3D('',#1168,#962,#963);
#800=AXIS2_PLACEMENT_3D('',#1169,#964,#965);
#801=AXIS2_PLACEMENT_3D('',#1174,#967,#968);
#802=AXIS2_PLACEMENT_3D('',#1179,#971,#972);
#803=AXIS2_PLACEMENT_3D('',#1180,#973,#974);
#804=AXIS2_PLACEMENT_3D('',#1183,#977,#978);
#805=AXIS2_PLACEMENT_3D('',#1185,#980,#981);
#806=AXIS2_PLACEMENT_3D('',#1187,#983,#984);
#807=AXIS2_PLACEMENT_3D('',#1189,#986,#987);
#808=AXIS2_PLACEMENT_3D('',#1190,#988,#989);
#809=AXIS2_PLACEMENT_3D('',#1192,#990,#991);
#810=AXIS2_PLACEMENT_3D('',#1195,#993,#994);
#811=AXIS2_PLACEMENT_3D('',#1196,#995,#996);
#812=AXIS2_PLACEMENT_3D('',#1205,#1001,#1002);
#813=AXIS2_PLACEMENT_3D('',#1211,#1006,#1007);
#814=AXIS2_PLACEMENT_3D('',#1213,#1008,#1009);
#815=AXIS2_PLACEMENT_3D('',#1216,#1011,#1012);
#816=AXIS2_PLACEMENT_3D('',#1217,#1013,#1014);
#817=AXIS2_PLACEMENT_3D('',#1220,#1017,#1018);
#818=AXIS2_PLACEMENT_3D('',#1221,#1019,#1020);
#819=DIRECTION('axis',(0.,0.,1.));
#820=DIRECTION('refdir',(1.,0.,0.));
#821=DIRECTION('center_axis',(-1.,0.,6.57520643772405E-18));
#822=DIRECTION('ref_axis',(6.57520643772405E-18,-1.53570752010732E-64,1.));
#823=DIRECTION('',(-6.57520643772405E-18,0.,-1.));
#824=DIRECTION('',(0.,1.,0.));
#825=DIRECTION('',(6.57520643772405E-18,-2.22044604925032E-16,1.));
#826=DIRECTION('center_axis',(-1.,0.,6.57520643772405E-18));
#827=DIRECTION('ref_axis',(0.,1.,1.01506105108586E-15));
#828=DIRECTION('center_axis',(1.,0.,-6.57520643772405E-18));
#829=DIRECTION('ref_axis',(0.,1.,0.));
#830=DIRECTION('center_axis',(-1.,0.,6.57520643772405E-18));
#831=DIRECTION('ref_axis',(6.57520643772405E-18,-1.53570752010732E-64,1.));
#832=DIRECTION('',(-6.57520643772405E-18,0.,-1.));
#833=DIRECTION('',(0.,1.,0.));
#834=DIRECTION('',(6.57520643772405E-18,-2.22044604925032E-16,1.));
#835=DIRECTION('center_axis',(-1.,0.,6.57520643772405E-18));
#836=DIRECTION('ref_axis',(0.,1.,1.01506105108586E-15));
#837=DIRECTION('center_axis',(1.,0.,-6.57520643772405E-18));
#838=DIRECTION('ref_axis',(0.,1.,0.));
#839=DIRECTION('center_axis',(1.,0.,-6.57520643772405E-18));
#840=DIRECTION('ref_axis',(-6.57520643772405E-18,1.53570752010732E-64,-1.));
#841=DIRECTION('',(6.57520643772405E-18,0.,1.));
#842=DIRECTION('center_axis',(1.,0.,-6.57520643772405E-18));
#843=DIRECTION('ref_axis',(0.,1.,1.01506105108586E-15));
#844=DIRECTION('',(-6.57520643772405E-18,2.22044604925032E-16,-1.));
#845=DIRECTION('',(0.,1.,0.));
#846=DIRECTION('center_axis',(-1.,0.,6.57520643772405E-18));
#847=DIRECTION('ref_axis',(0.,1.,0.));
#848=DIRECTION('center_axis',(1.,0.,-6.57520643772405E-18));
#849=DIRECTION('ref_axis',(-6.57520643772405E-18,1.53570752010732E-64,-1.));
#850=DIRECTION('',(6.57520643772405E-18,0.,1.));
#851=DIRECTION('center_axis',(1.,0.,-6.57520643772405E-18));
#852=DIRECTION('ref_axis',(0.,1.,1.01506105108586E-15));
#853=DIRECTION('',(-6.57520643772405E-18,2.22044604925032E-16,-1.));
#854=DIRECTION('',(0.,1.,0.));
#855=DIRECTION('center_axis',(-1.,0.,6.57520643772405E-18));
#856=DIRECTION('ref_axis',(0.,1.,0.));
#857=DIRECTION('center_axis',(0.,1.,0.));
#858=DIRECTION('ref_axis',(5.46571335200077E-17,0.,-1.));
#859=DIRECTION('',(-1.,0.,0.));
#860=DIRECTION('',(-1.,0.,0.));
#861=DIRECTION('center_axis',(0.,1.,0.));
#862=DIRECTION('ref_axis',(5.46571335200077E-17,0.,-1.));
#863=DIRECTION('',(-1.,0.,0.));
#864=DIRECTION('',(-1.,0.,0.));
#865=DIRECTION('center_axis',(-1.,0.,0.));
#866=DIRECTION('ref_axis',(0.,1.,1.01506105108586E-15));
#867=DIRECTION('',(-1.,0.,0.));
#868=DIRECTION('center_axis',(-1.,0.,0.));
#869=DIRECTION('ref_axis',(0.,1.,1.01506105108586E-15));
#870=DIRECTION('',(-1.,0.,0.));
#871=DIRECTION('center_axis',(0.,-1.,-2.22044604925032E-16));
#872=DIRECTION('ref_axis',(-5.46571335200077E-17,-2.22044604925032E-16,
1.));
#873=DIRECTION('',(1.,0.,0.));
#874=DIRECTION('center_axis',(0.,-1.,-2.22044604925032E-16));
#875=DIRECTION('ref_axis',(-5.46571335200077E-17,-2.22044604925032E-16,
1.));
#876=DIRECTION('',(1.,0.,0.));
#877=DIRECTION('center_axis',(-1.,0.,0.));
#878=DIRECTION('ref_axis',(0.,1.,0.));
#879=DIRECTION('',(1.,0.,0.));
#880=DIRECTION('center_axis',(-1.,0.,0.));
#881=DIRECTION('ref_axis',(0.,1.,0.));
#882=DIRECTION('',(1.,0.,0.));
#883=DIRECTION('center_axis',(0.,0.,1.));
#884=DIRECTION('ref_axis',(1.,0.,0.));
#885=DIRECTION('',(-1.,0.,0.));
#886=DIRECTION('',(0.,1.,0.));
#887=DIRECTION('',(1.,0.,0.));
#888=DIRECTION('',(0.,1.,0.));
#889=DIRECTION('center_axis',(1.,0.,0.));
#890=DIRECTION('ref_axis',(0.,0.,-1.));
#891=DIRECTION('',(0.,0.,1.));
#892=DIRECTION('',(0.,1.,0.));
#893=DIRECTION('',(0.,0.,-1.));
#894=DIRECTION('center_axis',(-1.,0.,0.));
#895=DIRECTION('ref_axis',(0.,-1.,0.));
#896=DIRECTION('center_axis',(-1.,0.,0.));
#897=DIRECTION('ref_axis',(0.,-1.,0.));
#898=DIRECTION('center_axis',(0.,0.,-1.));
#899=DIRECTION('ref_axis',(-1.,0.,0.));
#900=DIRECTION('',(1.,0.,0.));
#901=DIRECTION('',(0.,1.,0.));
#902=DIRECTION('',(-1.,0.,0.));
#903=DIRECTION('center_axis',(-1.,0.,-4.2700885562506E-17));
#904=DIRECTION('ref_axis',(-4.2700885562506E-17,0.,1.));
#905=DIRECTION('',(4.2700885562506E-17,0.,-1.));
#906=DIRECTION('',(-4.2700885562506E-17,0.,1.));
#907=DIRECTION('center_axis',(1.,0.,4.2700885562506E-17));
#908=DIRECTION('ref_axis',(0.,-1.,0.));
#909=DIRECTION('center_axis',(1.,0.,4.2700885562506E-17));
#910=DIRECTION('ref_axis',(0.,-1.,0.));
#911=DIRECTION('center_axis',(1.,0.,0.));
#912=DIRECTION('ref_axis',(0.,-1.,0.));
#913=DIRECTION('',(1.,0.,0.));
#914=DIRECTION('center_axis',(-1.,0.,-5.46571335200077E-17));
#915=DIRECTION('ref_axis',(0.,-1.,0.));
#916=DIRECTION('center_axis',(1.,0.,0.));
#917=DIRECTION('ref_axis',(0.,-1.,0.));
#918=DIRECTION('',(1.,0.,0.));
#919=DIRECTION('center_axis',(-1.,0.,-5.46571335200077E-17));
#920=DIRECTION('ref_axis',(0.,-1.,0.));
#921=DIRECTION('center_axis',(1.,0.,0.));
#922=DIRECTION('ref_axis',(0.,-1.,0.));
#923=DIRECTION('center_axis',(-1.,0.,-5.46571335200077E-17));
#924=DIRECTION('ref_axis',(0.,-1.,0.));
#925=DIRECTION('',(1.,0.,0.));
#926=DIRECTION('center_axis',(1.,0.,0.));
#927=DIRECTION('ref_axis',(0.,-1.,0.));
#928=DIRECTION('center_axis',(-1.,0.,-5.46571335200077E-17));
#929=DIRECTION('ref_axis',(0.,-1.,0.));
#930=DIRECTION('',(1.,0.,0.));
#931=DIRECTION('center_axis',(0.,0.,-1.));
#932=DIRECTION('ref_axis',(0.,-1.,0.));
#933=DIRECTION('',(0.,-1.,0.));
#934=DIRECTION('',(-1.,0.,0.));
#935=DIRECTION('',(0.,-1.,0.));
#936=DIRECTION('',(-1.,0.,0.));
#937=DIRECTION('center_axis',(0.,-1.,0.));
#938=DIRECTION('ref_axis',(-5.46571335200077E-17,0.,1.));
#939=DIRECTION('',(-5.46571335200077E-17,0.,1.));
#940=DIRECTION('',(-1.,0.,0.));
#941=DIRECTION('',(-5.46571335200077E-17,0.,1.));
#942=DIRECTION('center_axis',(0.,0.,1.));
#943=DIRECTION('ref_axis',(0.,1.,0.));
#944=DIRECTION('',(0.,1.,0.));
#945=DIRECTION('',(-1.,0.,0.));
#946=DIRECTION('',(0.,1.,0.));
#947=DIRECTION('center_axis',(0.,1.,0.));
#948=DIRECTION('ref_axis',(5.46571335200077E-17,0.,-1.));
#949=DIRECTION('',(5.46571335200077E-17,0.,-1.));
#950=DIRECTION('',(5.46571335200077E-17,0.,-1.));
#951=DIRECTION('center_axis',(1.,0.,5.46571335200077E-17));
#952=DIRECTION('ref_axis',(0.,-1.,0.));
#953=DIRECTION('center_axis',(1.,0.,5.46571335200077E-17));
#954=DIRECTION('ref_axis',(0.,-1.,0.));
#955=DIRECTION('center_axis',(-1.,0.,6.57520643772405E-18));
#956=DIRECTION('ref_axis',(6.57520643772405E-18,-1.53570752010732E-64,1.));
#957=DIRECTION('center_axis',(-1.,0.,6.57520643772405E-18));
#958=DIRECTION('ref_axis',(-1.10960654800318E-31,1.,1.01506105108586E-15));
#959=DIRECTION('',(-6.57520643772405E-18,0.,-1.));
#960=DIRECTION('',(0.,1.,0.));
#961=DIRECTION('',(6.57520643772405E-18,-2.22044604925032E-16,1.));
#962=DIRECTION('center_axis',(1.,0.,-6.57520643772405E-18));
#963=DIRECTION('ref_axis',(0.,1.,0.));
#964=DIRECTION('center_axis',(1.,0.,-6.57520643772405E-18));
#965=DIRECTION('ref_axis',(-6.57520643772405E-18,1.53570752010732E-64,-1.));
#966=DIRECTION('',(6.57520643772405E-18,0.,1.));
#967=DIRECTION('center_axis',(1.,0.,-6.57520643772405E-18));
#968=DIRECTION('ref_axis',(-1.10960654800318E-31,1.,1.01506105108586E-15));
#969=DIRECTION('',(-6.57520643772405E-18,2.22044604925032E-16,-1.));
#970=DIRECTION('',(0.,-1.,0.));
#971=DIRECTION('center_axis',(-1.,0.,6.57520643772405E-18));
#972=DIRECTION('ref_axis',(0.,1.,0.));
#973=DIRECTION('center_axis',(0.,-1.,0.));
#974=DIRECTION('ref_axis',(5.46571335200077E-17,0.,-1.));
#975=DIRECTION('',(1.,0.,1.09314267040015E-16));
#976=DIRECTION('',(1.,0.,1.09314267040015E-16));
#977=DIRECTION('center_axis',(1.09314267040015E-16,0.,-1.));
#978=DIRECTION('ref_axis',(0.,1.,0.));
#979=DIRECTION('',(-1.,0.,-1.09314267040015E-16));
#980=DIRECTION('center_axis',(-1.,0.,-1.09314267040015E-16));
#981=DIRECTION('ref_axis',(0.,1.,0.));
#982=DIRECTION('',(-1.,0.,-1.09314267040015E-16));
#983=DIRECTION('center_axis',(-2.42726432375696E-32,1.,2.22044604925032E-16));
#984=DIRECTION('ref_axis',(-5.46571335200077E-17,-2.22044604925032E-16,
1.));
#985=DIRECTION('',(1.,0.,1.09314267040015E-16));
#986=DIRECTION('center_axis',(-1.,0.,-1.09314267040015E-16));
#987=DIRECTION('ref_axis',(-1.10960654800318E-31,1.,1.01506105108586E-15));
#988=DIRECTION('center_axis',(-1.,0.,-1.09314267040015E-16));
#989=DIRECTION('ref_axis',(0.,1.,0.));
#990=DIRECTION('center_axis',(1.,0.,-6.57520643772405E-18));
#991=DIRECTION('ref_axis',(0.,1.,0.));
#992=DIRECTION('',(-1.,0.,-1.09314267040015E-16));
#993=DIRECTION('center_axis',(-1.,0.,6.57520643772405E-18));
#994=DIRECTION('ref_axis',(0.,1.,0.));
#995=DIRECTION('center_axis',(-2.42726432375696E-32,1.,2.22044604925032E-16));
#996=DIRECTION('ref_axis',(-5.46571335200077E-17,-2.22044604925032E-16,
1.));
#997=DIRECTION('',(-6.57520643772405E-18,2.22044604925032E-16,-1.));
#998=DIRECTION('',(1.,0.,1.09314267040015E-16));
#999=DIRECTION('',(6.57520643772405E-18,-2.22044604925032E-16,1.));
#1000=DIRECTION('',(-1.,0.,-1.09314267040015E-16));
#1001=DIRECTION('center_axis',(1.09314267040015E-16,0.,-1.));
#1002=DIRECTION('ref_axis',(0.,1.,0.));
#1003=DIRECTION('',(0.,-1.,0.));
#1004=DIRECTION('',(0.,1.,0.));
#1005=DIRECTION('',(1.,0.,1.09314267040015E-16));
#1006=DIRECTION('center_axis',(-1.,0.,-1.09314267040015E-16));
#1007=DIRECTION('ref_axis',(-1.10960654800318E-31,1.,1.01506105108586E-15));
#1008=DIRECTION('center_axis',(1.,0.,-6.57520643772405E-18));
#1009=DIRECTION('ref_axis',(-1.10960654800318E-31,1.,1.01506105108586E-15));
#1010=DIRECTION('',(1.,0.,1.09314267040015E-16));
#1011=DIRECTION('center_axis',(-1.,0.,6.57520643772405E-18));
#1012=DIRECTION('ref_axis',(-1.10960654800318E-31,1.,1.01506105108586E-15));
#1013=DIRECTION('center_axis',(0.,-1.,0.));
#1014=DIRECTION('ref_axis',(5.46571335200077E-17,0.,-1.));
#1015=DIRECTION('',(6.57520643772405E-18,0.,1.));
#1016=DIRECTION('',(-6.57520643772405E-18,0.,-1.));
#1017=DIRECTION('center_axis',(-1.,0.,6.57520643772405E-18));
#1018=DIRECTION('ref_axis',(6.57520643772405E-18,-1.53570752010732E-64,
1.));
#1019=DIRECTION('center_axis',(1.,0.,-6.57520643772405E-18));
#1020=DIRECTION('ref_axis',(-6.57520643772405E-18,1.53570752010732E-64,
-1.));
#1021=CARTESIAN_POINT('',(0.,0.,0.));
#1022=CARTESIAN_POINT('Origin',(-31.,40.,-144.5));
#1023=CARTESIAN_POINT('',(-31.,75.,-107.));
#1024=CARTESIAN_POINT('',(-31.,75.,-127.));
#1025=CARTESIAN_POINT('',(-31.,75.,-125.75));
#1026=CARTESIAN_POINT('',(-31.,40.,-107.));
#1027=CARTESIAN_POINT('',(-31.,40.,-107.));
#1028=CARTESIAN_POINT('',(-31.,40.,-127.));
#1029=CARTESIAN_POINT('',(-31.,40.,-135.75));
#1030=CARTESIAN_POINT('Origin',(-31.,57.5,-127.));
#1031=CARTESIAN_POINT('',(-31.,55.5,-127.));
#1032=CARTESIAN_POINT('Origin',(-31.,57.5,-127.));
#1033=CARTESIAN_POINT('Origin',(-42.,40.,-144.5));
#1034=CARTESIAN_POINT('',(-42.,75.,-107.));
#1035=CARTESIAN_POINT('',(-42.,75.,-127.));
#1036=CARTESIAN_POINT('',(-42.,75.,-125.75));
#1037=CARTESIAN_POINT('',(-42.,40.,-107.));
#1038=CARTESIAN_POINT('',(-42.,40.,-107.));
#1039=CARTESIAN_POINT('',(-42.,40.,-127.));
#1040=CARTESIAN_POINT('',(-42.,40.,-135.75));
#1041=CARTESIAN_POINT('Origin',(-42.,57.5,-127.));
#1042=CARTESIAN_POINT('',(-42.,55.5,-127.));
#1043=CARTESIAN_POINT('Origin',(-42.,57.5,-127.));
#1044=CARTESIAN_POINT('Origin',(-33.,40.,-107.));
#1045=CARTESIAN_POINT('',(-33.,75.,-127.));
#1046=CARTESIAN_POINT('',(-33.,75.,-107.));
#1047=CARTESIAN_POINT('',(-33.,75.,-107.));
#1048=CARTESIAN_POINT('',(-33.,40.,-127.));
#1049=CARTESIAN_POINT('Origin',(-33.,57.5,-127.));
#1050=CARTESIAN_POINT('',(-33.,40.,-107.));
#1051=CARTESIAN_POINT('',(-33.,40.,-117.));
#1052=CARTESIAN_POINT('',(-33.,40.,-107.));
#1053=CARTESIAN_POINT('',(-33.,55.5,-127.));
#1054=CARTESIAN_POINT('Origin',(-33.,57.5,-127.));
#1055=CARTESIAN_POINT('Origin',(-44.,40.,-107.));
#1056=CARTESIAN_POINT('',(-44.,75.,-127.));
#1057=CARTESIAN_POINT('',(-44.,75.,-107.));
#1058=CARTESIAN_POINT('',(-44.,75.,-107.));
#1059=CARTESIAN_POINT('',(-44.,40.,-127.));
#1060=CARTESIAN_POINT('Origin',(-44.,57.5,-127.));
#1061=CARTESIAN_POINT('',(-44.,40.,-107.));
#1062=CARTESIAN_POINT('',(-44.,40.,-117.));
#1063=CARTESIAN_POINT('',(-44.,40.,-107.));
#1064=CARTESIAN_POINT('',(-44.,55.5,-127.));
#1065=CARTESIAN_POINT('Origin',(-44.,57.5,-127.));
#1066=CARTESIAN_POINT('Origin',(-37.5,75.,-107.));
#1067=CARTESIAN_POINT('',(-37.5,75.,-127.));
#1068=CARTESIAN_POINT('',(-20.,75.,-107.));
#1069=CARTESIAN_POINT('Origin',(-37.5,75.,-107.));
#1070=CARTESIAN_POINT('',(-37.5,75.,-127.));
#1071=CARTESIAN_POINT('',(-20.,75.,-107.));
#1072=CARTESIAN_POINT('Origin',(-37.5,57.5,-127.));
#1073=CARTESIAN_POINT('',(-37.5,40.,-127.));
#1074=CARTESIAN_POINT('Origin',(-37.5,57.5,-127.));
#1075=CARTESIAN_POINT('',(-37.5,40.,-127.));
#1076=CARTESIAN_POINT('Origin',(-37.5,40.,-127.));
#1077=CARTESIAN_POINT('',(-20.,40.,-107.));
#1078=CARTESIAN_POINT('Origin',(-37.5,40.,-127.));
#1079=CARTESIAN_POINT('',(-20.,40.,-107.));
#1080=CARTESIAN_POINT('Origin',(-37.5,57.5,-127.));
#1081=CARTESIAN_POINT('',(-37.5,55.5,-127.));
#1082=CARTESIAN_POINT('Origin',(-37.5,57.5,-127.));
#1083=CARTESIAN_POINT('',(-37.5,55.5,-127.));
#1084=CARTESIAN_POINT('Origin',(-70.5,-17.5,-105.));
#1085=CARTESIAN_POINT('',(-4.50000000000001,162.5,-105.));
#1086=CARTESIAN_POINT('',(-70.5,162.5,-105.));
#1087=CARTESIAN_POINT('',(-36.5,162.5,-105.));
#1088=CARTESIAN_POINT('',(-70.5,-17.5,-105.));
#1089=CARTESIAN_POINT('',(-70.5,-17.5,-105.));
#1090=CARTESIAN_POINT('',(-4.50000000000001,-17.5,-105.));
#1091=CARTESIAN_POINT('',(-36.5,-17.5,-105.));
#1092=CARTESIAN_POINT('',(-4.50000000000001,-17.5,-105.));
#1093=CARTESIAN_POINT('Origin',(-70.5,-17.5,-79.));
#1094=CARTESIAN_POINT('',(-70.5,162.5,-79.));
#1095=CARTESIAN_POINT('',(-70.5,162.5,-93.));
#1096=CARTESIAN_POINT('',(-70.5,-17.5,-79.));
#1097=CARTESIAN_POINT('',(-70.5,-17.5,-79.));
#1098=CARTESIAN_POINT('',(-70.5,-17.5,-78.));
#1099=CARTESIAN_POINT('',(-70.5,10.,-92.));
#1100=CARTESIAN_POINT('Origin',(-70.5,2.1210230918212E-16,-92.));
#1101=CARTESIAN_POINT('',(-70.5,153.5,-92.));
#1102=CARTESIAN_POINT('Origin',(-70.5,145.5,-92.));
#1103=CARTESIAN_POINT('Origin',(-4.50000000000001,-17.5,-79.));
#1104=CARTESIAN_POINT('',(-4.50000000000001,162.5,-79.));
#1105=CARTESIAN_POINT('',(-3.50000000000001,162.5,-79.));
#1106=CARTESIAN_POINT('',(-4.50000000000001,-17.5,-79.));
#1107=CARTESIAN_POINT('',(-4.50000000000001,-17.5,-79.));
#1108=CARTESIAN_POINT('',(-3.50000000000001,-17.5,-79.));
#1109=CARTESIAN_POINT('Origin',(-4.50000000000001,-17.5,-105.));
#1110=CARTESIAN_POINT('',(-4.50000000000001,162.5,-106.));
#1111=CARTESIAN_POINT('',(-4.50000000000001,-17.5,-91.));
#1112=CARTESIAN_POINT('',(-4.50000000000001,10.,-92.));
#1113=CARTESIAN_POINT('Origin',(-4.50000000000001,2.1210230918212E-16,-92.));
#1114=CARTESIAN_POINT('',(-4.50000000000001,153.5,-92.));
#1115=CARTESIAN_POINT('Origin',(-4.50000000000001,145.5,-92.));
#1116=CARTESIAN_POINT('Origin',(-2.50000000000001,2.1210230918212E-16,-92.));
#1117=CARTESIAN_POINT('',(-2.50000000000001,10.,-92.));
#1118=CARTESIAN_POINT('',(-2.50000000000001,10.,-92.));
#1119=CARTESIAN_POINT('Origin',(-2.50000000000001,2.1210230918212E-16,-92.));
#1120=CARTESIAN_POINT('Origin',(-2.50000000000001,145.5,-92.));
#1121=CARTESIAN_POINT('',(-2.50000000000001,153.5,-92.));
#1122=CARTESIAN_POINT('',(-2.50000000000001,153.5,-92.));
#1123=CARTESIAN_POINT('Origin',(-2.50000000000001,145.5,-92.));
#1124=CARTESIAN_POINT('Origin',(-2.50000000000001,2.1210230918212E-16,-92.));
#1125=CARTESIAN_POINT('',(-72.5,10.,-92.));
#1126=CARTESIAN_POINT('Origin',(-72.5,2.1210230918212E-16,-92.));
#1127=CARTESIAN_POINT('',(-2.50000000000001,10.,-92.));
#1128=CARTESIAN_POINT('Origin',(-2.50000000000001,145.5,-92.));
#1129=CARTESIAN_POINT('',(-72.5,153.5,-92.));
#1130=CARTESIAN_POINT('Origin',(-72.5,145.5,-92.));
#1131=CARTESIAN_POINT('',(-2.50000000000001,153.5,-92.));
#1132=CARTESIAN_POINT('Origin',(-2.50000000000001,162.5,-77.));
#1133=CARTESIAN_POINT('',(-2.50000000000001,162.5,-77.));
#1134=CARTESIAN_POINT('',(-2.50000000000001,-17.5,-77.));
#1135=CARTESIAN_POINT('',(-2.50000000000001,162.5,-77.));
#1136=CARTESIAN_POINT('',(-72.5,162.5,-77.));
#1137=CARTESIAN_POINT('',(-2.50000000000001,162.5,-77.));
#1138=CARTESIAN_POINT('',(-72.5,-17.5,-77.));
#1139=CARTESIAN_POINT('',(-72.5,162.5,-77.));
#1140=CARTESIAN_POINT('',(-2.50000000000001,-17.5,-77.));
#1141=CARTESIAN_POINT('Origin',(-2.50000000000001,162.5,-107.));
#1142=CARTESIAN_POINT('',(-2.50000000000001,162.5,-107.));
#1143=CARTESIAN_POINT('',(-2.50000000000001,162.5,-107.));
#1144=CARTESIAN_POINT('',(-72.5,162.5,-107.));
#1145=CARTESIAN_POINT('',(-2.50000000000001,162.5,-107.));
#1146=CARTESIAN_POINT('',(-72.5,162.5,-107.));
#1147=CARTESIAN_POINT('Origin',(-2.50000000000001,-17.5,-107.));
#1148=CARTESIAN_POINT('',(-2.50000000000001,-17.5,-107.));
#1149=CARTESIAN_POINT('',(-2.50000000000001,-17.5,-107.));
#1150=CARTESIAN_POINT('',(-72.5,-17.5,-107.));
#1151=CARTESIAN_POINT('',(-2.50000000000001,-17.5,-107.));
#1152=CARTESIAN_POINT('',(-72.5,-17.5,-107.));
#1153=CARTESIAN_POINT('Origin',(-2.50000000000001,-17.5,-77.));
#1154=CARTESIAN_POINT('',(-2.50000000000001,-17.5,-77.));
#1155=CARTESIAN_POINT('',(-72.5,-17.5,-77.));
#1156=CARTESIAN_POINT('Origin',(-72.5,72.5,-92.));
#1157=CARTESIAN_POINT('Origin',(-2.50000000000001,72.5,-92.));
#1158=CARTESIAN_POINT('Origin',(49.,40.,-144.5));
#1159=CARTESIAN_POINT('',(49.,75.,-127.));
#1160=CARTESIAN_POINT('',(49.,40.,-127.));
#1161=CARTESIAN_POINT('Origin',(49.,57.5,-127.));
#1162=CARTESIAN_POINT('',(49.,75.,-107.));
#1163=CARTESIAN_POINT('',(49.,75.,-125.75));
#1164=CARTESIAN_POINT('',(49.,40.,-107.));
#1165=CARTESIAN_POINT('',(49.,40.,-107.));
#1166=CARTESIAN_POINT('',(49.,40.,-135.75));
#1167=CARTESIAN_POINT('',(49.,55.5,-127.));
#1168=CARTESIAN_POINT('Origin',(49.,57.5,-127.));
#1169=CARTESIAN_POINT('Origin',(47.,40.,-107.));
#1170=CARTESIAN_POINT('',(47.,75.,-127.));
#1171=CARTESIAN_POINT('',(47.,75.,-107.));
#1172=CARTESIAN_POINT('',(47.,75.,-107.));
#1173=CARTESIAN_POINT('',(47.,40.,-127.));
#1174=CARTESIAN_POINT('Origin',(47.,57.5,-127.));
#1175=CARTESIAN_POINT('',(47.,40.,-107.));
#1176=CARTESIAN_POINT('',(47.,40.,-117.));
#1177=CARTESIAN_POINT('',(47.,40.,-107.));
#1178=CARTESIAN_POINT('',(47.,55.5,-127.));
#1179=CARTESIAN_POINT('Origin',(47.,57.5,-127.));
#1180=CARTESIAN_POINT('Origin',(42.5,75.,-107.));
#1181=CARTESIAN_POINT('',(42.5,75.,-127.));
#1182=CARTESIAN_POINT('',(42.5,75.,-107.));
#1183=CARTESIAN_POINT('Origin',(42.5,40.,-107.));
#1184=CARTESIAN_POINT('',(42.5,40.,-107.));
#1185=CARTESIAN_POINT('Origin',(42.5,57.5,-127.));
#1186=CARTESIAN_POINT('',(42.5,55.5,-127.));
#1187=CARTESIAN_POINT('Origin',(42.5,40.,-127.));
#1188=CARTESIAN_POINT('',(42.5,40.,-127.));
#1189=CARTESIAN_POINT('Origin',(42.5,57.5,-127.));
#1190=CARTESIAN_POINT('Origin',(42.5,57.5,-127.));
#1191=CARTESIAN_POINT('',(38.,55.5,-127.));
#1192=CARTESIAN_POINT('Origin',(38.,57.5,-127.));
#1193=CARTESIAN_POINT('',(36.,55.5,-127.));
#1194=CARTESIAN_POINT('',(42.5,55.5,-127.));
#1195=CARTESIAN_POINT('Origin',(36.,57.5,-127.));
#1196=CARTESIAN_POINT('Origin',(42.5,40.,-127.));
#1197=CARTESIAN_POINT('',(36.,40.,-107.));
#1198=CARTESIAN_POINT('',(36.,40.,-127.));
#1199=CARTESIAN_POINT('',(36.,40.,-117.));
#1200=CARTESIAN_POINT('',(38.,40.,-127.));
#1201=CARTESIAN_POINT('',(42.5,40.,-127.));
#1202=CARTESIAN_POINT('',(38.,40.,-107.));
#1203=CARTESIAN_POINT('',(38.,40.,-135.75));
#1204=CARTESIAN_POINT('',(42.5,40.,-107.));
#1205=CARTESIAN_POINT('Origin',(42.5,40.,-107.));
#1206=CARTESIAN_POINT('',(36.,75.,-107.));
#1207=CARTESIAN_POINT('',(36.,40.,-107.));
#1208=CARTESIAN_POINT('',(38.,75.,-107.));
#1209=CARTESIAN_POINT('',(38.,40.,-107.));
#1210=CARTESIAN_POINT('',(42.5,75.,-107.));
#1211=CARTESIAN_POINT('Origin',(42.5,57.5,-127.));
#1212=CARTESIAN_POINT('',(36.,75.,-127.));
#1213=CARTESIAN_POINT('Origin',(36.,57.5,-127.));
#1214=CARTESIAN_POINT('',(38.,75.,-127.));
#1215=CARTESIAN_POINT('',(42.5,75.,-127.));
#1216=CARTESIAN_POINT('Origin',(38.,57.5,-127.));
#1217=CARTESIAN_POINT('Origin',(42.5,75.,-107.));
#1218=CARTESIAN_POINT('',(36.,75.,-107.));
#1219=CARTESIAN_POINT('',(38.,75.,-125.75));
#1220=CARTESIAN_POINT('Origin',(38.,40.,-144.5));
#1221=CARTESIAN_POINT('Origin',(36.,40.,-107.));
#1222=UNCERTAINTY_MEASURE_WITH_UNIT(LENGTH_MEASURE(0.01),#1226,
'DISTANCE_ACCURACY_VALUE',
'Maximum model space distance between geometric entities at asserted c
onnectivities');
#1223=UNCERTAINTY_MEASURE_WITH_UNIT(LENGTH_MEASURE(0.01),#1226,
'DISTANCE_ACCURACY_VALUE',
'Maximum model space distance between geometric entities at asserted c
onnectivities');
#1224=(
GEOMETRIC_REPRESENTATION_CONTEXT(3)
GLOBAL_UNCERTAINTY_ASSIGNED_CONTEXT((#1222))
GLOBAL_UNIT_ASSIGNED_CONTEXT((#1226,#1228,#1229))
REPRESENTATION_CONTEXT('','3D')
);
#1225=(
GEOMETRIC_REPRESENTATION_CONTEXT(3)
GLOBAL_UNCERTAINTY_ASSIGNED_CONTEXT((#1223))
GLOBAL_UNIT_ASSIGNED_CONTEXT((#1226,#1228,#1229))
REPRESENTATION_CONTEXT('','3D')
);
#1226=(
LENGTH_UNIT()
NAMED_UNIT(*)
SI_UNIT(.MILLI.,.METRE.)
);
#1227=(
LENGTH_UNIT()
NAMED_UNIT(*)
SI_UNIT($,.METRE.)
);
#1228=(
NAMED_UNIT(*)
PLANE_ANGLE_UNIT()
SI_UNIT($,.RADIAN.)
);
#1229=(
NAMED_UNIT(*)
SI_UNIT($,.STERADIAN.)
SOLID_ANGLE_UNIT()
);
#1230=SHAPE_DEFINITION_REPRESENTATION(#1231,#1232);
#1231=PRODUCT_DEFINITION_SHAPE('',$,#1234);
#1232=SHAPE_REPRESENTATION('',(#754),#1224);
#1233=PRODUCT_DEFINITION_CONTEXT('part definition',#1238,'design');
#1234=PRODUCT_DEFINITION('2026-04-16-01-26-07-999',
'"3" st\X2\0159\X0\edov\X\E1 R(Zrcadlen\X\ED)',#1235,#1233);
#1235=PRODUCT_DEFINITION_FORMATION('',$,#1240);
#1236=PRODUCT_RELATED_PRODUCT_CATEGORY('"3" st\X2\0159\X0\edov\X\E1 R(
Zrcadlen\X\ED)','"3" st\X2\0159\X0\edov\X\E1 R(Zrcadlen\X\ED)',(#1240));
#1237=APPLICATION_PROTOCOL_DEFINITION('international standard',
'automotive_design',2009,#1238);
#1238=APPLICATION_CONTEXT(
'Core Data for Automotive Mechanical Design Process');
#1239=PRODUCT_CONTEXT('part definition',#1238,'mechanical');
#1240=PRODUCT('2026-04-16-01-26-07-999','"3" st\X2\0159\X0\edov\X\E1 R
(Zrcadlen\X\ED)',$,(#1239));
#1241=PRESENTATION_STYLE_ASSIGNMENT((#1242));
#1242=SURFACE_STYLE_USAGE(.BOTH.,#1243);
#1243=SURFACE_SIDE_STYLE('',(#1244));
#1244=SURFACE_STYLE_FILL_AREA(#1245);
#1245=FILL_AREA_STYLE('Ocel \X2\2013\X0\ sat\X\E9n',(#1246));
#1246=FILL_AREA_STYLE_COLOUR('Ocel \X2\2013\X0\ sat\X\E9n',#1247);
#1247=COLOUR_RGB('Ocel \X2\2013\X0\ sat\X\E9n',0.627450980392157,0.627450980392157,
0.627450980392157);
ENDSEC;
END-ISO-10303-21;
